G04 #@! TF.FileFunction,Legend,Top*
%FSLAX46Y46*%
G04 Gerber Fmt 4.6, Leading zero omitted, Abs format (unit mm)*
G04 Created by KiCad (PCBNEW 4.0.6) date 2018 April 17, Tuesday 13:37:15*
%MOMM*%
%LPD*%
G01*
G04 APERTURE LIST*
%ADD10C,0.100000*%
%ADD11C,0.200000*%
%ADD12C,0.150000*%
%ADD13C,0.120000*%
G04 APERTURE END LIST*
D10*
D11*
X9450000Y-94150000D02*
X9000000Y-97100000D01*
X9500000Y-103100000D02*
X9050000Y-101950000D01*
D10*
X9371429Y-105835714D02*
X9371429Y-105073809D01*
X9752381Y-105454761D02*
X8990476Y-105454761D01*
X8752381Y-104121428D02*
X8752381Y-104597619D01*
X9228571Y-104645238D01*
X9180952Y-104597619D01*
X9133333Y-104502381D01*
X9133333Y-104264285D01*
X9180952Y-104169047D01*
X9228571Y-104121428D01*
X9323810Y-104073809D01*
X9561905Y-104073809D01*
X9657143Y-104121428D01*
X9704762Y-104169047D01*
X9752381Y-104264285D01*
X9752381Y-104502381D01*
X9704762Y-104597619D01*
X9657143Y-104645238D01*
X8752381Y-103788095D02*
X9752381Y-103454762D01*
X8752381Y-103121428D01*
X8850000Y-93311904D02*
X8802381Y-93407142D01*
X8802381Y-93549999D01*
X8850000Y-93692857D01*
X8945238Y-93788095D01*
X9040476Y-93835714D01*
X9230952Y-93883333D01*
X9373810Y-93883333D01*
X9564286Y-93835714D01*
X9659524Y-93788095D01*
X9754762Y-93692857D01*
X9802381Y-93549999D01*
X9802381Y-93454761D01*
X9754762Y-93311904D01*
X9707143Y-93264285D01*
X9373810Y-93264285D01*
X9373810Y-93454761D01*
X9802381Y-92835714D02*
X8802381Y-92835714D01*
X9802381Y-92264285D01*
X8802381Y-92264285D01*
X9802381Y-91788095D02*
X8802381Y-91788095D01*
X8802381Y-91550000D01*
X8850000Y-91407142D01*
X8945238Y-91311904D01*
X9040476Y-91264285D01*
X9230952Y-91216666D01*
X9373810Y-91216666D01*
X9564286Y-91264285D01*
X9659524Y-91311904D01*
X9754762Y-91407142D01*
X9802381Y-91550000D01*
X9802381Y-91788095D01*
D12*
X4965000Y-72945000D02*
G75*
G03X4965000Y-72945000I-127000J0D01*
G01*
X4203000Y-72310000D02*
X4203000Y-77390000D01*
X7505000Y-72310000D02*
X7505000Y-77390000D01*
X3695000Y-72310000D02*
X3695000Y-77390000D01*
X3695000Y-72310000D02*
X7505000Y-72310000D01*
X3695000Y-77390000D02*
X7505000Y-77390000D01*
X1814000Y-77730000D02*
X6640000Y-77730000D01*
X6640000Y-77730000D02*
X6640000Y-87890000D01*
X6640000Y-87890000D02*
X1814000Y-87890000D01*
X1814000Y-87890000D02*
X1814000Y-77730000D01*
X3592000Y-87890000D02*
X3592000Y-87255000D01*
X3592000Y-87255000D02*
X4862000Y-87255000D01*
X4862000Y-87255000D02*
X4862000Y-87890000D01*
X5695000Y-68008000D02*
X5695000Y-66992000D01*
X5822000Y-66611000D02*
X5822000Y-68389000D01*
X5949000Y-68516000D02*
X5949000Y-66484000D01*
X6076000Y-66230000D02*
X6076000Y-68770000D01*
X6203000Y-68897000D02*
X6203000Y-66103000D01*
X6330000Y-65976000D02*
X6330000Y-69024000D01*
X6457000Y-69024000D02*
X6457000Y-65976000D01*
X6584000Y-65849000D02*
X6584000Y-69151000D01*
X6711000Y-69278000D02*
X6711000Y-65722000D01*
X6838000Y-69278000D02*
X6838000Y-65722000D01*
X6965000Y-65722000D02*
X6965000Y-69278000D01*
X7092000Y-69405000D02*
X7092000Y-65595000D01*
X7219000Y-65595000D02*
X7219000Y-69405000D01*
X7346000Y-69405000D02*
X7346000Y-65595000D01*
X7473000Y-69405000D02*
X7473000Y-65595000D01*
X9600000Y-67500000D02*
G75*
G03X9600000Y-67500000I-2000000J0D01*
G01*
X9400000Y-88750000D02*
X9400000Y-89450000D01*
X8200000Y-89450000D02*
X8200000Y-88750000D01*
X6150000Y-93800000D02*
X5450000Y-93800000D01*
X5450000Y-92600000D02*
X6150000Y-92600000D01*
X2150000Y-92600000D02*
X2850000Y-92600000D01*
X2850000Y-93800000D02*
X2150000Y-93800000D01*
X2350000Y-72200000D02*
X1650000Y-72200000D01*
X1650000Y-71000000D02*
X2350000Y-71000000D01*
X7200000Y-6625000D02*
X8200000Y-6625000D01*
X8200000Y-7975000D02*
X7200000Y-7975000D01*
X8700000Y-25375000D02*
X7700000Y-25375000D01*
X7700000Y-24025000D02*
X8700000Y-24025000D01*
X1400000Y-24025000D02*
X2400000Y-24025000D01*
X2400000Y-25375000D02*
X1400000Y-25375000D01*
X8600000Y-38475000D02*
X7600000Y-38475000D01*
X7600000Y-37125000D02*
X8600000Y-37125000D01*
X8600000Y-51475000D02*
X7600000Y-51475000D01*
X7600000Y-50125000D02*
X8600000Y-50125000D01*
X7200000Y-1825000D02*
X8200000Y-1825000D01*
X8200000Y-3175000D02*
X7200000Y-3175000D01*
X7200000Y-5025000D02*
X8200000Y-5025000D01*
X8200000Y-6375000D02*
X7200000Y-6375000D01*
X8200000Y-4775000D02*
X7200000Y-4775000D01*
X7200000Y-3425000D02*
X8200000Y-3425000D01*
X8425000Y-84200000D02*
X8425000Y-83200000D01*
X9775000Y-83200000D02*
X9775000Y-84200000D01*
D13*
X9078608Y-12142335D02*
G75*
G03X9235516Y-8910000I-1078608J1672335D01*
G01*
X6921392Y-12142335D02*
G75*
G02X6764484Y-8910000I1078608J1672335D01*
G01*
X9079837Y-11511130D02*
G75*
G03X9080000Y-9429039I-1079837J1041130D01*
G01*
X6920163Y-11511130D02*
G75*
G02X6920000Y-9429039I1079837J1041130D01*
G01*
X9236000Y-8910000D02*
X9080000Y-8910000D01*
X6920000Y-8910000D02*
X6764000Y-8910000D01*
D12*
X4000000Y-19300000D02*
G75*
G03X6000000Y-19300000I1000000J300000D01*
G01*
D11*
X5900000Y-18200000D02*
G75*
G03X5900000Y-18200000I-100000J0D01*
G01*
X4300000Y-18200000D02*
G75*
G03X4300000Y-18200000I-100000J0D01*
G01*
D12*
X6750000Y-19000000D02*
G75*
G03X6750000Y-19000000I-1750000J0D01*
G01*
X500000Y-13000000D02*
X9500000Y-13000000D01*
X9500000Y-13000000D02*
X9500000Y-23500000D01*
X9500000Y-23500000D02*
X500000Y-23500000D01*
X500000Y-23500000D02*
X500000Y-13000000D01*
X4000000Y-32300000D02*
G75*
G03X6000000Y-32300000I1000000J300000D01*
G01*
D11*
X5900000Y-31200000D02*
G75*
G03X5900000Y-31200000I-100000J0D01*
G01*
X4300000Y-31200000D02*
G75*
G03X4300000Y-31200000I-100000J0D01*
G01*
D12*
X6750000Y-32000000D02*
G75*
G03X6750000Y-32000000I-1750000J0D01*
G01*
X500000Y-26000000D02*
X9500000Y-26000000D01*
X9500000Y-26000000D02*
X9500000Y-36500000D01*
X9500000Y-36500000D02*
X500000Y-36500000D01*
X500000Y-36500000D02*
X500000Y-26000000D01*
X4000000Y-45300000D02*
G75*
G03X6000000Y-45300000I1000000J300000D01*
G01*
D11*
X5900000Y-44200000D02*
G75*
G03X5900000Y-44200000I-100000J0D01*
G01*
X4300000Y-44200000D02*
G75*
G03X4300000Y-44200000I-100000J0D01*
G01*
D12*
X6750000Y-45000000D02*
G75*
G03X6750000Y-45000000I-1750000J0D01*
G01*
X500000Y-39000000D02*
X9500000Y-39000000D01*
X9500000Y-39000000D02*
X9500000Y-49500000D01*
X9500000Y-49500000D02*
X500000Y-49500000D01*
X500000Y-49500000D02*
X500000Y-39000000D01*
X4000000Y-58300000D02*
G75*
G03X6000000Y-58300000I1000000J300000D01*
G01*
D11*
X5900000Y-57200000D02*
G75*
G03X5900000Y-57200000I-100000J0D01*
G01*
X4300000Y-57200000D02*
G75*
G03X4300000Y-57200000I-100000J0D01*
G01*
D12*
X6750000Y-58000000D02*
G75*
G03X6750000Y-58000000I-1750000J0D01*
G01*
X500000Y-52000000D02*
X9500000Y-52000000D01*
X9500000Y-52000000D02*
X9500000Y-62500000D01*
X9500000Y-62500000D02*
X500000Y-62500000D01*
X500000Y-62500000D02*
X500000Y-52000000D01*
D13*
X6210000Y-102670000D02*
X1010000Y-102670000D01*
X1010000Y-102670000D02*
X1010000Y-107990000D01*
X1010000Y-107990000D02*
X8870000Y-107990000D01*
X8870000Y-107990000D02*
X8870000Y-105330000D01*
X8870000Y-105330000D02*
X6210000Y-105330000D01*
X6210000Y-105330000D02*
X6210000Y-102670000D01*
X7480000Y-102670000D02*
X8870000Y-102670000D01*
X8870000Y-102670000D02*
X8870000Y-104060000D01*
X6110000Y-96930000D02*
X8890000Y-96930000D01*
X8890000Y-96930000D02*
X8890000Y-94190000D01*
X8890000Y-94190000D02*
X6110000Y-94190000D01*
X6110000Y-94190000D02*
X6110000Y-96930000D01*
X6110000Y-96930000D02*
X8770000Y-96930000D01*
X8770000Y-96930000D02*
X8770000Y-94190000D01*
X8770000Y-94190000D02*
X6110000Y-94190000D01*
X6110000Y-94190000D02*
X6110000Y-96930000D01*
X7060000Y-94190000D02*
X7940000Y-94190000D01*
X7940000Y-94190000D02*
X7940000Y-88190000D01*
X7940000Y-88190000D02*
X7060000Y-88190000D01*
X7060000Y-88190000D02*
X7060000Y-94190000D01*
X7060000Y-97240000D02*
X7060000Y-96930000D01*
X7940000Y-97240000D02*
X7940000Y-96930000D01*
X7060000Y-99780000D02*
X7060000Y-99180000D01*
X7940000Y-99780000D02*
X7940000Y-99180000D01*
X7180000Y-94190000D02*
X7180000Y-88190000D01*
X7300000Y-94190000D02*
X7300000Y-88190000D01*
X7420000Y-94190000D02*
X7420000Y-88190000D01*
X7540000Y-94190000D02*
X7540000Y-88190000D01*
X7660000Y-94190000D02*
X7660000Y-88190000D01*
X7780000Y-94190000D02*
X7780000Y-88190000D01*
X7900000Y-94190000D02*
X7900000Y-88190000D01*
X7500000Y-102020000D02*
X6230000Y-102020000D01*
X6230000Y-102020000D02*
X6230000Y-100750000D01*
X3610000Y-96930000D02*
X6390000Y-96930000D01*
X6390000Y-96930000D02*
X6390000Y-94190000D01*
X6390000Y-94190000D02*
X3610000Y-94190000D01*
X3610000Y-94190000D02*
X3610000Y-96930000D01*
X3610000Y-96930000D02*
X6270000Y-96930000D01*
X6270000Y-96930000D02*
X6270000Y-94190000D01*
X6270000Y-94190000D02*
X3610000Y-94190000D01*
X3610000Y-94190000D02*
X3610000Y-96930000D01*
X4560000Y-94190000D02*
X5440000Y-94190000D01*
X5440000Y-94190000D02*
X5440000Y-88190000D01*
X5440000Y-88190000D02*
X4560000Y-88190000D01*
X4560000Y-88190000D02*
X4560000Y-94190000D01*
X4560000Y-97240000D02*
X4560000Y-96930000D01*
X5440000Y-97240000D02*
X5440000Y-96930000D01*
X4560000Y-99780000D02*
X4560000Y-99180000D01*
X5440000Y-99780000D02*
X5440000Y-99180000D01*
X4680000Y-94190000D02*
X4680000Y-88190000D01*
X4800000Y-94190000D02*
X4800000Y-88190000D01*
X4920000Y-94190000D02*
X4920000Y-88190000D01*
X5040000Y-94190000D02*
X5040000Y-88190000D01*
X5160000Y-94190000D02*
X5160000Y-88190000D01*
X5280000Y-94190000D02*
X5280000Y-88190000D01*
X5400000Y-94190000D02*
X5400000Y-88190000D01*
X5000000Y-102020000D02*
X3730000Y-102020000D01*
X3730000Y-102020000D02*
X3730000Y-100750000D01*
X1110000Y-96930000D02*
X3890000Y-96930000D01*
X3890000Y-96930000D02*
X3890000Y-94190000D01*
X3890000Y-94190000D02*
X1110000Y-94190000D01*
X1110000Y-94190000D02*
X1110000Y-96930000D01*
X1110000Y-96930000D02*
X3770000Y-96930000D01*
X3770000Y-96930000D02*
X3770000Y-94190000D01*
X3770000Y-94190000D02*
X1110000Y-94190000D01*
X1110000Y-94190000D02*
X1110000Y-96930000D01*
X2060000Y-94190000D02*
X2940000Y-94190000D01*
X2940000Y-94190000D02*
X2940000Y-88190000D01*
X2940000Y-88190000D02*
X2060000Y-88190000D01*
X2060000Y-88190000D02*
X2060000Y-94190000D01*
X2060000Y-97240000D02*
X2060000Y-96930000D01*
X2940000Y-97240000D02*
X2940000Y-96930000D01*
X2060000Y-99780000D02*
X2060000Y-99180000D01*
X2940000Y-99780000D02*
X2940000Y-99180000D01*
X2180000Y-94190000D02*
X2180000Y-88190000D01*
X2300000Y-94190000D02*
X2300000Y-88190000D01*
X2420000Y-94190000D02*
X2420000Y-88190000D01*
X2540000Y-94190000D02*
X2540000Y-88190000D01*
X2660000Y-94190000D02*
X2660000Y-88190000D01*
X2780000Y-94190000D02*
X2780000Y-88190000D01*
X2900000Y-94190000D02*
X2900000Y-88190000D01*
X2500000Y-102020000D02*
X1230000Y-102020000D01*
X1230000Y-102020000D02*
X1230000Y-100750000D01*
D12*
X6052381Y-75826190D02*
X5052381Y-75826190D01*
X5957143Y-74778571D02*
X6004762Y-74826190D01*
X6052381Y-74969047D01*
X6052381Y-75064285D01*
X6004762Y-75207143D01*
X5909524Y-75302381D01*
X5814286Y-75350000D01*
X5623810Y-75397619D01*
X5480952Y-75397619D01*
X5290476Y-75350000D01*
X5195238Y-75302381D01*
X5100000Y-75207143D01*
X5052381Y-75064285D01*
X5052381Y-74969047D01*
X5100000Y-74826190D01*
X5147619Y-74778571D01*
X5147619Y-74397619D02*
X5100000Y-74350000D01*
X5052381Y-74254762D01*
X5052381Y-74016666D01*
X5100000Y-73921428D01*
X5147619Y-73873809D01*
X5242857Y-73826190D01*
X5338095Y-73826190D01*
X5480952Y-73873809D01*
X6052381Y-74445238D01*
X6052381Y-73826190D01*
X4602381Y-83776190D02*
X3602381Y-83776190D01*
X4507143Y-82728571D02*
X4554762Y-82776190D01*
X4602381Y-82919047D01*
X4602381Y-83014285D01*
X4554762Y-83157143D01*
X4459524Y-83252381D01*
X4364286Y-83300000D01*
X4173810Y-83347619D01*
X4030952Y-83347619D01*
X3840476Y-83300000D01*
X3745238Y-83252381D01*
X3650000Y-83157143D01*
X3602381Y-83014285D01*
X3602381Y-82919047D01*
X3650000Y-82776190D01*
X3697619Y-82728571D01*
X4602381Y-81776190D02*
X4602381Y-82347619D01*
X4602381Y-82061905D02*
X3602381Y-82061905D01*
X3745238Y-82157143D01*
X3840476Y-82252381D01*
X3888095Y-82347619D01*
X7983334Y-64857143D02*
X7935715Y-64904762D01*
X7792858Y-64952381D01*
X7697620Y-64952381D01*
X7554762Y-64904762D01*
X7459524Y-64809524D01*
X7411905Y-64714286D01*
X7364286Y-64523810D01*
X7364286Y-64380952D01*
X7411905Y-64190476D01*
X7459524Y-64095238D01*
X7554762Y-64000000D01*
X7697620Y-63952381D01*
X7792858Y-63952381D01*
X7935715Y-64000000D01*
X7983334Y-64047619D01*
X8840477Y-64285714D02*
X8840477Y-64952381D01*
X8602381Y-63904762D02*
X8364286Y-64619048D01*
X8983334Y-64619048D01*
X2633334Y-64802381D02*
X2157143Y-64802381D01*
X2157143Y-63802381D01*
X3490477Y-64802381D02*
X2919048Y-64802381D01*
X3204762Y-64802381D02*
X3204762Y-63802381D01*
X3109524Y-63945238D01*
X3014286Y-64040476D01*
X2919048Y-64088095D01*
X854762Y-88397619D02*
X759524Y-88350000D01*
X664286Y-88254762D01*
X521429Y-88111905D01*
X426190Y-88064286D01*
X330952Y-88064286D01*
X378571Y-88302381D02*
X283333Y-88254762D01*
X188095Y-88159524D01*
X140476Y-87969048D01*
X140476Y-87635714D01*
X188095Y-87445238D01*
X283333Y-87350000D01*
X378571Y-87302381D01*
X569048Y-87302381D01*
X664286Y-87350000D01*
X759524Y-87445238D01*
X807143Y-87635714D01*
X807143Y-87969048D01*
X759524Y-88159524D01*
X664286Y-88254762D01*
X569048Y-88302381D01*
X378571Y-88302381D01*
X1759524Y-88302381D02*
X1188095Y-88302381D01*
X1473809Y-88302381D02*
X1473809Y-87302381D01*
X1378571Y-87445238D01*
X1283333Y-87540476D01*
X1188095Y-87588095D01*
X9407143Y-86866666D02*
X9454762Y-86914285D01*
X9502381Y-87057142D01*
X9502381Y-87152380D01*
X9454762Y-87295238D01*
X9359524Y-87390476D01*
X9264286Y-87438095D01*
X9073810Y-87485714D01*
X8930952Y-87485714D01*
X8740476Y-87438095D01*
X8645238Y-87390476D01*
X8550000Y-87295238D01*
X8502381Y-87152380D01*
X8502381Y-87057142D01*
X8550000Y-86914285D01*
X8597619Y-86866666D01*
X9502381Y-85914285D02*
X9502381Y-86485714D01*
X9502381Y-86200000D02*
X8502381Y-86200000D01*
X8645238Y-86295238D01*
X8740476Y-86390476D01*
X8788095Y-86485714D01*
X8057143Y-92966666D02*
X8104762Y-93014285D01*
X8152381Y-93157142D01*
X8152381Y-93252380D01*
X8104762Y-93395238D01*
X8009524Y-93490476D01*
X7914286Y-93538095D01*
X7723810Y-93585714D01*
X7580952Y-93585714D01*
X7390476Y-93538095D01*
X7295238Y-93490476D01*
X7200000Y-93395238D01*
X7152381Y-93252380D01*
X7152381Y-93157142D01*
X7200000Y-93014285D01*
X7247619Y-92966666D01*
X7247619Y-92585714D02*
X7200000Y-92538095D01*
X7152381Y-92442857D01*
X7152381Y-92204761D01*
X7200000Y-92109523D01*
X7247619Y-92061904D01*
X7342857Y-92014285D01*
X7438095Y-92014285D01*
X7580952Y-92061904D01*
X8152381Y-92633333D01*
X8152381Y-92014285D01*
X857143Y-93166666D02*
X904762Y-93214285D01*
X952381Y-93357142D01*
X952381Y-93452380D01*
X904762Y-93595238D01*
X809524Y-93690476D01*
X714286Y-93738095D01*
X523810Y-93785714D01*
X380952Y-93785714D01*
X190476Y-93738095D01*
X95238Y-93690476D01*
X0Y-93595238D01*
X-47619Y-93452380D01*
X-47619Y-93357142D01*
X0Y-93214285D01*
X47619Y-93166666D01*
X-47619Y-92833333D02*
X-47619Y-92214285D01*
X333333Y-92547619D01*
X333333Y-92404761D01*
X380952Y-92309523D01*
X428571Y-92261904D01*
X523810Y-92214285D01*
X761905Y-92214285D01*
X857143Y-92261904D01*
X904762Y-92309523D01*
X952381Y-92404761D01*
X952381Y-92690476D01*
X904762Y-92785714D01*
X857143Y-92833333D01*
X4233334Y-71807143D02*
X4185715Y-71854762D01*
X4042858Y-71902381D01*
X3947620Y-71902381D01*
X3804762Y-71854762D01*
X3709524Y-71759524D01*
X3661905Y-71664286D01*
X3614286Y-71473810D01*
X3614286Y-71330952D01*
X3661905Y-71140476D01*
X3709524Y-71045238D01*
X3804762Y-70950000D01*
X3947620Y-70902381D01*
X4042858Y-70902381D01*
X4185715Y-70950000D01*
X4233334Y-70997619D01*
X5138096Y-70902381D02*
X4661905Y-70902381D01*
X4614286Y-71378571D01*
X4661905Y-71330952D01*
X4757143Y-71283333D01*
X4995239Y-71283333D01*
X5090477Y-71330952D01*
X5138096Y-71378571D01*
X5185715Y-71473810D01*
X5185715Y-71711905D01*
X5138096Y-71807143D01*
X5090477Y-71854762D01*
X4995239Y-71902381D01*
X4757143Y-71902381D01*
X4661905Y-71854762D01*
X4614286Y-71807143D01*
X5383334Y-7752381D02*
X5050000Y-7276190D01*
X4811905Y-7752381D02*
X4811905Y-6752381D01*
X5192858Y-6752381D01*
X5288096Y-6800000D01*
X5335715Y-6847619D01*
X5383334Y-6942857D01*
X5383334Y-7085714D01*
X5335715Y-7180952D01*
X5288096Y-7228571D01*
X5192858Y-7276190D01*
X4811905Y-7276190D01*
X6335715Y-7752381D02*
X5764286Y-7752381D01*
X6050000Y-7752381D02*
X6050000Y-6752381D01*
X5954762Y-6895238D01*
X5859524Y-6990476D01*
X5764286Y-7038095D01*
X8033334Y-23252381D02*
X7700000Y-22776190D01*
X7461905Y-23252381D02*
X7461905Y-22252381D01*
X7842858Y-22252381D01*
X7938096Y-22300000D01*
X7985715Y-22347619D01*
X8033334Y-22442857D01*
X8033334Y-22585714D01*
X7985715Y-22680952D01*
X7938096Y-22728571D01*
X7842858Y-22776190D01*
X7461905Y-22776190D01*
X8414286Y-22347619D02*
X8461905Y-22300000D01*
X8557143Y-22252381D01*
X8795239Y-22252381D01*
X8890477Y-22300000D01*
X8938096Y-22347619D01*
X8985715Y-22442857D01*
X8985715Y-22538095D01*
X8938096Y-22680952D01*
X8366667Y-23252381D01*
X8985715Y-23252381D01*
X1733334Y-27052381D02*
X1400000Y-26576190D01*
X1161905Y-27052381D02*
X1161905Y-26052381D01*
X1542858Y-26052381D01*
X1638096Y-26100000D01*
X1685715Y-26147619D01*
X1733334Y-26242857D01*
X1733334Y-26385714D01*
X1685715Y-26480952D01*
X1638096Y-26528571D01*
X1542858Y-26576190D01*
X1161905Y-26576190D01*
X2066667Y-26052381D02*
X2685715Y-26052381D01*
X2352381Y-26433333D01*
X2495239Y-26433333D01*
X2590477Y-26480952D01*
X2638096Y-26528571D01*
X2685715Y-26623810D01*
X2685715Y-26861905D01*
X2638096Y-26957143D01*
X2590477Y-27004762D01*
X2495239Y-27052381D01*
X2209524Y-27052381D01*
X2114286Y-27004762D01*
X2066667Y-26957143D01*
X7933334Y-36352381D02*
X7600000Y-35876190D01*
X7361905Y-36352381D02*
X7361905Y-35352381D01*
X7742858Y-35352381D01*
X7838096Y-35400000D01*
X7885715Y-35447619D01*
X7933334Y-35542857D01*
X7933334Y-35685714D01*
X7885715Y-35780952D01*
X7838096Y-35828571D01*
X7742858Y-35876190D01*
X7361905Y-35876190D01*
X8790477Y-35685714D02*
X8790477Y-36352381D01*
X8552381Y-35304762D02*
X8314286Y-36019048D01*
X8933334Y-36019048D01*
X7983334Y-49352381D02*
X7650000Y-48876190D01*
X7411905Y-49352381D02*
X7411905Y-48352381D01*
X7792858Y-48352381D01*
X7888096Y-48400000D01*
X7935715Y-48447619D01*
X7983334Y-48542857D01*
X7983334Y-48685714D01*
X7935715Y-48780952D01*
X7888096Y-48828571D01*
X7792858Y-48876190D01*
X7411905Y-48876190D01*
X8888096Y-48352381D02*
X8411905Y-48352381D01*
X8364286Y-48828571D01*
X8411905Y-48780952D01*
X8507143Y-48733333D01*
X8745239Y-48733333D01*
X8840477Y-48780952D01*
X8888096Y-48828571D01*
X8935715Y-48923810D01*
X8935715Y-49161905D01*
X8888096Y-49257143D01*
X8840477Y-49304762D01*
X8745239Y-49352381D01*
X8507143Y-49352381D01*
X8411905Y-49304762D01*
X8364286Y-49257143D01*
X5083334Y-2952381D02*
X4750000Y-2476190D01*
X4511905Y-2952381D02*
X4511905Y-1952381D01*
X4892858Y-1952381D01*
X4988096Y-2000000D01*
X5035715Y-2047619D01*
X5083334Y-2142857D01*
X5083334Y-2285714D01*
X5035715Y-2380952D01*
X4988096Y-2428571D01*
X4892858Y-2476190D01*
X4511905Y-2476190D01*
X5940477Y-1952381D02*
X5750000Y-1952381D01*
X5654762Y-2000000D01*
X5607143Y-2047619D01*
X5511905Y-2190476D01*
X5464286Y-2380952D01*
X5464286Y-2761905D01*
X5511905Y-2857143D01*
X5559524Y-2904762D01*
X5654762Y-2952381D01*
X5845239Y-2952381D01*
X5940477Y-2904762D01*
X5988096Y-2857143D01*
X6035715Y-2761905D01*
X6035715Y-2523810D01*
X5988096Y-2428571D01*
X5940477Y-2380952D01*
X5845239Y-2333333D01*
X5654762Y-2333333D01*
X5559524Y-2380952D01*
X5511905Y-2428571D01*
X5464286Y-2523810D01*
X5083334Y-6152381D02*
X4750000Y-5676190D01*
X4511905Y-6152381D02*
X4511905Y-5152381D01*
X4892858Y-5152381D01*
X4988096Y-5200000D01*
X5035715Y-5247619D01*
X5083334Y-5342857D01*
X5083334Y-5485714D01*
X5035715Y-5580952D01*
X4988096Y-5628571D01*
X4892858Y-5676190D01*
X4511905Y-5676190D01*
X5416667Y-5152381D02*
X6083334Y-5152381D01*
X5654762Y-6152381D01*
X5083334Y-4502381D02*
X4750000Y-4026190D01*
X4511905Y-4502381D02*
X4511905Y-3502381D01*
X4892858Y-3502381D01*
X4988096Y-3550000D01*
X5035715Y-3597619D01*
X5083334Y-3692857D01*
X5083334Y-3835714D01*
X5035715Y-3930952D01*
X4988096Y-3978571D01*
X4892858Y-4026190D01*
X4511905Y-4026190D01*
X5654762Y-3930952D02*
X5559524Y-3883333D01*
X5511905Y-3835714D01*
X5464286Y-3740476D01*
X5464286Y-3692857D01*
X5511905Y-3597619D01*
X5559524Y-3550000D01*
X5654762Y-3502381D01*
X5845239Y-3502381D01*
X5940477Y-3550000D01*
X5988096Y-3597619D01*
X6035715Y-3692857D01*
X6035715Y-3740476D01*
X5988096Y-3835714D01*
X5940477Y-3883333D01*
X5845239Y-3930952D01*
X5654762Y-3930952D01*
X5559524Y-3978571D01*
X5511905Y-4026190D01*
X5464286Y-4121429D01*
X5464286Y-4311905D01*
X5511905Y-4407143D01*
X5559524Y-4454762D01*
X5654762Y-4502381D01*
X5845239Y-4502381D01*
X5940477Y-4454762D01*
X5988096Y-4407143D01*
X6035715Y-4311905D01*
X6035715Y-4121429D01*
X5988096Y-4026190D01*
X5940477Y-3978571D01*
X5845239Y-3930952D01*
X9602381Y-81516666D02*
X9126190Y-81850000D01*
X9602381Y-82088095D02*
X8602381Y-82088095D01*
X8602381Y-81707142D01*
X8650000Y-81611904D01*
X8697619Y-81564285D01*
X8792857Y-81516666D01*
X8935714Y-81516666D01*
X9030952Y-81564285D01*
X9078571Y-81611904D01*
X9126190Y-81707142D01*
X9126190Y-82088095D01*
X9602381Y-81040476D02*
X9602381Y-80850000D01*
X9554762Y-80754761D01*
X9507143Y-80707142D01*
X9364286Y-80611904D01*
X9173810Y-80564285D01*
X8792857Y-80564285D01*
X8697619Y-80611904D01*
X8650000Y-80659523D01*
X8602381Y-80754761D01*
X8602381Y-80945238D01*
X8650000Y-81040476D01*
X8697619Y-81088095D01*
X8792857Y-81135714D01*
X9030952Y-81135714D01*
X9126190Y-81088095D01*
X9173810Y-81040476D01*
X9221429Y-80945238D01*
X9221429Y-80754761D01*
X9173810Y-80659523D01*
X9126190Y-80611904D01*
X9030952Y-80564285D01*
X4561905Y-12552381D02*
X4561905Y-11552381D01*
X4800000Y-11552381D01*
X4942858Y-11600000D01*
X5038096Y-11695238D01*
X5085715Y-11790476D01*
X5133334Y-11980952D01*
X5133334Y-12123810D01*
X5085715Y-12314286D01*
X5038096Y-12409524D01*
X4942858Y-12504762D01*
X4800000Y-12552381D01*
X4561905Y-12552381D01*
X5466667Y-11552381D02*
X6085715Y-11552381D01*
X5752381Y-11933333D01*
X5895239Y-11933333D01*
X5990477Y-11980952D01*
X6038096Y-12028571D01*
X6085715Y-12123810D01*
X6085715Y-12361905D01*
X6038096Y-12457143D01*
X5990477Y-12504762D01*
X5895239Y-12552381D01*
X5609524Y-12552381D01*
X5514286Y-12504762D01*
X5466667Y-12457143D01*
X4404762Y-16707143D02*
X4357143Y-16754762D01*
X4214286Y-16802381D01*
X4119048Y-16802381D01*
X3976190Y-16754762D01*
X3880952Y-16659524D01*
X3833333Y-16564286D01*
X3785714Y-16373810D01*
X3785714Y-16230952D01*
X3833333Y-16040476D01*
X3880952Y-15945238D01*
X3976190Y-15850000D01*
X4119048Y-15802381D01*
X4214286Y-15802381D01*
X4357143Y-15850000D01*
X4404762Y-15897619D01*
X4690476Y-15802381D02*
X5023809Y-16802381D01*
X5357143Y-15802381D01*
X6214286Y-16802381D02*
X5642857Y-16802381D01*
X5928571Y-16802381D02*
X5928571Y-15802381D01*
X5833333Y-15945238D01*
X5738095Y-16040476D01*
X5642857Y-16088095D01*
X4354762Y-29657143D02*
X4307143Y-29704762D01*
X4164286Y-29752381D01*
X4069048Y-29752381D01*
X3926190Y-29704762D01*
X3830952Y-29609524D01*
X3783333Y-29514286D01*
X3735714Y-29323810D01*
X3735714Y-29180952D01*
X3783333Y-28990476D01*
X3830952Y-28895238D01*
X3926190Y-28800000D01*
X4069048Y-28752381D01*
X4164286Y-28752381D01*
X4307143Y-28800000D01*
X4354762Y-28847619D01*
X4640476Y-28752381D02*
X4973809Y-29752381D01*
X5307143Y-28752381D01*
X5592857Y-28847619D02*
X5640476Y-28800000D01*
X5735714Y-28752381D01*
X5973810Y-28752381D01*
X6069048Y-28800000D01*
X6116667Y-28847619D01*
X6164286Y-28942857D01*
X6164286Y-29038095D01*
X6116667Y-29180952D01*
X5545238Y-29752381D01*
X6164286Y-29752381D01*
X3573810Y-41700000D02*
X3478572Y-41652381D01*
X3335715Y-41652381D01*
X3192857Y-41700000D01*
X3097619Y-41795238D01*
X3050000Y-41890476D01*
X3002381Y-42080952D01*
X3002381Y-42223810D01*
X3050000Y-42414286D01*
X3097619Y-42509524D01*
X3192857Y-42604762D01*
X3335715Y-42652381D01*
X3430953Y-42652381D01*
X3573810Y-42604762D01*
X3621429Y-42557143D01*
X3621429Y-42223810D01*
X3430953Y-42223810D01*
X4002381Y-42366667D02*
X4478572Y-42366667D01*
X3907143Y-42652381D02*
X4240476Y-41652381D01*
X4573810Y-42652381D01*
X4764286Y-41652381D02*
X5335715Y-41652381D01*
X5050000Y-42652381D02*
X5050000Y-41652381D01*
X5669048Y-42128571D02*
X6002382Y-42128571D01*
X6145239Y-42652381D02*
X5669048Y-42652381D01*
X5669048Y-41652381D01*
X6145239Y-41652381D01*
X7097620Y-42652381D02*
X6526191Y-42652381D01*
X6811905Y-42652381D02*
X6811905Y-41652381D01*
X6716667Y-41795238D01*
X6621429Y-41890476D01*
X6526191Y-41938095D01*
X3573810Y-54950000D02*
X3478572Y-54902381D01*
X3335715Y-54902381D01*
X3192857Y-54950000D01*
X3097619Y-55045238D01*
X3050000Y-55140476D01*
X3002381Y-55330952D01*
X3002381Y-55473810D01*
X3050000Y-55664286D01*
X3097619Y-55759524D01*
X3192857Y-55854762D01*
X3335715Y-55902381D01*
X3430953Y-55902381D01*
X3573810Y-55854762D01*
X3621429Y-55807143D01*
X3621429Y-55473810D01*
X3430953Y-55473810D01*
X4002381Y-55616667D02*
X4478572Y-55616667D01*
X3907143Y-55902381D02*
X4240476Y-54902381D01*
X4573810Y-55902381D01*
X4764286Y-54902381D02*
X5335715Y-54902381D01*
X5050000Y-55902381D02*
X5050000Y-54902381D01*
X5669048Y-55378571D02*
X6002382Y-55378571D01*
X6145239Y-55902381D02*
X5669048Y-55902381D01*
X5669048Y-54902381D01*
X6145239Y-54902381D01*
X6526191Y-54997619D02*
X6573810Y-54950000D01*
X6669048Y-54902381D01*
X6907144Y-54902381D01*
X7002382Y-54950000D01*
X7050001Y-54997619D01*
X7097620Y-55092857D01*
X7097620Y-55188095D01*
X7050001Y-55330952D01*
X6478572Y-55902381D01*
X7097620Y-55902381D01*
X8902381Y-107733333D02*
X9616667Y-107733333D01*
X9759524Y-107780953D01*
X9854762Y-107876191D01*
X9902381Y-108019048D01*
X9902381Y-108114286D01*
X9902381Y-107257143D02*
X8902381Y-107257143D01*
X8902381Y-106876190D01*
X8950000Y-106780952D01*
X8997619Y-106733333D01*
X9092857Y-106685714D01*
X9235714Y-106685714D01*
X9330952Y-106733333D01*
X9378571Y-106780952D01*
X9426190Y-106876190D01*
X9426190Y-107257143D01*
X8902381Y-105780952D02*
X8902381Y-106257143D01*
X9378571Y-106304762D01*
X9330952Y-106257143D01*
X9283333Y-106161905D01*
X9283333Y-105923809D01*
X9330952Y-105828571D01*
X9378571Y-105780952D01*
X9473810Y-105733333D01*
X9711905Y-105733333D01*
X9807143Y-105780952D01*
X9854762Y-105828571D01*
X9902381Y-105923809D01*
X9902381Y-106161905D01*
X9854762Y-106257143D01*
X9807143Y-106304762D01*
X6652381Y-95883333D02*
X7366667Y-95883333D01*
X7509524Y-95930953D01*
X7604762Y-96026191D01*
X7652381Y-96169048D01*
X7652381Y-96264286D01*
X6747619Y-95454762D02*
X6700000Y-95407143D01*
X6652381Y-95311905D01*
X6652381Y-95073809D01*
X6700000Y-94978571D01*
X6747619Y-94930952D01*
X6842857Y-94883333D01*
X6938095Y-94883333D01*
X7080952Y-94930952D01*
X7652381Y-95502381D01*
X7652381Y-94883333D01*
X4652381Y-95893333D02*
X5366667Y-95893333D01*
X5509524Y-95940953D01*
X5604762Y-96036191D01*
X5652381Y-96179048D01*
X5652381Y-96274286D01*
X4652381Y-95512381D02*
X4652381Y-94893333D01*
X5033333Y-95226667D01*
X5033333Y-95083809D01*
X5080952Y-94988571D01*
X5128571Y-94940952D01*
X5223810Y-94893333D01*
X5461905Y-94893333D01*
X5557143Y-94940952D01*
X5604762Y-94988571D01*
X5652381Y-95083809D01*
X5652381Y-95369524D01*
X5604762Y-95464762D01*
X5557143Y-95512381D01*
X2002381Y-95943333D02*
X2716667Y-95943333D01*
X2859524Y-95990953D01*
X2954762Y-96086191D01*
X3002381Y-96229048D01*
X3002381Y-96324286D01*
X2335714Y-95038571D02*
X3002381Y-95038571D01*
X1954762Y-95276667D02*
X2669048Y-95514762D01*
X2669048Y-94895714D01*
M02*
