G04 #@! TF.FileFunction,Soldermask,Top*
%FSLAX46Y46*%
G04 Gerber Fmt 4.6, Leading zero omitted, Abs format (unit mm)*
G04 Created by KiCad (PCBNEW 4.0.6) date 2018 April 17, Tuesday 13:37:15*
%MOMM*%
%LPD*%
G01*
G04 APERTURE LIST*
%ADD10C,0.100000*%
%ADD11O,1.873200X1.009600*%
%ADD12C,0.402000*%
%ADD13R,1.543000X0.908000*%
%ADD14R,1.700000X1.700000*%
%ADD15C,1.700000*%
%ADD16R,4.600000X2.200000*%
%ADD17R,2.800000X3.000000*%
%ADD18R,1.150000X1.200000*%
%ADD19R,1.200000X1.150000*%
%ADD20R,1.100000X1.300000*%
%ADD21R,1.300000X1.100000*%
%ADD22R,2.200000X2.200000*%
%ADD23C,2.200000*%
%ADD24O,2.100000X1.724000*%
%ADD25O,1.450000X1.250000*%
%ADD26O,2.900000X1.900000*%
%ADD27O,2.900000X2.000000*%
%ADD28O,2.800000X2.000000*%
%ADD29R,2.100000X2.100000*%
%ADD30O,2.100000X2.100000*%
%ADD31R,1.400000X1.900000*%
G04 APERTURE END LIST*
D10*
D11*
X2806000Y-72945000D03*
X2806000Y-74215000D03*
X2806000Y-75485000D03*
X2806000Y-76755000D03*
X8394000Y-76755000D03*
X8394000Y-75485000D03*
X8394000Y-74215000D03*
X8394000Y-72945000D03*
D12*
X-300000Y-12400000D03*
X-300000Y-11800000D03*
X-300000Y-11200000D03*
X-1700000Y-11200000D03*
X-1700000Y-11800000D03*
X-1700000Y-12400000D03*
D13*
X7402000Y-86620000D03*
X7402000Y-85350000D03*
X7402000Y-84080000D03*
X7402000Y-82810000D03*
X7402000Y-81540000D03*
X7402000Y-80270000D03*
X7402000Y-79000000D03*
X1052000Y-79000000D03*
X1052000Y-80270000D03*
X1052000Y-82810000D03*
X1052000Y-84080000D03*
X1052000Y-85350000D03*
X1052000Y-86620000D03*
X1052000Y-81540000D03*
D14*
X6850000Y-67500000D03*
D15*
X8350000Y-67500000D03*
D16*
X2500000Y-66100000D03*
X2500000Y-69300000D03*
D17*
X6500000Y-90200000D03*
X1700000Y-90200000D03*
D18*
X8800000Y-88350000D03*
X8800000Y-89850000D03*
D19*
X6550000Y-93200000D03*
X5050000Y-93200000D03*
X1750000Y-93200000D03*
X3250000Y-93200000D03*
X2750000Y-71600000D03*
X1250000Y-71600000D03*
D20*
X8550000Y-7300000D03*
X6850000Y-7300000D03*
X7350000Y-24700000D03*
X9050000Y-24700000D03*
X2750000Y-24700000D03*
X1050000Y-24700000D03*
X7250000Y-37800000D03*
X8950000Y-37800000D03*
X7250000Y-50800000D03*
X8950000Y-50800000D03*
X8550000Y-2500000D03*
X6850000Y-2500000D03*
X8550000Y-5700000D03*
X6850000Y-5700000D03*
X6850000Y-4100000D03*
X8550000Y-4100000D03*
D21*
X9100000Y-82850000D03*
X9100000Y-84550000D03*
D22*
X8000000Y-9200000D03*
D23*
X8000000Y-11740000D03*
D24*
X-3100000Y-2500000D03*
X-3100000Y-9700000D03*
D25*
X-6000000Y-3675000D03*
X-6000000Y-8525000D03*
D26*
X5000000Y-14080000D03*
D27*
X5000000Y-22380000D03*
D28*
X5000000Y-24800000D03*
D26*
X5000000Y-27080000D03*
D27*
X5000000Y-35380000D03*
D28*
X5000000Y-37800000D03*
D26*
X5000000Y-40080000D03*
D27*
X5000000Y-48380000D03*
D28*
X5000000Y-50800000D03*
D26*
X5000000Y-53080000D03*
D27*
X5000000Y-61380000D03*
D28*
X5000000Y-63800000D03*
D29*
X7480000Y-104060000D03*
D30*
X7480000Y-106600000D03*
X4940000Y-104060000D03*
X4940000Y-106600000D03*
X2400000Y-104060000D03*
X2400000Y-106600000D03*
D29*
X7500000Y-100750000D03*
D30*
X7500000Y-98210000D03*
D29*
X5000000Y-100750000D03*
D30*
X5000000Y-98210000D03*
D29*
X2500000Y-100750000D03*
D30*
X2500000Y-98210000D03*
D31*
X-13800000Y-5300000D03*
X-13800000Y-7600000D03*
D12*
X-300000Y-1600000D03*
X-300000Y-1000000D03*
X-300000Y-400000D03*
X-1700000Y-400000D03*
X-1700000Y-1000000D03*
X-1700000Y-1600000D03*
M02*
