G04 #@! TF.FileFunction,Other,Comment*
%FSLAX46Y46*%
G04 Gerber Fmt 4.6, Leading zero omitted, Abs format (unit mm)*
G04 Created by KiCad (PCBNEW 4.0.6) date 2018 April 18, Wednesday 08:04:54*
%MOMM*%
%LPD*%
G01*
G04 APERTURE LIST*
%ADD10C,0.100000*%
%ADD11C,0.300000*%
%ADD12C,0.200000*%
G04 APERTURE END LIST*
D10*
D11*
X-23314286Y3792857D02*
X-23457143Y3721429D01*
X-23742857Y3721429D01*
X-23885715Y3792857D01*
X-23957143Y3864286D01*
X-24028572Y4007143D01*
X-24028572Y4435714D01*
X-23957143Y4578571D01*
X-23885715Y4650000D01*
X-23742857Y4721429D01*
X-23457143Y4721429D01*
X-23314286Y4650000D01*
X-22028572Y4721429D02*
X-22028572Y3721429D01*
X-22671429Y4721429D02*
X-22671429Y3935714D01*
X-22600001Y3792857D01*
X-22457143Y3721429D01*
X-22242858Y3721429D01*
X-22100001Y3792857D01*
X-22028572Y3864286D01*
X-21528572Y4721429D02*
X-20957143Y4721429D01*
X-21314286Y5221429D02*
X-21314286Y3935714D01*
X-21242858Y3792857D01*
X-21100000Y3721429D01*
X-20957143Y3721429D01*
X-20242857Y3721429D02*
X-20385715Y3792857D01*
X-20457143Y3864286D01*
X-20528572Y4007143D01*
X-20528572Y4435714D01*
X-20457143Y4578571D01*
X-20385715Y4650000D01*
X-20242857Y4721429D01*
X-20028572Y4721429D01*
X-19885715Y4650000D01*
X-19814286Y4578571D01*
X-19742857Y4435714D01*
X-19742857Y4007143D01*
X-19814286Y3864286D01*
X-19885715Y3792857D01*
X-20028572Y3721429D01*
X-20242857Y3721429D01*
X-18457143Y4721429D02*
X-18457143Y3721429D01*
X-19100000Y4721429D02*
X-19100000Y3935714D01*
X-19028572Y3792857D01*
X-18885714Y3721429D01*
X-18671429Y3721429D01*
X-18528572Y3792857D01*
X-18457143Y3864286D01*
X-17957143Y4721429D02*
X-17385714Y4721429D01*
X-17742857Y5221429D02*
X-17742857Y3935714D01*
X-17671429Y3792857D01*
X-17528571Y3721429D01*
X-17385714Y3721429D01*
X-16957143Y3792857D02*
X-16814286Y3721429D01*
X-16528571Y3721429D01*
X-16385714Y3792857D01*
X-16314286Y3935714D01*
X-16314286Y4007143D01*
X-16385714Y4150000D01*
X-16528571Y4221429D01*
X-16742857Y4221429D01*
X-16885714Y4292857D01*
X-16957143Y4435714D01*
X-16957143Y4507143D01*
X-16885714Y4650000D01*
X-16742857Y4721429D01*
X-16528571Y4721429D01*
X-16385714Y4650000D01*
X-13742857Y3721429D02*
X-14600000Y3721429D01*
X-14171428Y3721429D02*
X-14171428Y5221429D01*
X-14314285Y5007143D01*
X-14457143Y4864286D01*
X-14600000Y4792857D01*
X-13100000Y3864286D02*
X-13028572Y3792857D01*
X-13100000Y3721429D01*
X-13171429Y3792857D01*
X-13100000Y3864286D01*
X-13100000Y3721429D01*
X-11742857Y5221429D02*
X-12028571Y5221429D01*
X-12171428Y5150000D01*
X-12242857Y5078571D01*
X-12385714Y4864286D01*
X-12457143Y4578571D01*
X-12457143Y4007143D01*
X-12385714Y3864286D01*
X-12314286Y3792857D01*
X-12171428Y3721429D01*
X-11885714Y3721429D01*
X-11742857Y3792857D01*
X-11671428Y3864286D01*
X-11600000Y4007143D01*
X-11600000Y4364286D01*
X-11671428Y4507143D01*
X-11742857Y4578571D01*
X-11885714Y4650000D01*
X-12171428Y4650000D01*
X-12314286Y4578571D01*
X-12385714Y4507143D01*
X-12457143Y4364286D01*
X-10957143Y3721429D02*
X-10957143Y4721429D01*
X-10957143Y4578571D02*
X-10885715Y4650000D01*
X-10742857Y4721429D01*
X-10528572Y4721429D01*
X-10385715Y4650000D01*
X-10314286Y4507143D01*
X-10314286Y3721429D01*
X-10314286Y4507143D02*
X-10242857Y4650000D01*
X-10100000Y4721429D01*
X-9885715Y4721429D01*
X-9742857Y4650000D01*
X-9671429Y4507143D01*
X-9671429Y3721429D01*
X-8957143Y3721429D02*
X-8957143Y4721429D01*
X-8957143Y4578571D02*
X-8885715Y4650000D01*
X-8742857Y4721429D01*
X-8528572Y4721429D01*
X-8385715Y4650000D01*
X-8314286Y4507143D01*
X-8314286Y3721429D01*
X-8314286Y4507143D02*
X-8242857Y4650000D01*
X-8100000Y4721429D01*
X-7885715Y4721429D01*
X-7742857Y4650000D01*
X-7671429Y4507143D01*
X-7671429Y3721429D01*
X-6028572Y4721429D02*
X-5457143Y4721429D01*
X-5814286Y5221429D02*
X-5814286Y3935714D01*
X-5742858Y3792857D01*
X-5600000Y3721429D01*
X-5457143Y3721429D01*
X-4742857Y3721429D02*
X-4885715Y3792857D01*
X-4957143Y3864286D01*
X-5028572Y4007143D01*
X-5028572Y4435714D01*
X-4957143Y4578571D01*
X-4885715Y4650000D01*
X-4742857Y4721429D01*
X-4528572Y4721429D01*
X-4385715Y4650000D01*
X-4314286Y4578571D01*
X-4242857Y4435714D01*
X-4242857Y4007143D01*
X-4314286Y3864286D01*
X-4385715Y3792857D01*
X-4528572Y3721429D01*
X-4742857Y3721429D01*
X-3385714Y3721429D02*
X-3528572Y3792857D01*
X-3600000Y3864286D01*
X-3671429Y4007143D01*
X-3671429Y4435714D01*
X-3600000Y4578571D01*
X-3528572Y4650000D01*
X-3385714Y4721429D01*
X-3171429Y4721429D01*
X-3028572Y4650000D01*
X-2957143Y4578571D01*
X-2885714Y4435714D01*
X-2885714Y4007143D01*
X-2957143Y3864286D01*
X-3028572Y3792857D01*
X-3171429Y3721429D01*
X-3385714Y3721429D01*
X-2028571Y3721429D02*
X-2171429Y3792857D01*
X-2242857Y3935714D01*
X-2242857Y5221429D01*
X-1528572Y3792857D02*
X-1385715Y3721429D01*
X-1100000Y3721429D01*
X-957143Y3792857D01*
X-885715Y3935714D01*
X-885715Y4007143D01*
X-957143Y4150000D01*
X-1100000Y4221429D01*
X-1314286Y4221429D01*
X-1457143Y4292857D01*
X-1528572Y4435714D01*
X-1528572Y4507143D01*
X-1457143Y4650000D01*
X-1314286Y4721429D01*
X-1100000Y4721429D01*
X-957143Y4650000D01*
X-242857Y3721429D02*
X-242857Y4721429D01*
X-242857Y5221429D02*
X-314286Y5150000D01*
X-242857Y5078571D01*
X-171429Y5150000D01*
X-242857Y5221429D01*
X-242857Y5078571D01*
X328572Y4721429D02*
X1114286Y4721429D01*
X328572Y3721429D01*
X1114286Y3721429D01*
X2257143Y3792857D02*
X2114286Y3721429D01*
X1828572Y3721429D01*
X1685715Y3792857D01*
X1614286Y3935714D01*
X1614286Y4507143D01*
X1685715Y4650000D01*
X1828572Y4721429D01*
X2114286Y4721429D01*
X2257143Y4650000D01*
X2328572Y4507143D01*
X2328572Y4364286D01*
X1614286Y4221429D01*
X4042857Y5292857D02*
X2757143Y3364286D01*
X4542858Y3721429D02*
X4542858Y4721429D01*
X4542858Y4435714D02*
X4614286Y4578571D01*
X4685715Y4650000D01*
X4828572Y4721429D01*
X4971429Y4721429D01*
X6114286Y3721429D02*
X6114286Y4507143D01*
X6042857Y4650000D01*
X5900000Y4721429D01*
X5614286Y4721429D01*
X5471429Y4650000D01*
X6114286Y3792857D02*
X5971429Y3721429D01*
X5614286Y3721429D01*
X5471429Y3792857D01*
X5400000Y3935714D01*
X5400000Y4078571D01*
X5471429Y4221429D01*
X5614286Y4292857D01*
X5971429Y4292857D01*
X6114286Y4364286D01*
X7471429Y3721429D02*
X7471429Y5221429D01*
X7471429Y3792857D02*
X7328572Y3721429D01*
X7042858Y3721429D01*
X6900000Y3792857D01*
X6828572Y3864286D01*
X6757143Y4007143D01*
X6757143Y4435714D01*
X6828572Y4578571D01*
X6900000Y4650000D01*
X7042858Y4721429D01*
X7328572Y4721429D01*
X7471429Y4650000D01*
X8185715Y3721429D02*
X8185715Y4721429D01*
X8185715Y5221429D02*
X8114286Y5150000D01*
X8185715Y5078571D01*
X8257143Y5150000D01*
X8185715Y5221429D01*
X8185715Y5078571D01*
X9542858Y4721429D02*
X9542858Y3721429D01*
X8900001Y4721429D02*
X8900001Y3935714D01*
X8971429Y3792857D01*
X9114287Y3721429D01*
X9328572Y3721429D01*
X9471429Y3792857D01*
X9542858Y3864286D01*
X10185715Y3792857D02*
X10328572Y3721429D01*
X10614287Y3721429D01*
X10757144Y3792857D01*
X10828572Y3935714D01*
X10828572Y4007143D01*
X10757144Y4150000D01*
X10614287Y4221429D01*
X10400001Y4221429D01*
X10257144Y4292857D01*
X10185715Y4435714D01*
X10185715Y4507143D01*
X10257144Y4650000D01*
X10400001Y4721429D01*
X10614287Y4721429D01*
X10757144Y4650000D01*
D12*
X-12000000Y-11100000D02*
X-11800000Y-11600000D01*
X-11200000Y-11500000D02*
X-12000000Y-11100000D01*
X-11800000Y-11600000D02*
X-11200000Y-11500000D01*
X-6500000Y2400000D02*
X-11800000Y-11600000D01*
X-11300000Y-5200000D02*
X-11800000Y-5400000D01*
X-11900000Y-4900000D02*
X-11300000Y-5200000D01*
X-11800000Y-5400000D02*
X-11900000Y-4900000D01*
X-7700000Y2500000D02*
X-11800000Y-5400000D01*
X-11200000Y-600000D02*
X-11700000Y-500000D01*
X-11700000Y0D02*
X-11200000Y-600000D01*
X-11700000Y-500000D02*
X-11700000Y0D01*
X-8300000Y2400000D02*
X-11700000Y-500000D01*
X-4700000Y200000D02*
X-5700000Y2900000D01*
X-900000Y-3600000D02*
X-4700000Y200000D01*
X-2400000Y-3500000D02*
X-1000000Y-2200000D01*
X-900000Y-3600000D02*
X-2400000Y-3500000D01*
X-1000000Y-2200000D02*
X-900000Y-3600000D01*
M02*
