G04 #@! TF.FileFunction,Soldermask,Bot*
%FSLAX46Y46*%
G04 Gerber Fmt 4.6, Leading zero omitted, Abs format (unit mm)*
G04 Created by KiCad (PCBNEW 4.0.6) date 2018 April 18, Wednesday 08:04:54*
%MOMM*%
%LPD*%
G01*
G04 APERTURE LIST*
%ADD10C,0.100000*%
%ADD11C,0.402000*%
%ADD12R,1.700000X1.700000*%
%ADD13C,1.700000*%
%ADD14R,2.200000X2.200000*%
%ADD15C,2.200000*%
%ADD16O,2.100000X1.724000*%
%ADD17R,2.100000X2.000000*%
%ADD18C,0.700000*%
%ADD19R,2.100000X2.050000*%
%ADD20R,1.600000X0.450000*%
%ADD21R,1.600000X0.600000*%
%ADD22O,1.450000X1.250000*%
%ADD23R,1.400000X0.950000*%
%ADD24R,0.950000X1.400000*%
%ADD25O,2.900000X1.900000*%
%ADD26O,2.900000X2.000000*%
%ADD27O,2.800000X2.000000*%
%ADD28R,2.100000X2.100000*%
%ADD29O,2.100000X2.100000*%
%ADD30R,1.900000X1.400000*%
%ADD31R,1.400000X1.900000*%
G04 APERTURE END LIST*
D10*
D11*
X-300000Y-12500000D03*
X-300000Y-11900000D03*
X-300000Y-11300000D03*
X-1700000Y-11300000D03*
X-1700000Y-11900000D03*
X-1700000Y-12500000D03*
D12*
X6850000Y-67500000D03*
D13*
X8350000Y-67500000D03*
D14*
X8000000Y-9200000D03*
D15*
X8000000Y-11740000D03*
D16*
X-3100000Y-2500000D03*
D17*
X-3100000Y-4950000D03*
X-3100000Y-7250000D03*
D16*
X-3100000Y-9700000D03*
D18*
X-3800000Y-1650000D03*
X-2400000Y-1650000D03*
X-3800000Y-10550000D03*
X-2400000Y-10550000D03*
D19*
X-3100000Y-2575000D03*
X-3100000Y-9625000D03*
D20*
X-3100000Y-1525000D03*
X-3100000Y-10675000D03*
D21*
X-5800000Y-4800000D03*
X-5800000Y-5450000D03*
X-5800000Y-6100000D03*
X-5800000Y-6750000D03*
X-5800000Y-7400000D03*
D22*
X-6000000Y-3675000D03*
X-6000000Y-8525000D03*
D23*
X-7400000Y-1200000D03*
X-5000000Y-1200000D03*
D24*
X-8100000Y-9300000D03*
X-8100000Y-11700000D03*
D25*
X5000000Y-14080000D03*
D26*
X5000000Y-22380000D03*
D27*
X5000000Y-24800000D03*
D25*
X5000000Y-27080000D03*
D26*
X5000000Y-35380000D03*
D27*
X5000000Y-37800000D03*
D25*
X5000000Y-40080000D03*
D26*
X5000000Y-48380000D03*
D27*
X5000000Y-50800000D03*
D25*
X5000000Y-53080000D03*
D26*
X5000000Y-61380000D03*
D27*
X5000000Y-63800000D03*
D28*
X7480000Y-104060000D03*
D29*
X7480000Y-106600000D03*
X4940000Y-104060000D03*
X4940000Y-106600000D03*
X2400000Y-104060000D03*
X2400000Y-106600000D03*
D28*
X7500000Y-100750000D03*
D29*
X7500000Y-98210000D03*
D28*
X5000000Y-100750000D03*
D29*
X5000000Y-98210000D03*
D28*
X2500000Y-100750000D03*
D29*
X2500000Y-98210000D03*
D30*
X-13600000Y-10000000D03*
X-13600000Y-3000000D03*
X4800000Y-10000000D03*
X4800000Y-2800000D03*
D31*
X1300000Y-5300000D03*
X1300000Y-7600000D03*
D11*
X-300000Y-1600000D03*
X-300000Y-1000000D03*
X-300000Y-400000D03*
X-1700000Y-400000D03*
X-1700000Y-1000000D03*
X-1700000Y-1600000D03*
M02*
