G04 #@! TF.FileFunction,Copper,L1,Top,Signal*
%FSLAX46Y46*%
G04 Gerber Fmt 4.6, Leading zero omitted, Abs format (unit mm)*
G04 Created by KiCad (PCBNEW 4.0.6) date 2018 April 18, Wednesday 08:04:54*
%MOMM*%
%LPD*%
G01*
G04 APERTURE LIST*
%ADD10C,0.100000*%
%ADD11O,1.473200X0.609600*%
%ADD12R,1.143000X0.508000*%
%ADD13R,1.300000X1.300000*%
%ADD14C,1.300000*%
%ADD15R,4.200000X1.800000*%
%ADD16R,2.400000X2.600000*%
%ADD17R,0.750000X0.800000*%
%ADD18R,0.800000X0.750000*%
%ADD19R,0.700000X0.900000*%
%ADD20R,0.900000X0.700000*%
%ADD21R,1.800000X1.800000*%
%ADD22C,1.800000*%
%ADD23O,1.900000X1.524000*%
%ADD24O,1.250000X1.050000*%
%ADD25O,2.500000X1.500000*%
%ADD26O,2.500000X1.600000*%
%ADD27O,2.400000X1.600000*%
%ADD28R,1.700000X1.700000*%
%ADD29O,1.700000X1.700000*%
%ADD30R,1.000000X1.500000*%
%ADD31C,0.600000*%
%ADD32C,1.000000*%
%ADD33C,0.250000*%
%ADD34C,0.500000*%
%ADD35C,0.400000*%
%ADD36C,0.254000*%
G04 APERTURE END LIST*
D10*
D11*
X2806000Y-72945000D03*
X2806000Y-74215000D03*
X2806000Y-75485000D03*
X2806000Y-76755000D03*
X8394000Y-76755000D03*
X8394000Y-75485000D03*
X8394000Y-74215000D03*
X8394000Y-72945000D03*
D12*
X7402000Y-86620000D03*
X7402000Y-85350000D03*
X7402000Y-84080000D03*
X7402000Y-82810000D03*
X7402000Y-81540000D03*
X7402000Y-80270000D03*
X7402000Y-79000000D03*
X1052000Y-79000000D03*
X1052000Y-80270000D03*
X1052000Y-82810000D03*
X1052000Y-84080000D03*
X1052000Y-85350000D03*
X1052000Y-86620000D03*
X1052000Y-81540000D03*
D13*
X6850000Y-67500000D03*
D14*
X8350000Y-67500000D03*
D15*
X2500000Y-66100000D03*
X2500000Y-69300000D03*
D16*
X6500000Y-90200000D03*
X1700000Y-90200000D03*
D17*
X8800000Y-88350000D03*
X8800000Y-89850000D03*
D18*
X6550000Y-93200000D03*
X5050000Y-93200000D03*
X1750000Y-93200000D03*
X3250000Y-93200000D03*
X2750000Y-71600000D03*
X1250000Y-71600000D03*
D19*
X8550000Y-7300000D03*
X6850000Y-7300000D03*
X7350000Y-24700000D03*
X9050000Y-24700000D03*
X2750000Y-24700000D03*
X1050000Y-24700000D03*
X7250000Y-37800000D03*
X8950000Y-37800000D03*
X7250000Y-50800000D03*
X8950000Y-50800000D03*
X8550000Y-2500000D03*
X6850000Y-2500000D03*
X8550000Y-5700000D03*
X6850000Y-5700000D03*
X6850000Y-4100000D03*
X8550000Y-4100000D03*
D20*
X9100000Y-82850000D03*
X9100000Y-84550000D03*
D21*
X8000000Y-9200000D03*
D22*
X8000000Y-11740000D03*
D23*
X-3100000Y-2500000D03*
X-3100000Y-9700000D03*
D24*
X-6000000Y-3675000D03*
X-6000000Y-8525000D03*
D25*
X5000000Y-14080000D03*
D26*
X5000000Y-22380000D03*
D27*
X5000000Y-24800000D03*
D25*
X5000000Y-27080000D03*
D26*
X5000000Y-35380000D03*
D27*
X5000000Y-37800000D03*
D25*
X5000000Y-40080000D03*
D26*
X5000000Y-48380000D03*
D27*
X5000000Y-50800000D03*
D25*
X5000000Y-53080000D03*
D26*
X5000000Y-61380000D03*
D27*
X5000000Y-63800000D03*
D28*
X7480000Y-104060000D03*
D29*
X7480000Y-106600000D03*
X4940000Y-104060000D03*
X4940000Y-106600000D03*
X2400000Y-104060000D03*
X2400000Y-106600000D03*
D28*
X7500000Y-100750000D03*
D29*
X7500000Y-98210000D03*
D28*
X5000000Y-100750000D03*
D29*
X5000000Y-98210000D03*
D28*
X2500000Y-100750000D03*
D29*
X2500000Y-98210000D03*
D30*
X-13800000Y-5300000D03*
X-13800000Y-7600000D03*
D31*
X6275032Y-8204654D03*
D32*
X8224990Y-87352005D03*
X700000Y-64650000D03*
X-9400000Y-6200000D03*
X-7300000Y-4600000D03*
D31*
X1300000Y-87700000D03*
X700000Y-87700004D03*
X1300000Y-88300000D03*
X700000Y-88300000D03*
X4100000Y-83700000D03*
X4500000Y-83300000D03*
X4900000Y-82900000D03*
X7100000Y-77500000D03*
X7700000Y-77500000D03*
X7700000Y-78100000D03*
X7100004Y-78100000D03*
X7300000Y-60900000D03*
X7300000Y-59100000D03*
X7300000Y-59700000D03*
X7300000Y-60300000D03*
X7300000Y-61500000D03*
X7300000Y-62100000D03*
X7300000Y-62700000D03*
X7300000Y-63300000D03*
X700000Y-77200000D03*
X1300000Y-95850000D03*
X1300000Y-95250000D03*
X1300000Y-94650000D03*
X5354541Y-82543864D03*
X2930631Y-88400928D03*
X8174990Y-82571366D03*
X6132473Y-85525010D03*
X4050000Y-86699998D03*
X8275021Y-79029595D03*
X6051669Y-84207292D03*
X8400000Y-39200000D03*
X4254876Y-76684969D03*
X6650000Y-96810000D03*
X3023972Y-85867126D03*
X5404660Y-81745424D03*
X2024078Y-80505524D03*
X5750054Y-77901688D03*
X2300000Y-81500000D03*
X8000000Y-52100000D03*
X7691949Y-75708051D03*
X5700000Y-73800000D03*
X8250000Y-94300000D03*
X5100000Y-29400000D03*
X8241949Y-95191949D03*
X8400000Y-72350000D03*
X9000000Y-25600000D03*
X3950010Y-80248281D03*
X8400000Y-4600000D03*
X6000000Y-12300000D03*
X5000732Y-7465521D03*
X4000000Y-81300002D03*
X8200000Y-6300000D03*
X6665652Y-12743763D03*
X5800000Y-7500000D03*
X-8500000Y-1300000D03*
X-9000000Y-9400000D03*
X8400000Y-23800000D03*
X6800000Y-1800000D03*
X4550000Y-5350000D03*
X3950010Y-79383975D03*
X5250000Y-11900000D03*
X4499977Y-8300000D03*
X7700000Y-1600000D03*
D33*
X6645346Y-8204654D02*
X6275032Y-8204654D01*
X6850000Y-7300000D02*
X6850000Y-8000000D01*
X6850000Y-8000000D02*
X6645346Y-8204654D01*
D34*
X7492985Y-86620000D02*
X7724991Y-86852006D01*
X9100000Y-84550000D02*
X9100000Y-86476995D01*
X8800000Y-87450000D02*
X8702005Y-87352005D01*
X9100000Y-86476995D02*
X8724989Y-86852006D01*
X8724989Y-86852006D02*
X8224990Y-87352005D01*
X7402000Y-86620000D02*
X7492985Y-86620000D01*
X7724991Y-86852006D02*
X8224990Y-87352005D01*
X8800000Y-88350000D02*
X8800000Y-87450000D01*
X8702005Y-87352005D02*
X8224990Y-87352005D01*
D35*
X2500000Y-66100000D02*
X2150000Y-66100000D01*
X2150000Y-66100000D02*
X700000Y-64650000D01*
X-7300000Y-4600000D02*
X-7800000Y-4600000D01*
X-7800000Y-4600000D02*
X-9400000Y-6200000D01*
D33*
X700000Y-87700004D02*
X1299996Y-87700004D01*
X1299996Y-87700004D02*
X1300000Y-87700000D01*
X999999Y-87400005D02*
X700000Y-87700004D01*
X1052000Y-87348004D02*
X999999Y-87400005D01*
X1052000Y-86620000D02*
X1052000Y-87348004D01*
X700000Y-88300000D02*
X700000Y-87700004D01*
X4500000Y-83300000D02*
X4100000Y-83700000D01*
X3500000Y-84300000D02*
X4100000Y-83700000D01*
X4100000Y-83700000D02*
X4900000Y-82900000D01*
X5354541Y-82543864D02*
X5256136Y-82543864D01*
X5256136Y-82543864D02*
X4900000Y-82900000D01*
X7700000Y-78100000D02*
X7700000Y-77500000D01*
X7300000Y-61500000D02*
X7300000Y-60900000D01*
X7300000Y-60300000D02*
X7300000Y-59700000D01*
X7300000Y-62700000D02*
X7300000Y-62100000D01*
X5000000Y-63800000D02*
X6800000Y-63800000D01*
X6800000Y-63800000D02*
X7300000Y-63300000D01*
X1250000Y-71600000D02*
X1250000Y-76650000D01*
X1250000Y-76650000D02*
X700000Y-77200000D01*
X8400000Y-98160000D02*
X8176411Y-98160000D01*
X1300000Y-94650000D02*
X1300000Y-95250000D01*
X3250000Y-93200000D02*
X3225000Y-93200000D01*
X3225000Y-93200000D02*
X1775000Y-94650000D01*
X1775000Y-94650000D02*
X1300000Y-94650000D01*
X8394000Y-74215000D02*
X8691128Y-74215000D01*
D34*
X5400000Y-24800000D02*
X7050000Y-26450000D01*
X5000000Y-50800000D02*
X5600000Y-50800000D01*
D33*
X5000000Y-24800000D02*
X5400000Y-24800000D01*
X1369500Y-86620000D02*
X3500000Y-84489500D01*
X1052000Y-86620000D02*
X1369500Y-86620000D01*
X3500000Y-84489500D02*
X3500000Y-84300000D01*
X5000000Y-37800000D02*
X5400000Y-37800000D01*
D34*
X2806000Y-72945000D02*
X2806000Y-71656000D01*
X2806000Y-71656000D02*
X2750000Y-71600000D01*
X6850000Y-67500000D02*
X6850000Y-67550000D01*
X6850000Y-67550000D02*
X5100000Y-69300000D01*
X5100000Y-69300000D02*
X2500000Y-69300000D01*
X2500000Y-69300000D02*
X2500000Y-71350000D01*
X2500000Y-71350000D02*
X2750000Y-71600000D01*
D33*
X3256555Y-88400928D02*
X2930631Y-88400928D01*
X6132473Y-85525010D02*
X3256555Y-88400928D01*
X8174990Y-82624990D02*
X8174990Y-82571366D01*
X8400000Y-82850000D02*
X8174990Y-82624990D01*
X9100000Y-82850000D02*
X8400000Y-82850000D01*
X9100000Y-82850000D02*
X7442000Y-82850000D01*
X7442000Y-82850000D02*
X7402000Y-82810000D01*
X7402000Y-82810000D02*
X7084500Y-82810000D01*
D34*
X7392000Y-82800000D02*
X7397000Y-82805000D01*
X7397000Y-82805000D02*
X7402000Y-82810000D01*
D33*
X6375056Y-76797456D02*
X6375056Y-79560556D01*
X2806000Y-74215000D02*
X3792600Y-74215000D01*
X3792600Y-74215000D02*
X6375056Y-76797456D01*
X6375056Y-79560556D02*
X7084500Y-80270000D01*
X7402000Y-80270000D02*
X7084500Y-80270000D01*
X7402000Y-80270000D02*
X7719500Y-80270000D01*
X6970000Y-80270000D02*
X7084500Y-80270000D01*
X5000000Y-100740000D02*
X5000000Y-102150000D01*
X6115001Y-105424999D02*
X5789999Y-105750001D01*
X5000000Y-102150000D02*
X6115001Y-103265001D01*
X6115001Y-103265001D02*
X6115001Y-105424999D01*
X5789999Y-105750001D02*
X4940000Y-106600000D01*
X6051669Y-84698329D02*
X4349999Y-86399999D01*
X6051669Y-84207292D02*
X6051669Y-84698329D01*
X4349999Y-86399999D02*
X4050000Y-86699998D01*
X7402000Y-79000000D02*
X8245426Y-79000000D01*
X8245426Y-79000000D02*
X8275021Y-79029595D01*
X8950000Y-37800000D02*
X8950000Y-38650000D01*
X8950000Y-38650000D02*
X8400000Y-39200000D01*
X7480000Y-104060000D02*
X7480000Y-103180000D01*
X7480000Y-103180000D02*
X6280000Y-101980000D01*
X6280000Y-101980000D02*
X6280000Y-97180000D01*
X6280000Y-97180000D02*
X6650000Y-96810000D01*
X3954877Y-76984968D02*
X4254876Y-76684969D01*
X4184845Y-76755000D02*
X4254876Y-76684969D01*
X3853402Y-76984968D02*
X3954877Y-76984968D01*
X3823434Y-76955000D02*
X3853402Y-76984968D01*
X2806000Y-76755000D02*
X4184845Y-76755000D01*
X5828924Y-81745424D02*
X6125002Y-82041502D01*
X6125002Y-82041502D02*
X6125002Y-82813585D01*
X3323971Y-85373575D02*
X3323971Y-85567127D01*
X3323971Y-85567127D02*
X3023972Y-85867126D01*
X6125002Y-82813585D02*
X5806308Y-83132279D01*
X5565267Y-83132279D02*
X3323971Y-85373575D01*
X5806308Y-83132279D02*
X5565267Y-83132279D01*
X5404660Y-81745424D02*
X5828924Y-81745424D01*
X1052000Y-79000000D02*
X1052000Y-78077200D01*
X1052000Y-78077200D02*
X2374200Y-76755000D01*
X2374200Y-76755000D02*
X2806000Y-76755000D01*
X4879877Y-76984970D02*
X4879877Y-76384968D01*
X4350002Y-77514846D02*
X4879877Y-76984970D01*
X4047033Y-77514846D02*
X4350002Y-77514846D01*
X1369500Y-80270000D02*
X1369500Y-80192379D01*
X1369500Y-80192379D02*
X4047033Y-77514846D01*
X4879877Y-76384968D02*
X3979909Y-75485000D01*
X3979909Y-75485000D02*
X3792600Y-75485000D01*
X3792600Y-75485000D02*
X2806000Y-75485000D01*
X1369500Y-80270000D02*
X1369500Y-80275210D01*
X1369500Y-80275210D02*
X1599814Y-80505524D01*
X1599814Y-80505524D02*
X2024078Y-80505524D01*
X1052000Y-80270000D02*
X1369500Y-80270000D01*
X3049966Y-79148324D02*
X3975100Y-78223190D01*
X3049966Y-80363534D02*
X3049966Y-79148324D01*
X1873500Y-81540000D02*
X3049966Y-80363534D01*
X1052000Y-81540000D02*
X1873500Y-81540000D01*
X3975100Y-78223190D02*
X5428552Y-78223190D01*
X5450055Y-78201687D02*
X5750054Y-77901688D01*
X5428552Y-78223190D02*
X5450055Y-78201687D01*
X1052000Y-81540000D02*
X2260000Y-81540000D01*
X2260000Y-81540000D02*
X2300000Y-81500000D01*
X8950000Y-50800000D02*
X8950000Y-51150000D01*
X8950000Y-51150000D02*
X8000000Y-52100000D01*
X5000000Y-27080000D02*
X4500000Y-27080000D01*
X2750000Y-25330000D02*
X2750000Y-24700000D01*
X4500000Y-27080000D02*
X2750000Y-25330000D01*
X5000000Y-27050000D02*
X5000000Y-27065000D01*
X5000000Y-27065000D02*
X5000000Y-27080000D01*
X8550000Y-7300000D02*
X9150000Y-7300000D01*
X9150000Y-7300000D02*
X9225001Y-7375001D01*
X9225001Y-7375001D02*
X9225001Y-10514999D01*
X9225001Y-10514999D02*
X8899999Y-10840001D01*
X8899999Y-10840001D02*
X8000000Y-11740000D01*
D34*
X8000000Y-11740000D02*
X7930000Y-11670000D01*
X7930000Y-11670000D02*
X7860000Y-11600000D01*
D33*
X8116213Y-75708051D02*
X7691949Y-75708051D01*
X8170949Y-75708051D02*
X8116213Y-75708051D01*
X8394000Y-75485000D02*
X8170949Y-75708051D01*
X8394000Y-75485000D02*
X6985000Y-75485000D01*
X6985000Y-75485000D02*
X5999999Y-74499999D01*
X5999999Y-74499999D02*
X5999999Y-74099999D01*
X5999999Y-74099999D02*
X5700000Y-73800000D01*
X8250000Y-94300000D02*
X7350000Y-95200000D01*
X7350000Y-95200000D02*
X4307919Y-95200000D01*
X4307919Y-95200000D02*
X2500000Y-97007919D01*
X2500000Y-97007919D02*
X2500000Y-98210000D01*
X2200000Y-97750000D02*
X2200000Y-98210000D01*
X1050000Y-24700000D02*
X1050000Y-25600000D01*
X1050000Y-25600000D02*
X4550001Y-29100001D01*
X4550001Y-29100001D02*
X4800001Y-29100001D01*
X4800001Y-29100001D02*
X5100000Y-29400000D01*
X8241949Y-95191949D02*
X7637498Y-95796400D01*
X7637498Y-95796400D02*
X5003600Y-95796400D01*
X3770000Y-97030000D02*
X3770000Y-99500000D01*
X5003600Y-95796400D02*
X3770000Y-97030000D01*
X3770000Y-99500000D02*
X2520000Y-100750000D01*
X2520000Y-100750000D02*
X2500000Y-100750000D01*
X3020000Y-100750000D02*
X2200000Y-100750000D01*
X8400000Y-72350000D02*
X8400000Y-72939000D01*
X8400000Y-72939000D02*
X8394000Y-72945000D01*
X9050000Y-24700000D02*
X9050000Y-25550000D01*
X9050000Y-25550000D02*
X9000000Y-25600000D01*
X6500000Y-88650000D02*
X6500000Y-90200000D01*
X7261498Y-85350000D02*
X6500000Y-86111498D01*
X6500000Y-86111498D02*
X6500000Y-88650000D01*
X7402000Y-85350000D02*
X7261498Y-85350000D01*
X6500000Y-90200000D02*
X6500000Y-93150000D01*
X6500000Y-93150000D02*
X6550000Y-93200000D01*
X1925001Y-89974999D02*
X1700000Y-90200000D01*
X5426667Y-84398333D02*
X1925001Y-87899999D01*
X5426667Y-83907290D02*
X5426667Y-84398333D01*
X5751667Y-83582290D02*
X5426667Y-83907290D01*
X1925001Y-87899999D02*
X1925001Y-89974999D01*
X6904290Y-83582290D02*
X5751667Y-83582290D01*
X7402000Y-84080000D02*
X6904290Y-83582290D01*
X1700000Y-90200000D02*
X1700000Y-93150000D01*
X1700000Y-93150000D02*
X1750000Y-93200000D01*
X2925002Y-81800002D02*
X2925002Y-81273289D01*
X2925002Y-81273289D02*
X3650011Y-80548280D01*
X3650011Y-80548280D02*
X3950010Y-80248281D01*
X1915004Y-82810000D02*
X2925002Y-81800002D01*
X1052000Y-82810000D02*
X1915004Y-82810000D01*
X6000000Y-11875736D02*
X6000000Y-12300000D01*
X6000000Y-11724996D02*
X6000000Y-11875736D01*
X5200011Y-10925007D02*
X6000000Y-11724996D01*
X5000732Y-7889785D02*
X5200011Y-8089064D01*
X5200011Y-8089064D02*
X5200011Y-10925007D01*
X5000732Y-7465521D02*
X5000732Y-7889785D01*
X8400000Y-4175736D02*
X8400000Y-4600000D01*
X8475736Y-4100000D02*
X8400000Y-4175736D01*
X8550000Y-4100000D02*
X8475736Y-4100000D01*
X1369500Y-84080000D02*
X4000000Y-81449500D01*
X1052000Y-84080000D02*
X1369500Y-84080000D01*
X4000000Y-81449500D02*
X4000000Y-81300002D01*
X6665652Y-9590656D02*
X6665652Y-12319499D01*
X5650022Y-8575026D02*
X6665652Y-9590656D01*
X5800000Y-7500000D02*
X5650022Y-7649978D01*
X5650022Y-7649978D02*
X5650022Y-8575026D01*
X6665652Y-12319499D02*
X6665652Y-12743763D01*
X8499999Y-6000001D02*
X8200000Y-6300000D01*
X8550000Y-5950000D02*
X8499999Y-6000001D01*
X8550000Y-5700000D02*
X8550000Y-5950000D01*
D34*
X-13800000Y-5300000D02*
X-13800000Y-3200000D01*
X-13800000Y-3200000D02*
X-13300000Y-2700000D01*
X-13300000Y-2700000D02*
X-9900000Y-2700000D01*
X-9900000Y-2700000D02*
X-8799999Y-1599999D01*
X-8799999Y-1599999D02*
X-8500000Y-1300000D01*
X-13500000Y-10200000D02*
X-9800000Y-10200000D01*
X-9800000Y-10200000D02*
X-9000000Y-9400000D01*
X-13800000Y-9900000D02*
X-13500000Y-10200000D01*
X-13800000Y-7600000D02*
X-13800000Y-9900000D01*
D33*
X8150000Y-23800000D02*
X8400000Y-23800000D01*
X7350000Y-24700000D02*
X7350000Y-24600000D01*
X7350000Y-24600000D02*
X8150000Y-23800000D01*
X5000000Y-40080000D02*
X5500000Y-40080000D01*
X5500000Y-40080000D02*
X7250000Y-38330000D01*
X7250000Y-38330000D02*
X7250000Y-37800000D01*
X5000000Y-40080000D02*
X4500000Y-40080000D01*
X7250000Y-50800000D02*
X7250000Y-51330000D01*
X7250000Y-51330000D02*
X5500000Y-53080000D01*
X5500000Y-53080000D02*
X5000000Y-53080000D01*
X5000000Y-53080000D02*
X4500000Y-53080000D01*
X6800000Y-1800000D02*
X6800000Y-2450000D01*
X6800000Y-2450000D02*
X6850000Y-2500000D01*
X4849999Y-5649999D02*
X4550000Y-5350000D01*
X4900000Y-5700000D02*
X4849999Y-5649999D01*
X6850000Y-5700000D02*
X4900000Y-5700000D01*
X6850000Y-4100000D02*
X6850000Y-5700000D01*
X1052000Y-85350000D02*
X1369500Y-85350000D01*
X1369500Y-85350000D02*
X4777376Y-81942124D01*
X4777376Y-81942124D02*
X4777376Y-81322624D01*
X6440000Y-81540000D02*
X7402000Y-81540000D01*
X4777376Y-81322624D02*
X5200000Y-80900000D01*
X5200000Y-80900000D02*
X5800000Y-80900000D01*
X5800000Y-80900000D02*
X6440000Y-81540000D01*
X7402000Y-81540000D02*
X7040000Y-81540000D01*
X7040000Y-81540000D02*
X4883975Y-79383975D01*
X4883975Y-79383975D02*
X4374274Y-79383975D01*
X4374274Y-79383975D02*
X3950010Y-79383975D01*
X4950001Y-11600001D02*
X5250000Y-11900000D01*
X4499977Y-8300000D02*
X4750000Y-8550023D01*
X4750000Y-8550023D02*
X4750000Y-11400000D01*
X4750000Y-11400000D02*
X4950001Y-11600001D01*
X8550000Y-2500000D02*
X8550000Y-2450000D01*
X8550000Y-2450000D02*
X7700000Y-1600000D01*
D36*
G36*
X5948000Y-88464635D02*
X5300000Y-88464635D01*
X5141763Y-88494409D01*
X4996433Y-88587927D01*
X4898936Y-88730619D01*
X4864635Y-88900000D01*
X4864635Y-91500000D01*
X4894409Y-91658237D01*
X4987927Y-91803567D01*
X5130619Y-91901064D01*
X5300000Y-91935365D01*
X5948000Y-91935365D01*
X5948000Y-92447570D01*
X5846433Y-92512927D01*
X5803959Y-92575090D01*
X5691876Y-92463007D01*
X5534935Y-92398000D01*
X5283750Y-92398000D01*
X5177000Y-92504750D01*
X5177000Y-93073000D01*
X5197000Y-93073000D01*
X5197000Y-93327000D01*
X5177000Y-93327000D01*
X5177000Y-93895250D01*
X5283750Y-94002000D01*
X5534935Y-94002000D01*
X5691876Y-93936993D01*
X5803619Y-93825250D01*
X5837927Y-93878567D01*
X5980619Y-93976064D01*
X6150000Y-94010365D01*
X6950000Y-94010365D01*
X7108237Y-93980591D01*
X7253567Y-93887073D01*
X7351064Y-93744381D01*
X7385365Y-93575000D01*
X7385365Y-92825000D01*
X7355591Y-92666763D01*
X7262073Y-92521433D01*
X7119381Y-92423936D01*
X7052000Y-92410291D01*
X7052000Y-91935365D01*
X7700000Y-91935365D01*
X7858237Y-91905591D01*
X8003567Y-91812073D01*
X8101064Y-91669381D01*
X8135365Y-91500000D01*
X8135365Y-90564234D01*
X8183124Y-90611993D01*
X8340064Y-90677000D01*
X8566250Y-90677000D01*
X8673000Y-90570250D01*
X8673000Y-89977000D01*
X8653000Y-89977000D01*
X8653000Y-89723000D01*
X8673000Y-89723000D01*
X8673000Y-89703000D01*
X8927000Y-89703000D01*
X8927000Y-89723000D01*
X8947000Y-89723000D01*
X8947000Y-89977000D01*
X8927000Y-89977000D01*
X8927000Y-90570250D01*
X9033750Y-90677000D01*
X9259936Y-90677000D01*
X9416876Y-90611993D01*
X9473000Y-90555869D01*
X9473000Y-107473000D01*
X8419720Y-107473000D01*
X8659794Y-107113705D01*
X8757000Y-106625018D01*
X8757000Y-106574982D01*
X8659794Y-106086295D01*
X8382975Y-105672007D01*
X7968687Y-105395188D01*
X7718210Y-105345365D01*
X8330000Y-105345365D01*
X8488237Y-105315591D01*
X8633567Y-105222073D01*
X8731064Y-105079381D01*
X8765365Y-104910000D01*
X8765365Y-103210000D01*
X8735591Y-103051763D01*
X8642073Y-102906433D01*
X8499381Y-102808936D01*
X8330000Y-102774635D01*
X7855281Y-102774635D01*
X7116011Y-102035365D01*
X8350000Y-102035365D01*
X8508237Y-102005591D01*
X8653567Y-101912073D01*
X8751064Y-101769381D01*
X8785365Y-101600000D01*
X8785365Y-99900000D01*
X8755591Y-99741763D01*
X8662073Y-99596433D01*
X8519381Y-99498936D01*
X8350000Y-99464635D01*
X7627002Y-99464635D01*
X7627002Y-99373339D01*
X7824213Y-99445158D01*
X8144142Y-99312651D01*
X8517076Y-98982214D01*
X8735169Y-98534215D01*
X8663930Y-98337000D01*
X7627000Y-98337000D01*
X7627000Y-98357000D01*
X7373000Y-98357000D01*
X7373000Y-98337000D01*
X7353000Y-98337000D01*
X7353000Y-98083000D01*
X7373000Y-98083000D01*
X7373000Y-97046662D01*
X7627000Y-97046662D01*
X7627000Y-98083000D01*
X8663930Y-98083000D01*
X8735169Y-97885785D01*
X8517076Y-97437786D01*
X8144142Y-97107349D01*
X7824213Y-96974842D01*
X7627000Y-97046662D01*
X7373000Y-97046662D01*
X7343391Y-97035879D01*
X7376874Y-96955244D01*
X7377126Y-96666025D01*
X7266680Y-96398725D01*
X7216443Y-96348400D01*
X7637498Y-96348400D01*
X7848740Y-96306382D01*
X8027821Y-96186723D01*
X8295548Y-95918996D01*
X8385924Y-95919075D01*
X8653224Y-95808629D01*
X8857910Y-95604299D01*
X8968823Y-95337193D01*
X8969075Y-95047974D01*
X8858629Y-94780674D01*
X8828127Y-94750119D01*
X8865961Y-94712350D01*
X8976874Y-94445244D01*
X8977126Y-94156025D01*
X8866680Y-93888725D01*
X8662350Y-93684039D01*
X8395244Y-93573126D01*
X8106025Y-93572874D01*
X7838725Y-93683320D01*
X7634039Y-93887650D01*
X7523126Y-94154756D01*
X7523046Y-94246308D01*
X7121354Y-94648000D01*
X4307919Y-94648000D01*
X4096678Y-94690018D01*
X3917596Y-94809677D01*
X2109677Y-96617596D01*
X1990018Y-96796677D01*
X1955789Y-96968759D01*
X1948000Y-97007919D01*
X1948000Y-97047492D01*
X1597025Y-97282007D01*
X1320206Y-97696295D01*
X1223000Y-98184982D01*
X1223000Y-98235018D01*
X1320206Y-98723705D01*
X1597025Y-99137993D01*
X2011313Y-99414812D01*
X2261790Y-99464635D01*
X1650000Y-99464635D01*
X1491763Y-99494409D01*
X1346433Y-99587927D01*
X1248936Y-99730619D01*
X1214635Y-99900000D01*
X1214635Y-101600000D01*
X1244409Y-101758237D01*
X1337927Y-101903567D01*
X1480619Y-102001064D01*
X1650000Y-102035365D01*
X3350000Y-102035365D01*
X3508237Y-102005591D01*
X3653567Y-101912073D01*
X3751064Y-101769381D01*
X3751188Y-101768771D01*
X3837927Y-101903567D01*
X3980619Y-102001064D01*
X4150000Y-102035365D01*
X4448000Y-102035365D01*
X4448000Y-102150000D01*
X4490018Y-102361242D01*
X4609677Y-102540323D01*
X4846028Y-102776674D01*
X4451313Y-102855188D01*
X4037025Y-103132007D01*
X3760206Y-103546295D01*
X3670000Y-103999791D01*
X3579794Y-103546295D01*
X3302975Y-103132007D01*
X2888687Y-102855188D01*
X2400000Y-102757982D01*
X1911313Y-102855188D01*
X1497025Y-103132007D01*
X1220206Y-103546295D01*
X1123000Y-104034982D01*
X1123000Y-104085018D01*
X1220206Y-104573705D01*
X1497025Y-104987993D01*
X1911313Y-105264812D01*
X2272998Y-105336756D01*
X2272998Y-105436661D01*
X2075787Y-105364842D01*
X1755858Y-105497349D01*
X1382924Y-105827786D01*
X1164831Y-106275785D01*
X1236070Y-106473000D01*
X2273000Y-106473000D01*
X2273000Y-106453000D01*
X2527000Y-106453000D01*
X2527000Y-106473000D01*
X2547000Y-106473000D01*
X2547000Y-106727000D01*
X2527000Y-106727000D01*
X2527000Y-106747000D01*
X2273000Y-106747000D01*
X2273000Y-106727000D01*
X1236070Y-106727000D01*
X1164831Y-106924215D01*
X1382924Y-107372214D01*
X1496672Y-107473000D01*
X527000Y-107473000D01*
X527000Y-91935365D01*
X1148000Y-91935365D01*
X1148000Y-92447570D01*
X1046433Y-92512927D01*
X948936Y-92655619D01*
X914635Y-92825000D01*
X914635Y-93575000D01*
X944409Y-93733237D01*
X1037927Y-93878567D01*
X1180619Y-93976064D01*
X1350000Y-94010365D01*
X2150000Y-94010365D01*
X2308237Y-93980591D01*
X2453567Y-93887073D01*
X2496041Y-93824910D01*
X2608124Y-93936993D01*
X2765065Y-94002000D01*
X3016250Y-94002000D01*
X3123000Y-93895250D01*
X3123000Y-93327000D01*
X3377000Y-93327000D01*
X3377000Y-93895250D01*
X3483750Y-94002000D01*
X3734935Y-94002000D01*
X3891876Y-93936993D01*
X4011993Y-93816876D01*
X4077000Y-93659936D01*
X4077000Y-93433750D01*
X4223000Y-93433750D01*
X4223000Y-93659936D01*
X4288007Y-93816876D01*
X4408124Y-93936993D01*
X4565065Y-94002000D01*
X4816250Y-94002000D01*
X4923000Y-93895250D01*
X4923000Y-93327000D01*
X4329750Y-93327000D01*
X4223000Y-93433750D01*
X4077000Y-93433750D01*
X3970250Y-93327000D01*
X3377000Y-93327000D01*
X3123000Y-93327000D01*
X3103000Y-93327000D01*
X3103000Y-93073000D01*
X3123000Y-93073000D01*
X3123000Y-92504750D01*
X3377000Y-92504750D01*
X3377000Y-93073000D01*
X3970250Y-93073000D01*
X4077000Y-92966250D01*
X4077000Y-92740064D01*
X4223000Y-92740064D01*
X4223000Y-92966250D01*
X4329750Y-93073000D01*
X4923000Y-93073000D01*
X4923000Y-92504750D01*
X4816250Y-92398000D01*
X4565065Y-92398000D01*
X4408124Y-92463007D01*
X4288007Y-92583124D01*
X4223000Y-92740064D01*
X4077000Y-92740064D01*
X4011993Y-92583124D01*
X3891876Y-92463007D01*
X3734935Y-92398000D01*
X3483750Y-92398000D01*
X3377000Y-92504750D01*
X3123000Y-92504750D01*
X3016250Y-92398000D01*
X2765065Y-92398000D01*
X2608124Y-92463007D01*
X2496381Y-92574750D01*
X2462073Y-92521433D01*
X2319381Y-92423936D01*
X2252000Y-92410291D01*
X2252000Y-91935365D01*
X2900000Y-91935365D01*
X3058237Y-91905591D01*
X3203567Y-91812073D01*
X3301064Y-91669381D01*
X3335365Y-91500000D01*
X3335365Y-89020311D01*
X3341906Y-89017608D01*
X3444060Y-88915631D01*
X3467797Y-88910910D01*
X3646878Y-88791251D01*
X5948000Y-86490129D01*
X5948000Y-88464635D01*
X5948000Y-88464635D01*
G37*
X5948000Y-88464635D02*
X5300000Y-88464635D01*
X5141763Y-88494409D01*
X4996433Y-88587927D01*
X4898936Y-88730619D01*
X4864635Y-88900000D01*
X4864635Y-91500000D01*
X4894409Y-91658237D01*
X4987927Y-91803567D01*
X5130619Y-91901064D01*
X5300000Y-91935365D01*
X5948000Y-91935365D01*
X5948000Y-92447570D01*
X5846433Y-92512927D01*
X5803959Y-92575090D01*
X5691876Y-92463007D01*
X5534935Y-92398000D01*
X5283750Y-92398000D01*
X5177000Y-92504750D01*
X5177000Y-93073000D01*
X5197000Y-93073000D01*
X5197000Y-93327000D01*
X5177000Y-93327000D01*
X5177000Y-93895250D01*
X5283750Y-94002000D01*
X5534935Y-94002000D01*
X5691876Y-93936993D01*
X5803619Y-93825250D01*
X5837927Y-93878567D01*
X5980619Y-93976064D01*
X6150000Y-94010365D01*
X6950000Y-94010365D01*
X7108237Y-93980591D01*
X7253567Y-93887073D01*
X7351064Y-93744381D01*
X7385365Y-93575000D01*
X7385365Y-92825000D01*
X7355591Y-92666763D01*
X7262073Y-92521433D01*
X7119381Y-92423936D01*
X7052000Y-92410291D01*
X7052000Y-91935365D01*
X7700000Y-91935365D01*
X7858237Y-91905591D01*
X8003567Y-91812073D01*
X8101064Y-91669381D01*
X8135365Y-91500000D01*
X8135365Y-90564234D01*
X8183124Y-90611993D01*
X8340064Y-90677000D01*
X8566250Y-90677000D01*
X8673000Y-90570250D01*
X8673000Y-89977000D01*
X8653000Y-89977000D01*
X8653000Y-89723000D01*
X8673000Y-89723000D01*
X8673000Y-89703000D01*
X8927000Y-89703000D01*
X8927000Y-89723000D01*
X8947000Y-89723000D01*
X8947000Y-89977000D01*
X8927000Y-89977000D01*
X8927000Y-90570250D01*
X9033750Y-90677000D01*
X9259936Y-90677000D01*
X9416876Y-90611993D01*
X9473000Y-90555869D01*
X9473000Y-107473000D01*
X8419720Y-107473000D01*
X8659794Y-107113705D01*
X8757000Y-106625018D01*
X8757000Y-106574982D01*
X8659794Y-106086295D01*
X8382975Y-105672007D01*
X7968687Y-105395188D01*
X7718210Y-105345365D01*
X8330000Y-105345365D01*
X8488237Y-105315591D01*
X8633567Y-105222073D01*
X8731064Y-105079381D01*
X8765365Y-104910000D01*
X8765365Y-103210000D01*
X8735591Y-103051763D01*
X8642073Y-102906433D01*
X8499381Y-102808936D01*
X8330000Y-102774635D01*
X7855281Y-102774635D01*
X7116011Y-102035365D01*
X8350000Y-102035365D01*
X8508237Y-102005591D01*
X8653567Y-101912073D01*
X8751064Y-101769381D01*
X8785365Y-101600000D01*
X8785365Y-99900000D01*
X8755591Y-99741763D01*
X8662073Y-99596433D01*
X8519381Y-99498936D01*
X8350000Y-99464635D01*
X7627002Y-99464635D01*
X7627002Y-99373339D01*
X7824213Y-99445158D01*
X8144142Y-99312651D01*
X8517076Y-98982214D01*
X8735169Y-98534215D01*
X8663930Y-98337000D01*
X7627000Y-98337000D01*
X7627000Y-98357000D01*
X7373000Y-98357000D01*
X7373000Y-98337000D01*
X7353000Y-98337000D01*
X7353000Y-98083000D01*
X7373000Y-98083000D01*
X7373000Y-97046662D01*
X7627000Y-97046662D01*
X7627000Y-98083000D01*
X8663930Y-98083000D01*
X8735169Y-97885785D01*
X8517076Y-97437786D01*
X8144142Y-97107349D01*
X7824213Y-96974842D01*
X7627000Y-97046662D01*
X7373000Y-97046662D01*
X7343391Y-97035879D01*
X7376874Y-96955244D01*
X7377126Y-96666025D01*
X7266680Y-96398725D01*
X7216443Y-96348400D01*
X7637498Y-96348400D01*
X7848740Y-96306382D01*
X8027821Y-96186723D01*
X8295548Y-95918996D01*
X8385924Y-95919075D01*
X8653224Y-95808629D01*
X8857910Y-95604299D01*
X8968823Y-95337193D01*
X8969075Y-95047974D01*
X8858629Y-94780674D01*
X8828127Y-94750119D01*
X8865961Y-94712350D01*
X8976874Y-94445244D01*
X8977126Y-94156025D01*
X8866680Y-93888725D01*
X8662350Y-93684039D01*
X8395244Y-93573126D01*
X8106025Y-93572874D01*
X7838725Y-93683320D01*
X7634039Y-93887650D01*
X7523126Y-94154756D01*
X7523046Y-94246308D01*
X7121354Y-94648000D01*
X4307919Y-94648000D01*
X4096678Y-94690018D01*
X3917596Y-94809677D01*
X2109677Y-96617596D01*
X1990018Y-96796677D01*
X1955789Y-96968759D01*
X1948000Y-97007919D01*
X1948000Y-97047492D01*
X1597025Y-97282007D01*
X1320206Y-97696295D01*
X1223000Y-98184982D01*
X1223000Y-98235018D01*
X1320206Y-98723705D01*
X1597025Y-99137993D01*
X2011313Y-99414812D01*
X2261790Y-99464635D01*
X1650000Y-99464635D01*
X1491763Y-99494409D01*
X1346433Y-99587927D01*
X1248936Y-99730619D01*
X1214635Y-99900000D01*
X1214635Y-101600000D01*
X1244409Y-101758237D01*
X1337927Y-101903567D01*
X1480619Y-102001064D01*
X1650000Y-102035365D01*
X3350000Y-102035365D01*
X3508237Y-102005591D01*
X3653567Y-101912073D01*
X3751064Y-101769381D01*
X3751188Y-101768771D01*
X3837927Y-101903567D01*
X3980619Y-102001064D01*
X4150000Y-102035365D01*
X4448000Y-102035365D01*
X4448000Y-102150000D01*
X4490018Y-102361242D01*
X4609677Y-102540323D01*
X4846028Y-102776674D01*
X4451313Y-102855188D01*
X4037025Y-103132007D01*
X3760206Y-103546295D01*
X3670000Y-103999791D01*
X3579794Y-103546295D01*
X3302975Y-103132007D01*
X2888687Y-102855188D01*
X2400000Y-102757982D01*
X1911313Y-102855188D01*
X1497025Y-103132007D01*
X1220206Y-103546295D01*
X1123000Y-104034982D01*
X1123000Y-104085018D01*
X1220206Y-104573705D01*
X1497025Y-104987993D01*
X1911313Y-105264812D01*
X2272998Y-105336756D01*
X2272998Y-105436661D01*
X2075787Y-105364842D01*
X1755858Y-105497349D01*
X1382924Y-105827786D01*
X1164831Y-106275785D01*
X1236070Y-106473000D01*
X2273000Y-106473000D01*
X2273000Y-106453000D01*
X2527000Y-106453000D01*
X2527000Y-106473000D01*
X2547000Y-106473000D01*
X2547000Y-106727000D01*
X2527000Y-106727000D01*
X2527000Y-106747000D01*
X2273000Y-106747000D01*
X2273000Y-106727000D01*
X1236070Y-106727000D01*
X1164831Y-106924215D01*
X1382924Y-107372214D01*
X1496672Y-107473000D01*
X527000Y-107473000D01*
X527000Y-91935365D01*
X1148000Y-91935365D01*
X1148000Y-92447570D01*
X1046433Y-92512927D01*
X948936Y-92655619D01*
X914635Y-92825000D01*
X914635Y-93575000D01*
X944409Y-93733237D01*
X1037927Y-93878567D01*
X1180619Y-93976064D01*
X1350000Y-94010365D01*
X2150000Y-94010365D01*
X2308237Y-93980591D01*
X2453567Y-93887073D01*
X2496041Y-93824910D01*
X2608124Y-93936993D01*
X2765065Y-94002000D01*
X3016250Y-94002000D01*
X3123000Y-93895250D01*
X3123000Y-93327000D01*
X3377000Y-93327000D01*
X3377000Y-93895250D01*
X3483750Y-94002000D01*
X3734935Y-94002000D01*
X3891876Y-93936993D01*
X4011993Y-93816876D01*
X4077000Y-93659936D01*
X4077000Y-93433750D01*
X4223000Y-93433750D01*
X4223000Y-93659936D01*
X4288007Y-93816876D01*
X4408124Y-93936993D01*
X4565065Y-94002000D01*
X4816250Y-94002000D01*
X4923000Y-93895250D01*
X4923000Y-93327000D01*
X4329750Y-93327000D01*
X4223000Y-93433750D01*
X4077000Y-93433750D01*
X3970250Y-93327000D01*
X3377000Y-93327000D01*
X3123000Y-93327000D01*
X3103000Y-93327000D01*
X3103000Y-93073000D01*
X3123000Y-93073000D01*
X3123000Y-92504750D01*
X3377000Y-92504750D01*
X3377000Y-93073000D01*
X3970250Y-93073000D01*
X4077000Y-92966250D01*
X4077000Y-92740064D01*
X4223000Y-92740064D01*
X4223000Y-92966250D01*
X4329750Y-93073000D01*
X4923000Y-93073000D01*
X4923000Y-92504750D01*
X4816250Y-92398000D01*
X4565065Y-92398000D01*
X4408124Y-92463007D01*
X4288007Y-92583124D01*
X4223000Y-92740064D01*
X4077000Y-92740064D01*
X4011993Y-92583124D01*
X3891876Y-92463007D01*
X3734935Y-92398000D01*
X3483750Y-92398000D01*
X3377000Y-92504750D01*
X3123000Y-92504750D01*
X3016250Y-92398000D01*
X2765065Y-92398000D01*
X2608124Y-92463007D01*
X2496381Y-92574750D01*
X2462073Y-92521433D01*
X2319381Y-92423936D01*
X2252000Y-92410291D01*
X2252000Y-91935365D01*
X2900000Y-91935365D01*
X3058237Y-91905591D01*
X3203567Y-91812073D01*
X3301064Y-91669381D01*
X3335365Y-91500000D01*
X3335365Y-89020311D01*
X3341906Y-89017608D01*
X3444060Y-88915631D01*
X3467797Y-88910910D01*
X3646878Y-88791251D01*
X5948000Y-86490129D01*
X5948000Y-88464635D01*
G36*
X5259416Y-82472298D02*
X5548635Y-82472550D01*
X5573002Y-82462482D01*
X5573002Y-82580279D01*
X5565267Y-82580279D01*
X5354025Y-82622297D01*
X5174944Y-82741956D01*
X2933648Y-84983252D01*
X2813989Y-85162333D01*
X2812918Y-85167716D01*
X2612697Y-85250446D01*
X2408011Y-85454776D01*
X2297098Y-85721882D01*
X2296846Y-86011101D01*
X2407292Y-86278401D01*
X2586466Y-86457888D01*
X2025809Y-87018545D01*
X2050500Y-86958935D01*
X2050500Y-86853750D01*
X1943750Y-86747000D01*
X1179000Y-86747000D01*
X1179000Y-87194250D01*
X1285750Y-87301000D01*
X1708436Y-87301000D01*
X1768045Y-87276309D01*
X1534678Y-87509676D01*
X1415019Y-87688757D01*
X1377691Y-87876422D01*
X1373001Y-87899999D01*
X1373001Y-88464635D01*
X527000Y-88464635D01*
X527000Y-87301000D01*
X818250Y-87301000D01*
X925000Y-87194250D01*
X925000Y-86747000D01*
X905000Y-86747000D01*
X905000Y-86493000D01*
X925000Y-86493000D01*
X925000Y-86473000D01*
X1179000Y-86473000D01*
X1179000Y-86493000D01*
X1943750Y-86493000D01*
X2050500Y-86386250D01*
X2050500Y-86281065D01*
X1985493Y-86124124D01*
X1865376Y-86004007D01*
X1819771Y-85985117D01*
X1927067Y-85916073D01*
X2024564Y-85773381D01*
X2058865Y-85604000D01*
X2058865Y-85441281D01*
X5095791Y-82404355D01*
X5259416Y-82472298D01*
X5259416Y-82472298D01*
G37*
X5259416Y-82472298D02*
X5548635Y-82472550D01*
X5573002Y-82462482D01*
X5573002Y-82580279D01*
X5565267Y-82580279D01*
X5354025Y-82622297D01*
X5174944Y-82741956D01*
X2933648Y-84983252D01*
X2813989Y-85162333D01*
X2812918Y-85167716D01*
X2612697Y-85250446D01*
X2408011Y-85454776D01*
X2297098Y-85721882D01*
X2296846Y-86011101D01*
X2407292Y-86278401D01*
X2586466Y-86457888D01*
X2025809Y-87018545D01*
X2050500Y-86958935D01*
X2050500Y-86853750D01*
X1943750Y-86747000D01*
X1179000Y-86747000D01*
X1179000Y-87194250D01*
X1285750Y-87301000D01*
X1708436Y-87301000D01*
X1768045Y-87276309D01*
X1534678Y-87509676D01*
X1415019Y-87688757D01*
X1377691Y-87876422D01*
X1373001Y-87899999D01*
X1373001Y-88464635D01*
X527000Y-88464635D01*
X527000Y-87301000D01*
X818250Y-87301000D01*
X925000Y-87194250D01*
X925000Y-86747000D01*
X905000Y-86747000D01*
X905000Y-86493000D01*
X925000Y-86493000D01*
X925000Y-86473000D01*
X1179000Y-86473000D01*
X1179000Y-86493000D01*
X1943750Y-86493000D01*
X2050500Y-86386250D01*
X2050500Y-86281065D01*
X1985493Y-86124124D01*
X1865376Y-86004007D01*
X1819771Y-85985117D01*
X1927067Y-85916073D01*
X2024564Y-85773381D01*
X2058865Y-85604000D01*
X2058865Y-85441281D01*
X5095791Y-82404355D01*
X5259416Y-82472298D01*
G36*
X8254756Y-24526874D02*
X8264635Y-24526883D01*
X8264635Y-25150000D01*
X8294409Y-25308237D01*
X8318452Y-25345600D01*
X8273126Y-25454756D01*
X8272874Y-25743975D01*
X8383320Y-26011275D01*
X8587650Y-26215961D01*
X8854756Y-26326874D01*
X9143975Y-26327126D01*
X9411275Y-26216680D01*
X9473000Y-26155062D01*
X9473000Y-36951409D01*
X9469381Y-36948936D01*
X9300000Y-36914635D01*
X8600000Y-36914635D01*
X8441763Y-36944409D01*
X8296433Y-37037927D01*
X8198936Y-37180619D01*
X8164635Y-37350000D01*
X8164635Y-38250000D01*
X8194409Y-38408237D01*
X8240208Y-38479410D01*
X7988725Y-38583320D01*
X7784039Y-38787650D01*
X7673126Y-39054756D01*
X7672874Y-39343975D01*
X7783320Y-39611275D01*
X7987650Y-39815961D01*
X8254756Y-39926874D01*
X8543975Y-39927126D01*
X8811275Y-39816680D01*
X9015961Y-39612350D01*
X9126874Y-39345244D01*
X9126954Y-39253692D01*
X9340323Y-39040323D01*
X9349225Y-39027000D01*
X9459982Y-38861241D01*
X9473000Y-38795794D01*
X9473000Y-49951409D01*
X9469381Y-49948936D01*
X9300000Y-49914635D01*
X8600000Y-49914635D01*
X8441763Y-49944409D01*
X8296433Y-50037927D01*
X8198936Y-50180619D01*
X8164635Y-50350000D01*
X8164635Y-51154719D01*
X8026734Y-51292620D01*
X8035365Y-51250000D01*
X8035365Y-50350000D01*
X8005591Y-50191763D01*
X7912073Y-50046433D01*
X7769381Y-49948936D01*
X7600000Y-49914635D01*
X6900000Y-49914635D01*
X6741763Y-49944409D01*
X6596433Y-50037927D01*
X6498936Y-50180619D01*
X6482906Y-50259776D01*
X6357422Y-50022183D01*
X5986885Y-49715001D01*
X5576674Y-49588338D01*
X5952407Y-49513600D01*
X6350474Y-49247620D01*
X6616454Y-48849553D01*
X6709854Y-48380000D01*
X6616454Y-47910447D01*
X6350474Y-47512380D01*
X5952407Y-47246400D01*
X5482854Y-47153000D01*
X4517146Y-47153000D01*
X4047593Y-47246400D01*
X3649526Y-47512380D01*
X3383546Y-47910447D01*
X3290146Y-48380000D01*
X3383546Y-48849553D01*
X3649526Y-49247620D01*
X4047593Y-49513600D01*
X4423326Y-49588338D01*
X4013115Y-49715001D01*
X3642578Y-50022183D01*
X3417800Y-50447780D01*
X3414482Y-50483649D01*
X3486972Y-50673000D01*
X4873000Y-50673000D01*
X4873000Y-50653000D01*
X5127000Y-50653000D01*
X5127000Y-50673000D01*
X5147000Y-50673000D01*
X5147000Y-50927000D01*
X5127000Y-50927000D01*
X5127000Y-50947000D01*
X4873000Y-50947000D01*
X4873000Y-50927000D01*
X3486972Y-50927000D01*
X3414482Y-51116351D01*
X3417800Y-51152220D01*
X3642578Y-51577817D01*
X4013115Y-51884999D01*
X4226462Y-51950875D01*
X4016728Y-51992594D01*
X3634881Y-52247735D01*
X3379740Y-52629582D01*
X3290146Y-53080000D01*
X3379740Y-53530418D01*
X3634881Y-53912265D01*
X4016728Y-54167406D01*
X4467146Y-54257000D01*
X5532854Y-54257000D01*
X5983272Y-54167406D01*
X6365119Y-53912265D01*
X6620260Y-53530418D01*
X6709854Y-53080000D01*
X6638644Y-52722002D01*
X7273010Y-52087636D01*
X7272874Y-52243975D01*
X7383320Y-52511275D01*
X7587650Y-52715961D01*
X7854756Y-52826874D01*
X8143975Y-52827126D01*
X8411275Y-52716680D01*
X8615961Y-52512350D01*
X8726874Y-52245244D01*
X8726954Y-52153692D01*
X9195281Y-51685365D01*
X9300000Y-51685365D01*
X9458237Y-51655591D01*
X9473000Y-51646091D01*
X9473000Y-72587591D01*
X9366057Y-72427539D01*
X9128644Y-72268905D01*
X9127071Y-72268592D01*
X9127126Y-72206025D01*
X9016680Y-71938725D01*
X8812350Y-71734039D01*
X8545244Y-71623126D01*
X8256025Y-71622874D01*
X7988725Y-71733320D01*
X7784039Y-71937650D01*
X7673126Y-72204756D01*
X7673072Y-72266177D01*
X7659356Y-72268905D01*
X7421943Y-72427539D01*
X7263309Y-72664952D01*
X7207604Y-72945000D01*
X7263309Y-73225048D01*
X7421943Y-73462461D01*
X7592884Y-73576680D01*
X7564820Y-73587506D01*
X7354937Y-73787342D01*
X7270244Y-73976822D01*
X7350188Y-74088000D01*
X8267000Y-74088000D01*
X8267000Y-74068000D01*
X8521000Y-74068000D01*
X8521000Y-74088000D01*
X8541000Y-74088000D01*
X8541000Y-74342000D01*
X8521000Y-74342000D01*
X8521000Y-74362000D01*
X8267000Y-74362000D01*
X8267000Y-74342000D01*
X7350188Y-74342000D01*
X7270244Y-74453178D01*
X7354937Y-74642658D01*
X7564820Y-74842494D01*
X7592884Y-74853320D01*
X7473634Y-74933000D01*
X7213646Y-74933000D01*
X6551999Y-74271353D01*
X6551999Y-74099999D01*
X6532856Y-74003758D01*
X6509981Y-73888757D01*
X6427031Y-73764615D01*
X6427126Y-73656025D01*
X6316680Y-73388725D01*
X6112350Y-73184039D01*
X5845244Y-73073126D01*
X5556025Y-73072874D01*
X5288725Y-73183320D01*
X5084039Y-73387650D01*
X4973126Y-73654756D01*
X4972874Y-73943975D01*
X5083320Y-74211275D01*
X5287650Y-74415961D01*
X5447999Y-74482544D01*
X5447999Y-74499999D01*
X5490017Y-74711241D01*
X5609676Y-74890322D01*
X6594677Y-75875323D01*
X6773758Y-75994982D01*
X6985000Y-76037000D01*
X7041253Y-76037000D01*
X7075269Y-76119326D01*
X7279599Y-76324012D01*
X7344399Y-76350919D01*
X7270244Y-76516822D01*
X7350188Y-76628000D01*
X8267000Y-76628000D01*
X8267000Y-76608000D01*
X8521000Y-76608000D01*
X8521000Y-76628000D01*
X8541000Y-76628000D01*
X8541000Y-76882000D01*
X8521000Y-76882000D01*
X8521000Y-77486800D01*
X8952800Y-77486800D01*
X9223180Y-77382494D01*
X9433063Y-77182658D01*
X9473000Y-77093309D01*
X9473000Y-82064635D01*
X8696380Y-82064635D01*
X8587340Y-81955405D01*
X8392558Y-81874524D01*
X8408865Y-81794000D01*
X8408865Y-81286000D01*
X8379091Y-81127763D01*
X8285573Y-80982433D01*
X8171133Y-80904240D01*
X8277067Y-80836073D01*
X8374564Y-80693381D01*
X8408865Y-80524000D01*
X8408865Y-80016000D01*
X8379091Y-79857763D01*
X8314013Y-79756630D01*
X8418996Y-79756721D01*
X8686296Y-79646275D01*
X8890982Y-79441945D01*
X9001895Y-79174839D01*
X9002147Y-78885620D01*
X8891701Y-78618320D01*
X8687371Y-78413634D01*
X8420265Y-78302721D01*
X8131046Y-78302469D01*
X8065965Y-78329360D01*
X7973500Y-78310635D01*
X6927056Y-78310635D01*
X6927056Y-76993178D01*
X7270244Y-76993178D01*
X7354937Y-77182658D01*
X7564820Y-77382494D01*
X7835200Y-77486800D01*
X8267000Y-77486800D01*
X8267000Y-76882000D01*
X7350188Y-76882000D01*
X7270244Y-76993178D01*
X6927056Y-76993178D01*
X6927056Y-76797456D01*
X6885038Y-76586215D01*
X6765379Y-76407133D01*
X4182923Y-73824677D01*
X4003842Y-73705018D01*
X3792600Y-73663000D01*
X3726366Y-73663000D01*
X3602147Y-73580000D01*
X3778057Y-73462461D01*
X3936691Y-73225048D01*
X3992396Y-72945000D01*
X3936691Y-72664952D01*
X3778057Y-72427539D01*
X3540644Y-72268905D01*
X3483000Y-72257439D01*
X3483000Y-72243996D01*
X3551064Y-72144381D01*
X3585365Y-71975000D01*
X3585365Y-71225000D01*
X3555591Y-71066763D01*
X3462073Y-70921433D01*
X3319381Y-70823936D01*
X3177000Y-70795103D01*
X3177000Y-70635365D01*
X4600000Y-70635365D01*
X4758237Y-70605591D01*
X4903567Y-70512073D01*
X5001064Y-70369381D01*
X5035365Y-70200000D01*
X5035365Y-69977000D01*
X5100000Y-69977000D01*
X5359077Y-69925466D01*
X5578711Y-69778711D01*
X6772057Y-68585365D01*
X7500000Y-68585365D01*
X7658237Y-68555591D01*
X7803567Y-68462073D01*
X7809943Y-68452741D01*
X7811629Y-68457068D01*
X8218864Y-68590241D01*
X8646063Y-68557435D01*
X8888371Y-68457068D01*
X8955411Y-68285017D01*
X8350000Y-67679605D01*
X8335858Y-67693748D01*
X8156253Y-67514143D01*
X8170395Y-67500000D01*
X8529605Y-67500000D01*
X9135017Y-68105411D01*
X9307068Y-68038371D01*
X9440241Y-67631136D01*
X9407435Y-67203937D01*
X9307068Y-66961629D01*
X9135017Y-66894589D01*
X8529605Y-67500000D01*
X8170395Y-67500000D01*
X8156253Y-67485858D01*
X8335858Y-67306252D01*
X8350000Y-67320395D01*
X8955411Y-66714983D01*
X8888371Y-66542932D01*
X8481136Y-66409759D01*
X8053937Y-66442565D01*
X7811629Y-66542932D01*
X7810645Y-66545457D01*
X7669381Y-66448936D01*
X7500000Y-66414635D01*
X6200000Y-66414635D01*
X6041763Y-66444409D01*
X5896433Y-66537927D01*
X5798936Y-66680619D01*
X5764635Y-66850000D01*
X5764635Y-67677943D01*
X5035365Y-68407213D01*
X5035365Y-68400000D01*
X5005591Y-68241763D01*
X4912073Y-68096433D01*
X4769381Y-67998936D01*
X4600000Y-67964635D01*
X527000Y-67964635D01*
X527000Y-67435365D01*
X4600000Y-67435365D01*
X4758237Y-67405591D01*
X4903567Y-67312073D01*
X5001064Y-67169381D01*
X5035365Y-67000000D01*
X5035365Y-65200000D01*
X5005591Y-65041763D01*
X4912073Y-64896433D01*
X4873000Y-64869736D01*
X4873000Y-63927000D01*
X5127000Y-63927000D01*
X5127000Y-65027000D01*
X5527000Y-65027000D01*
X5986885Y-64884999D01*
X6357422Y-64577817D01*
X6582200Y-64152220D01*
X6585518Y-64116351D01*
X6513028Y-63927000D01*
X5127000Y-63927000D01*
X4873000Y-63927000D01*
X3486972Y-63927000D01*
X3414482Y-64116351D01*
X3417800Y-64152220D01*
X3642578Y-64577817D01*
X3867926Y-64764635D01*
X1701347Y-64764635D01*
X1626966Y-64690254D01*
X1627161Y-64466417D01*
X1486331Y-64125583D01*
X1225789Y-63864586D01*
X885201Y-63723161D01*
X527000Y-63722848D01*
X527000Y-61380000D01*
X3290146Y-61380000D01*
X3383546Y-61849553D01*
X3649526Y-62247620D01*
X4047593Y-62513600D01*
X4423326Y-62588338D01*
X4013115Y-62715001D01*
X3642578Y-63022183D01*
X3417800Y-63447780D01*
X3414482Y-63483649D01*
X3486972Y-63673000D01*
X4873000Y-63673000D01*
X4873000Y-63653000D01*
X5127000Y-63653000D01*
X5127000Y-63673000D01*
X6513028Y-63673000D01*
X6585518Y-63483649D01*
X6582200Y-63447780D01*
X6357422Y-63022183D01*
X5986885Y-62715001D01*
X5576674Y-62588338D01*
X5952407Y-62513600D01*
X6350474Y-62247620D01*
X6616454Y-61849553D01*
X6709854Y-61380000D01*
X6616454Y-60910447D01*
X6350474Y-60512380D01*
X5952407Y-60246400D01*
X5482854Y-60153000D01*
X4517146Y-60153000D01*
X4047593Y-60246400D01*
X3649526Y-60512380D01*
X3383546Y-60910447D01*
X3290146Y-61380000D01*
X527000Y-61380000D01*
X527000Y-35380000D01*
X3290146Y-35380000D01*
X3383546Y-35849553D01*
X3649526Y-36247620D01*
X4047593Y-36513600D01*
X4423326Y-36588338D01*
X4013115Y-36715001D01*
X3642578Y-37022183D01*
X3417800Y-37447780D01*
X3414482Y-37483649D01*
X3486972Y-37673000D01*
X4873000Y-37673000D01*
X4873000Y-37653000D01*
X5127000Y-37653000D01*
X5127000Y-37673000D01*
X5147000Y-37673000D01*
X5147000Y-37927000D01*
X5127000Y-37927000D01*
X5127000Y-37947000D01*
X4873000Y-37947000D01*
X4873000Y-37927000D01*
X3486972Y-37927000D01*
X3414482Y-38116351D01*
X3417800Y-38152220D01*
X3642578Y-38577817D01*
X4013115Y-38884999D01*
X4226462Y-38950875D01*
X4016728Y-38992594D01*
X3634881Y-39247735D01*
X3379740Y-39629582D01*
X3290146Y-40080000D01*
X3379740Y-40530418D01*
X3634881Y-40912265D01*
X4016728Y-41167406D01*
X4467146Y-41257000D01*
X5532854Y-41257000D01*
X5983272Y-41167406D01*
X6365119Y-40912265D01*
X6620260Y-40530418D01*
X6709854Y-40080000D01*
X6638644Y-39722002D01*
X7640323Y-38720323D01*
X7672839Y-38671660D01*
X7758237Y-38655591D01*
X7903567Y-38562073D01*
X8001064Y-38419381D01*
X8035365Y-38250000D01*
X8035365Y-37350000D01*
X8005591Y-37191763D01*
X7912073Y-37046433D01*
X7769381Y-36948936D01*
X7600000Y-36914635D01*
X6900000Y-36914635D01*
X6741763Y-36944409D01*
X6596433Y-37037927D01*
X6498936Y-37180619D01*
X6482906Y-37259776D01*
X6357422Y-37022183D01*
X5986885Y-36715001D01*
X5576674Y-36588338D01*
X5952407Y-36513600D01*
X6350474Y-36247620D01*
X6616454Y-35849553D01*
X6709854Y-35380000D01*
X6616454Y-34910447D01*
X6350474Y-34512380D01*
X5952407Y-34246400D01*
X5482854Y-34153000D01*
X4517146Y-34153000D01*
X4047593Y-34246400D01*
X3649526Y-34512380D01*
X3383546Y-34910447D01*
X3290146Y-35380000D01*
X527000Y-35380000D01*
X527000Y-25745795D01*
X540018Y-25811242D01*
X659677Y-25990323D01*
X4159678Y-29490324D01*
X4338759Y-29609983D01*
X4405645Y-29623287D01*
X4483320Y-29811275D01*
X4687650Y-30015961D01*
X4954756Y-30126874D01*
X5243975Y-30127126D01*
X5511275Y-30016680D01*
X5715961Y-29812350D01*
X5826874Y-29545244D01*
X5827126Y-29256025D01*
X5716680Y-28988725D01*
X5512350Y-28784039D01*
X5245244Y-28673126D01*
X5135477Y-28673030D01*
X5011243Y-28590019D01*
X4800001Y-28548001D01*
X4778647Y-28548001D01*
X4487646Y-28257000D01*
X5532854Y-28257000D01*
X5983272Y-28167406D01*
X6365119Y-27912265D01*
X6620260Y-27530418D01*
X6709854Y-27080000D01*
X6620260Y-26629582D01*
X6365119Y-26247735D01*
X5983272Y-25992594D01*
X5773538Y-25950875D01*
X5986885Y-25884999D01*
X6357422Y-25577817D01*
X6569557Y-25176158D01*
X6594409Y-25308237D01*
X6687927Y-25453567D01*
X6830619Y-25551064D01*
X7000000Y-25585365D01*
X7700000Y-25585365D01*
X7858237Y-25555591D01*
X8003567Y-25462073D01*
X8101064Y-25319381D01*
X8135365Y-25150000D01*
X8135365Y-24595281D01*
X8218731Y-24511915D01*
X8254756Y-24526874D01*
X8254756Y-24526874D01*
G37*
X8254756Y-24526874D02*
X8264635Y-24526883D01*
X8264635Y-25150000D01*
X8294409Y-25308237D01*
X8318452Y-25345600D01*
X8273126Y-25454756D01*
X8272874Y-25743975D01*
X8383320Y-26011275D01*
X8587650Y-26215961D01*
X8854756Y-26326874D01*
X9143975Y-26327126D01*
X9411275Y-26216680D01*
X9473000Y-26155062D01*
X9473000Y-36951409D01*
X9469381Y-36948936D01*
X9300000Y-36914635D01*
X8600000Y-36914635D01*
X8441763Y-36944409D01*
X8296433Y-37037927D01*
X8198936Y-37180619D01*
X8164635Y-37350000D01*
X8164635Y-38250000D01*
X8194409Y-38408237D01*
X8240208Y-38479410D01*
X7988725Y-38583320D01*
X7784039Y-38787650D01*
X7673126Y-39054756D01*
X7672874Y-39343975D01*
X7783320Y-39611275D01*
X7987650Y-39815961D01*
X8254756Y-39926874D01*
X8543975Y-39927126D01*
X8811275Y-39816680D01*
X9015961Y-39612350D01*
X9126874Y-39345244D01*
X9126954Y-39253692D01*
X9340323Y-39040323D01*
X9349225Y-39027000D01*
X9459982Y-38861241D01*
X9473000Y-38795794D01*
X9473000Y-49951409D01*
X9469381Y-49948936D01*
X9300000Y-49914635D01*
X8600000Y-49914635D01*
X8441763Y-49944409D01*
X8296433Y-50037927D01*
X8198936Y-50180619D01*
X8164635Y-50350000D01*
X8164635Y-51154719D01*
X8026734Y-51292620D01*
X8035365Y-51250000D01*
X8035365Y-50350000D01*
X8005591Y-50191763D01*
X7912073Y-50046433D01*
X7769381Y-49948936D01*
X7600000Y-49914635D01*
X6900000Y-49914635D01*
X6741763Y-49944409D01*
X6596433Y-50037927D01*
X6498936Y-50180619D01*
X6482906Y-50259776D01*
X6357422Y-50022183D01*
X5986885Y-49715001D01*
X5576674Y-49588338D01*
X5952407Y-49513600D01*
X6350474Y-49247620D01*
X6616454Y-48849553D01*
X6709854Y-48380000D01*
X6616454Y-47910447D01*
X6350474Y-47512380D01*
X5952407Y-47246400D01*
X5482854Y-47153000D01*
X4517146Y-47153000D01*
X4047593Y-47246400D01*
X3649526Y-47512380D01*
X3383546Y-47910447D01*
X3290146Y-48380000D01*
X3383546Y-48849553D01*
X3649526Y-49247620D01*
X4047593Y-49513600D01*
X4423326Y-49588338D01*
X4013115Y-49715001D01*
X3642578Y-50022183D01*
X3417800Y-50447780D01*
X3414482Y-50483649D01*
X3486972Y-50673000D01*
X4873000Y-50673000D01*
X4873000Y-50653000D01*
X5127000Y-50653000D01*
X5127000Y-50673000D01*
X5147000Y-50673000D01*
X5147000Y-50927000D01*
X5127000Y-50927000D01*
X5127000Y-50947000D01*
X4873000Y-50947000D01*
X4873000Y-50927000D01*
X3486972Y-50927000D01*
X3414482Y-51116351D01*
X3417800Y-51152220D01*
X3642578Y-51577817D01*
X4013115Y-51884999D01*
X4226462Y-51950875D01*
X4016728Y-51992594D01*
X3634881Y-52247735D01*
X3379740Y-52629582D01*
X3290146Y-53080000D01*
X3379740Y-53530418D01*
X3634881Y-53912265D01*
X4016728Y-54167406D01*
X4467146Y-54257000D01*
X5532854Y-54257000D01*
X5983272Y-54167406D01*
X6365119Y-53912265D01*
X6620260Y-53530418D01*
X6709854Y-53080000D01*
X6638644Y-52722002D01*
X7273010Y-52087636D01*
X7272874Y-52243975D01*
X7383320Y-52511275D01*
X7587650Y-52715961D01*
X7854756Y-52826874D01*
X8143975Y-52827126D01*
X8411275Y-52716680D01*
X8615961Y-52512350D01*
X8726874Y-52245244D01*
X8726954Y-52153692D01*
X9195281Y-51685365D01*
X9300000Y-51685365D01*
X9458237Y-51655591D01*
X9473000Y-51646091D01*
X9473000Y-72587591D01*
X9366057Y-72427539D01*
X9128644Y-72268905D01*
X9127071Y-72268592D01*
X9127126Y-72206025D01*
X9016680Y-71938725D01*
X8812350Y-71734039D01*
X8545244Y-71623126D01*
X8256025Y-71622874D01*
X7988725Y-71733320D01*
X7784039Y-71937650D01*
X7673126Y-72204756D01*
X7673072Y-72266177D01*
X7659356Y-72268905D01*
X7421943Y-72427539D01*
X7263309Y-72664952D01*
X7207604Y-72945000D01*
X7263309Y-73225048D01*
X7421943Y-73462461D01*
X7592884Y-73576680D01*
X7564820Y-73587506D01*
X7354937Y-73787342D01*
X7270244Y-73976822D01*
X7350188Y-74088000D01*
X8267000Y-74088000D01*
X8267000Y-74068000D01*
X8521000Y-74068000D01*
X8521000Y-74088000D01*
X8541000Y-74088000D01*
X8541000Y-74342000D01*
X8521000Y-74342000D01*
X8521000Y-74362000D01*
X8267000Y-74362000D01*
X8267000Y-74342000D01*
X7350188Y-74342000D01*
X7270244Y-74453178D01*
X7354937Y-74642658D01*
X7564820Y-74842494D01*
X7592884Y-74853320D01*
X7473634Y-74933000D01*
X7213646Y-74933000D01*
X6551999Y-74271353D01*
X6551999Y-74099999D01*
X6532856Y-74003758D01*
X6509981Y-73888757D01*
X6427031Y-73764615D01*
X6427126Y-73656025D01*
X6316680Y-73388725D01*
X6112350Y-73184039D01*
X5845244Y-73073126D01*
X5556025Y-73072874D01*
X5288725Y-73183320D01*
X5084039Y-73387650D01*
X4973126Y-73654756D01*
X4972874Y-73943975D01*
X5083320Y-74211275D01*
X5287650Y-74415961D01*
X5447999Y-74482544D01*
X5447999Y-74499999D01*
X5490017Y-74711241D01*
X5609676Y-74890322D01*
X6594677Y-75875323D01*
X6773758Y-75994982D01*
X6985000Y-76037000D01*
X7041253Y-76037000D01*
X7075269Y-76119326D01*
X7279599Y-76324012D01*
X7344399Y-76350919D01*
X7270244Y-76516822D01*
X7350188Y-76628000D01*
X8267000Y-76628000D01*
X8267000Y-76608000D01*
X8521000Y-76608000D01*
X8521000Y-76628000D01*
X8541000Y-76628000D01*
X8541000Y-76882000D01*
X8521000Y-76882000D01*
X8521000Y-77486800D01*
X8952800Y-77486800D01*
X9223180Y-77382494D01*
X9433063Y-77182658D01*
X9473000Y-77093309D01*
X9473000Y-82064635D01*
X8696380Y-82064635D01*
X8587340Y-81955405D01*
X8392558Y-81874524D01*
X8408865Y-81794000D01*
X8408865Y-81286000D01*
X8379091Y-81127763D01*
X8285573Y-80982433D01*
X8171133Y-80904240D01*
X8277067Y-80836073D01*
X8374564Y-80693381D01*
X8408865Y-80524000D01*
X8408865Y-80016000D01*
X8379091Y-79857763D01*
X8314013Y-79756630D01*
X8418996Y-79756721D01*
X8686296Y-79646275D01*
X8890982Y-79441945D01*
X9001895Y-79174839D01*
X9002147Y-78885620D01*
X8891701Y-78618320D01*
X8687371Y-78413634D01*
X8420265Y-78302721D01*
X8131046Y-78302469D01*
X8065965Y-78329360D01*
X7973500Y-78310635D01*
X6927056Y-78310635D01*
X6927056Y-76993178D01*
X7270244Y-76993178D01*
X7354937Y-77182658D01*
X7564820Y-77382494D01*
X7835200Y-77486800D01*
X8267000Y-77486800D01*
X8267000Y-76882000D01*
X7350188Y-76882000D01*
X7270244Y-76993178D01*
X6927056Y-76993178D01*
X6927056Y-76797456D01*
X6885038Y-76586215D01*
X6765379Y-76407133D01*
X4182923Y-73824677D01*
X4003842Y-73705018D01*
X3792600Y-73663000D01*
X3726366Y-73663000D01*
X3602147Y-73580000D01*
X3778057Y-73462461D01*
X3936691Y-73225048D01*
X3992396Y-72945000D01*
X3936691Y-72664952D01*
X3778057Y-72427539D01*
X3540644Y-72268905D01*
X3483000Y-72257439D01*
X3483000Y-72243996D01*
X3551064Y-72144381D01*
X3585365Y-71975000D01*
X3585365Y-71225000D01*
X3555591Y-71066763D01*
X3462073Y-70921433D01*
X3319381Y-70823936D01*
X3177000Y-70795103D01*
X3177000Y-70635365D01*
X4600000Y-70635365D01*
X4758237Y-70605591D01*
X4903567Y-70512073D01*
X5001064Y-70369381D01*
X5035365Y-70200000D01*
X5035365Y-69977000D01*
X5100000Y-69977000D01*
X5359077Y-69925466D01*
X5578711Y-69778711D01*
X6772057Y-68585365D01*
X7500000Y-68585365D01*
X7658237Y-68555591D01*
X7803567Y-68462073D01*
X7809943Y-68452741D01*
X7811629Y-68457068D01*
X8218864Y-68590241D01*
X8646063Y-68557435D01*
X8888371Y-68457068D01*
X8955411Y-68285017D01*
X8350000Y-67679605D01*
X8335858Y-67693748D01*
X8156253Y-67514143D01*
X8170395Y-67500000D01*
X8529605Y-67500000D01*
X9135017Y-68105411D01*
X9307068Y-68038371D01*
X9440241Y-67631136D01*
X9407435Y-67203937D01*
X9307068Y-66961629D01*
X9135017Y-66894589D01*
X8529605Y-67500000D01*
X8170395Y-67500000D01*
X8156253Y-67485858D01*
X8335858Y-67306252D01*
X8350000Y-67320395D01*
X8955411Y-66714983D01*
X8888371Y-66542932D01*
X8481136Y-66409759D01*
X8053937Y-66442565D01*
X7811629Y-66542932D01*
X7810645Y-66545457D01*
X7669381Y-66448936D01*
X7500000Y-66414635D01*
X6200000Y-66414635D01*
X6041763Y-66444409D01*
X5896433Y-66537927D01*
X5798936Y-66680619D01*
X5764635Y-66850000D01*
X5764635Y-67677943D01*
X5035365Y-68407213D01*
X5035365Y-68400000D01*
X5005591Y-68241763D01*
X4912073Y-68096433D01*
X4769381Y-67998936D01*
X4600000Y-67964635D01*
X527000Y-67964635D01*
X527000Y-67435365D01*
X4600000Y-67435365D01*
X4758237Y-67405591D01*
X4903567Y-67312073D01*
X5001064Y-67169381D01*
X5035365Y-67000000D01*
X5035365Y-65200000D01*
X5005591Y-65041763D01*
X4912073Y-64896433D01*
X4873000Y-64869736D01*
X4873000Y-63927000D01*
X5127000Y-63927000D01*
X5127000Y-65027000D01*
X5527000Y-65027000D01*
X5986885Y-64884999D01*
X6357422Y-64577817D01*
X6582200Y-64152220D01*
X6585518Y-64116351D01*
X6513028Y-63927000D01*
X5127000Y-63927000D01*
X4873000Y-63927000D01*
X3486972Y-63927000D01*
X3414482Y-64116351D01*
X3417800Y-64152220D01*
X3642578Y-64577817D01*
X3867926Y-64764635D01*
X1701347Y-64764635D01*
X1626966Y-64690254D01*
X1627161Y-64466417D01*
X1486331Y-64125583D01*
X1225789Y-63864586D01*
X885201Y-63723161D01*
X527000Y-63722848D01*
X527000Y-61380000D01*
X3290146Y-61380000D01*
X3383546Y-61849553D01*
X3649526Y-62247620D01*
X4047593Y-62513600D01*
X4423326Y-62588338D01*
X4013115Y-62715001D01*
X3642578Y-63022183D01*
X3417800Y-63447780D01*
X3414482Y-63483649D01*
X3486972Y-63673000D01*
X4873000Y-63673000D01*
X4873000Y-63653000D01*
X5127000Y-63653000D01*
X5127000Y-63673000D01*
X6513028Y-63673000D01*
X6585518Y-63483649D01*
X6582200Y-63447780D01*
X6357422Y-63022183D01*
X5986885Y-62715001D01*
X5576674Y-62588338D01*
X5952407Y-62513600D01*
X6350474Y-62247620D01*
X6616454Y-61849553D01*
X6709854Y-61380000D01*
X6616454Y-60910447D01*
X6350474Y-60512380D01*
X5952407Y-60246400D01*
X5482854Y-60153000D01*
X4517146Y-60153000D01*
X4047593Y-60246400D01*
X3649526Y-60512380D01*
X3383546Y-60910447D01*
X3290146Y-61380000D01*
X527000Y-61380000D01*
X527000Y-35380000D01*
X3290146Y-35380000D01*
X3383546Y-35849553D01*
X3649526Y-36247620D01*
X4047593Y-36513600D01*
X4423326Y-36588338D01*
X4013115Y-36715001D01*
X3642578Y-37022183D01*
X3417800Y-37447780D01*
X3414482Y-37483649D01*
X3486972Y-37673000D01*
X4873000Y-37673000D01*
X4873000Y-37653000D01*
X5127000Y-37653000D01*
X5127000Y-37673000D01*
X5147000Y-37673000D01*
X5147000Y-37927000D01*
X5127000Y-37927000D01*
X5127000Y-37947000D01*
X4873000Y-37947000D01*
X4873000Y-37927000D01*
X3486972Y-37927000D01*
X3414482Y-38116351D01*
X3417800Y-38152220D01*
X3642578Y-38577817D01*
X4013115Y-38884999D01*
X4226462Y-38950875D01*
X4016728Y-38992594D01*
X3634881Y-39247735D01*
X3379740Y-39629582D01*
X3290146Y-40080000D01*
X3379740Y-40530418D01*
X3634881Y-40912265D01*
X4016728Y-41167406D01*
X4467146Y-41257000D01*
X5532854Y-41257000D01*
X5983272Y-41167406D01*
X6365119Y-40912265D01*
X6620260Y-40530418D01*
X6709854Y-40080000D01*
X6638644Y-39722002D01*
X7640323Y-38720323D01*
X7672839Y-38671660D01*
X7758237Y-38655591D01*
X7903567Y-38562073D01*
X8001064Y-38419381D01*
X8035365Y-38250000D01*
X8035365Y-37350000D01*
X8005591Y-37191763D01*
X7912073Y-37046433D01*
X7769381Y-36948936D01*
X7600000Y-36914635D01*
X6900000Y-36914635D01*
X6741763Y-36944409D01*
X6596433Y-37037927D01*
X6498936Y-37180619D01*
X6482906Y-37259776D01*
X6357422Y-37022183D01*
X5986885Y-36715001D01*
X5576674Y-36588338D01*
X5952407Y-36513600D01*
X6350474Y-36247620D01*
X6616454Y-35849553D01*
X6709854Y-35380000D01*
X6616454Y-34910447D01*
X6350474Y-34512380D01*
X5952407Y-34246400D01*
X5482854Y-34153000D01*
X4517146Y-34153000D01*
X4047593Y-34246400D01*
X3649526Y-34512380D01*
X3383546Y-34910447D01*
X3290146Y-35380000D01*
X527000Y-35380000D01*
X527000Y-25745795D01*
X540018Y-25811242D01*
X659677Y-25990323D01*
X4159678Y-29490324D01*
X4338759Y-29609983D01*
X4405645Y-29623287D01*
X4483320Y-29811275D01*
X4687650Y-30015961D01*
X4954756Y-30126874D01*
X5243975Y-30127126D01*
X5511275Y-30016680D01*
X5715961Y-29812350D01*
X5826874Y-29545244D01*
X5827126Y-29256025D01*
X5716680Y-28988725D01*
X5512350Y-28784039D01*
X5245244Y-28673126D01*
X5135477Y-28673030D01*
X5011243Y-28590019D01*
X4800001Y-28548001D01*
X4778647Y-28548001D01*
X4487646Y-28257000D01*
X5532854Y-28257000D01*
X5983272Y-28167406D01*
X6365119Y-27912265D01*
X6620260Y-27530418D01*
X6709854Y-27080000D01*
X6620260Y-26629582D01*
X6365119Y-26247735D01*
X5983272Y-25992594D01*
X5773538Y-25950875D01*
X5986885Y-25884999D01*
X6357422Y-25577817D01*
X6569557Y-25176158D01*
X6594409Y-25308237D01*
X6687927Y-25453567D01*
X6830619Y-25551064D01*
X7000000Y-25585365D01*
X7700000Y-25585365D01*
X7858237Y-25555591D01*
X8003567Y-25462073D01*
X8101064Y-25319381D01*
X8135365Y-25150000D01*
X8135365Y-24595281D01*
X8218731Y-24511915D01*
X8254756Y-24526874D01*
G36*
X1823000Y-70834478D02*
X1734935Y-70798000D01*
X1483750Y-70798000D01*
X1377000Y-70904750D01*
X1377000Y-71473000D01*
X1397000Y-71473000D01*
X1397000Y-71727000D01*
X1377000Y-71727000D01*
X1377000Y-72295250D01*
X1483750Y-72402000D01*
X1734935Y-72402000D01*
X1891876Y-72336993D01*
X2003619Y-72225250D01*
X2037927Y-72278567D01*
X2047305Y-72284975D01*
X1833943Y-72427539D01*
X1675309Y-72664952D01*
X1619604Y-72945000D01*
X1675309Y-73225048D01*
X1833943Y-73462461D01*
X2009853Y-73580000D01*
X1833943Y-73697539D01*
X1675309Y-73934952D01*
X1619604Y-74215000D01*
X1675309Y-74495048D01*
X1833943Y-74732461D01*
X2009853Y-74850000D01*
X1833943Y-74967539D01*
X1675309Y-75204952D01*
X1619604Y-75485000D01*
X1675309Y-75765048D01*
X1833943Y-76002461D01*
X2009853Y-76120000D01*
X1833943Y-76237539D01*
X1675309Y-76474952D01*
X1626072Y-76722482D01*
X661677Y-77686877D01*
X542018Y-77865958D01*
X527000Y-77941460D01*
X527000Y-72255869D01*
X608124Y-72336993D01*
X765065Y-72402000D01*
X1016250Y-72402000D01*
X1123000Y-72295250D01*
X1123000Y-71727000D01*
X1103000Y-71727000D01*
X1103000Y-71473000D01*
X1123000Y-71473000D01*
X1123000Y-70904750D01*
X1016250Y-70798000D01*
X765065Y-70798000D01*
X608124Y-70863007D01*
X527000Y-70944131D01*
X527000Y-70635365D01*
X1823000Y-70635365D01*
X1823000Y-70834478D01*
X1823000Y-70834478D01*
G37*
X1823000Y-70834478D02*
X1734935Y-70798000D01*
X1483750Y-70798000D01*
X1377000Y-70904750D01*
X1377000Y-71473000D01*
X1397000Y-71473000D01*
X1397000Y-71727000D01*
X1377000Y-71727000D01*
X1377000Y-72295250D01*
X1483750Y-72402000D01*
X1734935Y-72402000D01*
X1891876Y-72336993D01*
X2003619Y-72225250D01*
X2037927Y-72278567D01*
X2047305Y-72284975D01*
X1833943Y-72427539D01*
X1675309Y-72664952D01*
X1619604Y-72945000D01*
X1675309Y-73225048D01*
X1833943Y-73462461D01*
X2009853Y-73580000D01*
X1833943Y-73697539D01*
X1675309Y-73934952D01*
X1619604Y-74215000D01*
X1675309Y-74495048D01*
X1833943Y-74732461D01*
X2009853Y-74850000D01*
X1833943Y-74967539D01*
X1675309Y-75204952D01*
X1619604Y-75485000D01*
X1675309Y-75765048D01*
X1833943Y-76002461D01*
X2009853Y-76120000D01*
X1833943Y-76237539D01*
X1675309Y-76474952D01*
X1626072Y-76722482D01*
X661677Y-77686877D01*
X542018Y-77865958D01*
X527000Y-77941460D01*
X527000Y-72255869D01*
X608124Y-72336993D01*
X765065Y-72402000D01*
X1016250Y-72402000D01*
X1123000Y-72295250D01*
X1123000Y-71727000D01*
X1103000Y-71727000D01*
X1103000Y-71473000D01*
X1123000Y-71473000D01*
X1123000Y-70904750D01*
X1016250Y-70798000D01*
X765065Y-70798000D01*
X608124Y-70863007D01*
X527000Y-70944131D01*
X527000Y-70635365D01*
X1823000Y-70635365D01*
X1823000Y-70834478D01*
G36*
X5127000Y-24673000D02*
X5147000Y-24673000D01*
X5147000Y-24927000D01*
X5127000Y-24927000D01*
X5127000Y-24947000D01*
X4873000Y-24947000D01*
X4873000Y-24927000D01*
X4853000Y-24927000D01*
X4853000Y-24673000D01*
X4873000Y-24673000D01*
X4873000Y-24653000D01*
X5127000Y-24653000D01*
X5127000Y-24673000D01*
X5127000Y-24673000D01*
G37*
X5127000Y-24673000D02*
X5147000Y-24673000D01*
X5147000Y-24927000D01*
X5127000Y-24927000D01*
X5127000Y-24947000D01*
X4873000Y-24947000D01*
X4873000Y-24927000D01*
X4853000Y-24927000D01*
X4853000Y-24673000D01*
X4873000Y-24673000D01*
X4873000Y-24653000D01*
X5127000Y-24653000D01*
X5127000Y-24673000D01*
G36*
X8127000Y-9073000D02*
X8147000Y-9073000D01*
X8147000Y-9327000D01*
X8127000Y-9327000D01*
X8127000Y-9347000D01*
X7873000Y-9347000D01*
X7873000Y-9327000D01*
X7853000Y-9327000D01*
X7853000Y-9073000D01*
X7873000Y-9073000D01*
X7873000Y-9053000D01*
X8127000Y-9053000D01*
X8127000Y-9073000D01*
X8127000Y-9073000D01*
G37*
X8127000Y-9073000D02*
X8147000Y-9073000D01*
X8147000Y-9327000D01*
X8127000Y-9327000D01*
X8127000Y-9347000D01*
X7873000Y-9347000D01*
X7873000Y-9327000D01*
X7853000Y-9327000D01*
X7853000Y-9073000D01*
X7873000Y-9073000D01*
X7873000Y-9053000D01*
X8127000Y-9053000D01*
X8127000Y-9073000D01*
G36*
X-2254397Y-700148D02*
X-2326891Y-874735D01*
X-2327109Y-1124171D01*
X-2269865Y-1262711D01*
X-2753277Y-1107926D01*
X-2973000Y-1258985D01*
X-2973000Y-2373000D01*
X-2953000Y-2373000D01*
X-2953000Y-2627000D01*
X-2973000Y-2627000D01*
X-2973000Y-3741015D01*
X-2753277Y-3892074D01*
X-2232635Y-3725368D01*
X-2227000Y-3720597D01*
X-2227000Y-8737156D01*
X-2430012Y-8601507D01*
X-2885023Y-8511000D01*
X-3314977Y-8511000D01*
X-3769988Y-8601507D01*
X-4155727Y-8859250D01*
X-4413470Y-9244989D01*
X-4503977Y-9700000D01*
X-4413470Y-10155011D01*
X-4155727Y-10540750D01*
X-3769988Y-10798493D01*
X-3314977Y-10889000D01*
X-2885023Y-10889000D01*
X-2430012Y-10798493D01*
X-2227000Y-10662844D01*
X-2227000Y-10840141D01*
X-2231235Y-10844369D01*
X-2326891Y-11074735D01*
X-2327109Y-11324171D01*
X-2254397Y-11500148D01*
X-2326891Y-11674735D01*
X-2327109Y-11924171D01*
X-2254397Y-12100148D01*
X-2326171Y-12273000D01*
X-10773000Y-12273000D01*
X-10773000Y-10877000D01*
X-9800000Y-10877000D01*
X-9540923Y-10825466D01*
X-9321289Y-10678711D01*
X-8708923Y-10066345D01*
X-8588725Y-10016680D01*
X-8384039Y-9812350D01*
X-8273126Y-9545244D01*
X-8272874Y-9256025D01*
X-8383320Y-8988725D01*
X-8587650Y-8784039D01*
X-8854756Y-8673126D01*
X-9143975Y-8672874D01*
X-9411275Y-8783320D01*
X-9615961Y-8987650D01*
X-9666299Y-9108877D01*
X-10080422Y-9523000D01*
X-10773000Y-9523000D01*
X-10773000Y-8525000D01*
X-7072610Y-8525000D01*
X-7000143Y-8889315D01*
X-6793776Y-9198166D01*
X-6484925Y-9404533D01*
X-6120610Y-9477000D01*
X-5879390Y-9477000D01*
X-5515075Y-9404533D01*
X-5206224Y-9198166D01*
X-4999857Y-8889315D01*
X-4927390Y-8525000D01*
X-4999857Y-8160685D01*
X-5206224Y-7851834D01*
X-5515075Y-7645467D01*
X-5879390Y-7573000D01*
X-6120610Y-7573000D01*
X-6484925Y-7645467D01*
X-6793776Y-7851834D01*
X-7000143Y-8160685D01*
X-7072610Y-8525000D01*
X-10773000Y-8525000D01*
X-10773000Y-6383583D01*
X-10327161Y-6383583D01*
X-10186331Y-6724417D01*
X-9925789Y-6985414D01*
X-9585201Y-7126839D01*
X-9216417Y-7127161D01*
X-8875583Y-6986331D01*
X-8614586Y-6725789D01*
X-8473161Y-6385201D01*
X-8472964Y-6159676D01*
X-7735990Y-5422702D01*
X-7485201Y-5526839D01*
X-7116417Y-5527161D01*
X-6775583Y-5386331D01*
X-6514586Y-5125789D01*
X-6373161Y-4785201D01*
X-6372979Y-4576801D01*
X-6120610Y-4627000D01*
X-5879390Y-4627000D01*
X-5515075Y-4554533D01*
X-5206224Y-4348166D01*
X-4999857Y-4039315D01*
X-4927390Y-3675000D01*
X-4999857Y-3310685D01*
X-5206224Y-3001834D01*
X-5443831Y-2843070D01*
X-4642220Y-2843070D01*
X-4634849Y-2886083D01*
X-4384579Y-3372111D01*
X-3967365Y-3725368D01*
X-3446723Y-3892074D01*
X-3227000Y-3741015D01*
X-3227000Y-2627000D01*
X-4519720Y-2627000D01*
X-4642220Y-2843070D01*
X-5443831Y-2843070D01*
X-5515075Y-2795467D01*
X-5879390Y-2723000D01*
X-6120610Y-2723000D01*
X-6484925Y-2795467D01*
X-6793776Y-3001834D01*
X-7000143Y-3310685D01*
X-7072610Y-3675000D01*
X-7069210Y-3692091D01*
X-7114799Y-3673161D01*
X-7483583Y-3672839D01*
X-7824417Y-3813669D01*
X-8029820Y-4018714D01*
X-8039942Y-4020727D01*
X-8243356Y-4156644D01*
X-9359746Y-5273034D01*
X-9583583Y-5272839D01*
X-9924417Y-5413669D01*
X-10185414Y-5674211D01*
X-10326839Y-6014799D01*
X-10327161Y-6383583D01*
X-10773000Y-6383583D01*
X-10773000Y-3500000D01*
X-10783006Y-3450590D01*
X-10811447Y-3408965D01*
X-10853841Y-3381685D01*
X-10878741Y-3377000D01*
X-9900000Y-3377000D01*
X-9640923Y-3325466D01*
X-9421289Y-3178711D01*
X-8399508Y-2156930D01*
X-4642220Y-2156930D01*
X-4519720Y-2373000D01*
X-3227000Y-2373000D01*
X-3227000Y-1258985D01*
X-3446723Y-1107926D01*
X-3967365Y-1274632D01*
X-4384579Y-1627889D01*
X-4634849Y-2113917D01*
X-4642220Y-2156930D01*
X-8399508Y-2156930D01*
X-8321288Y-2078711D01*
X-8321286Y-2078708D01*
X-8208922Y-1966344D01*
X-8088725Y-1916680D01*
X-7884039Y-1712350D01*
X-7773126Y-1445244D01*
X-7772874Y-1156025D01*
X-7883320Y-888725D01*
X-8087650Y-684039D01*
X-8354756Y-573126D01*
X-8643975Y-572874D01*
X-8911275Y-683320D01*
X-9115961Y-887650D01*
X-9166299Y-1008877D01*
X-9278708Y-1121286D01*
X-9278711Y-1121288D01*
X-10180422Y-2023000D01*
X-10777328Y-2023000D01*
X-10773000Y-2000000D01*
X-10773000Y-527000D01*
X-2325940Y-527000D01*
X-2254397Y-700148D01*
X-2254397Y-700148D01*
G37*
X-2254397Y-700148D02*
X-2326891Y-874735D01*
X-2327109Y-1124171D01*
X-2269865Y-1262711D01*
X-2753277Y-1107926D01*
X-2973000Y-1258985D01*
X-2973000Y-2373000D01*
X-2953000Y-2373000D01*
X-2953000Y-2627000D01*
X-2973000Y-2627000D01*
X-2973000Y-3741015D01*
X-2753277Y-3892074D01*
X-2232635Y-3725368D01*
X-2227000Y-3720597D01*
X-2227000Y-8737156D01*
X-2430012Y-8601507D01*
X-2885023Y-8511000D01*
X-3314977Y-8511000D01*
X-3769988Y-8601507D01*
X-4155727Y-8859250D01*
X-4413470Y-9244989D01*
X-4503977Y-9700000D01*
X-4413470Y-10155011D01*
X-4155727Y-10540750D01*
X-3769988Y-10798493D01*
X-3314977Y-10889000D01*
X-2885023Y-10889000D01*
X-2430012Y-10798493D01*
X-2227000Y-10662844D01*
X-2227000Y-10840141D01*
X-2231235Y-10844369D01*
X-2326891Y-11074735D01*
X-2327109Y-11324171D01*
X-2254397Y-11500148D01*
X-2326891Y-11674735D01*
X-2327109Y-11924171D01*
X-2254397Y-12100148D01*
X-2326171Y-12273000D01*
X-10773000Y-12273000D01*
X-10773000Y-10877000D01*
X-9800000Y-10877000D01*
X-9540923Y-10825466D01*
X-9321289Y-10678711D01*
X-8708923Y-10066345D01*
X-8588725Y-10016680D01*
X-8384039Y-9812350D01*
X-8273126Y-9545244D01*
X-8272874Y-9256025D01*
X-8383320Y-8988725D01*
X-8587650Y-8784039D01*
X-8854756Y-8673126D01*
X-9143975Y-8672874D01*
X-9411275Y-8783320D01*
X-9615961Y-8987650D01*
X-9666299Y-9108877D01*
X-10080422Y-9523000D01*
X-10773000Y-9523000D01*
X-10773000Y-8525000D01*
X-7072610Y-8525000D01*
X-7000143Y-8889315D01*
X-6793776Y-9198166D01*
X-6484925Y-9404533D01*
X-6120610Y-9477000D01*
X-5879390Y-9477000D01*
X-5515075Y-9404533D01*
X-5206224Y-9198166D01*
X-4999857Y-8889315D01*
X-4927390Y-8525000D01*
X-4999857Y-8160685D01*
X-5206224Y-7851834D01*
X-5515075Y-7645467D01*
X-5879390Y-7573000D01*
X-6120610Y-7573000D01*
X-6484925Y-7645467D01*
X-6793776Y-7851834D01*
X-7000143Y-8160685D01*
X-7072610Y-8525000D01*
X-10773000Y-8525000D01*
X-10773000Y-6383583D01*
X-10327161Y-6383583D01*
X-10186331Y-6724417D01*
X-9925789Y-6985414D01*
X-9585201Y-7126839D01*
X-9216417Y-7127161D01*
X-8875583Y-6986331D01*
X-8614586Y-6725789D01*
X-8473161Y-6385201D01*
X-8472964Y-6159676D01*
X-7735990Y-5422702D01*
X-7485201Y-5526839D01*
X-7116417Y-5527161D01*
X-6775583Y-5386331D01*
X-6514586Y-5125789D01*
X-6373161Y-4785201D01*
X-6372979Y-4576801D01*
X-6120610Y-4627000D01*
X-5879390Y-4627000D01*
X-5515075Y-4554533D01*
X-5206224Y-4348166D01*
X-4999857Y-4039315D01*
X-4927390Y-3675000D01*
X-4999857Y-3310685D01*
X-5206224Y-3001834D01*
X-5443831Y-2843070D01*
X-4642220Y-2843070D01*
X-4634849Y-2886083D01*
X-4384579Y-3372111D01*
X-3967365Y-3725368D01*
X-3446723Y-3892074D01*
X-3227000Y-3741015D01*
X-3227000Y-2627000D01*
X-4519720Y-2627000D01*
X-4642220Y-2843070D01*
X-5443831Y-2843070D01*
X-5515075Y-2795467D01*
X-5879390Y-2723000D01*
X-6120610Y-2723000D01*
X-6484925Y-2795467D01*
X-6793776Y-3001834D01*
X-7000143Y-3310685D01*
X-7072610Y-3675000D01*
X-7069210Y-3692091D01*
X-7114799Y-3673161D01*
X-7483583Y-3672839D01*
X-7824417Y-3813669D01*
X-8029820Y-4018714D01*
X-8039942Y-4020727D01*
X-8243356Y-4156644D01*
X-9359746Y-5273034D01*
X-9583583Y-5272839D01*
X-9924417Y-5413669D01*
X-10185414Y-5674211D01*
X-10326839Y-6014799D01*
X-10327161Y-6383583D01*
X-10773000Y-6383583D01*
X-10773000Y-3500000D01*
X-10783006Y-3450590D01*
X-10811447Y-3408965D01*
X-10853841Y-3381685D01*
X-10878741Y-3377000D01*
X-9900000Y-3377000D01*
X-9640923Y-3325466D01*
X-9421289Y-3178711D01*
X-8399508Y-2156930D01*
X-4642220Y-2156930D01*
X-4519720Y-2373000D01*
X-3227000Y-2373000D01*
X-3227000Y-1258985D01*
X-3446723Y-1107926D01*
X-3967365Y-1274632D01*
X-4384579Y-1627889D01*
X-4634849Y-2113917D01*
X-4642220Y-2156930D01*
X-8399508Y-2156930D01*
X-8321288Y-2078711D01*
X-8321286Y-2078708D01*
X-8208922Y-1966344D01*
X-8088725Y-1916680D01*
X-7884039Y-1712350D01*
X-7773126Y-1445244D01*
X-7772874Y-1156025D01*
X-7883320Y-888725D01*
X-8087650Y-684039D01*
X-8354756Y-573126D01*
X-8643975Y-572874D01*
X-8911275Y-683320D01*
X-9115961Y-887650D01*
X-9166299Y-1008877D01*
X-9278708Y-1121286D01*
X-9278711Y-1121288D01*
X-10180422Y-2023000D01*
X-10777328Y-2023000D01*
X-10773000Y-2000000D01*
X-10773000Y-527000D01*
X-2325940Y-527000D01*
X-2254397Y-700148D01*
M02*
