G04 #@! TF.FileFunction,Profile,NP*
%FSLAX46Y46*%
G04 Gerber Fmt 4.6, Leading zero omitted, Abs format (unit mm)*
G04 Created by KiCad (PCBNEW 4.0.6) date 2018 April 18, Wednesday 08:04:54*
%MOMM*%
%LPD*%
G01*
G04 APERTURE LIST*
%ADD10C,0.100000*%
%ADD11C,0.200000*%
G04 APERTURE END LIST*
D10*
D11*
X0Y-3600000D02*
X3300000Y-3600000D01*
X0Y-9400000D02*
X0Y-3600000D01*
X0Y-9400000D02*
X3300000Y-9400000D01*
X-1200000Y-11000000D02*
X3300000Y-11000000D01*
X-2000000Y-10200000D02*
G75*
G03X-1200000Y-11000000I800000J0D01*
G01*
X-2000000Y-2800000D02*
X-2000000Y-10200000D01*
X-1200000Y-2000000D02*
G75*
G03X-2000000Y-2800000I0J-800000D01*
G01*
X-1200000Y-2000000D02*
X3300000Y-2000000D01*
X3300000Y-3600000D02*
G75*
G03X4100000Y-2800000I0J800000D01*
G01*
X4100000Y-2800000D02*
G75*
G03X3300000Y-2000000I-800000J0D01*
G01*
X4100000Y-10200000D02*
G75*
G03X3300000Y-9400000I-800000J0D01*
G01*
X3300000Y-11000000D02*
G75*
G03X4100000Y-10200000I0J800000D01*
G01*
X-11000000Y0D02*
X-11000000Y-1200000D01*
X-12600000Y0D02*
X-14700000Y0D01*
X-12600000Y0D02*
X-12600000Y-1200000D01*
X-12600000Y-1200000D02*
G75*
G03X-11800000Y-2000000I800000J0D01*
G01*
X-11800000Y-2000000D02*
G75*
G03X-11000000Y-1200000I0J800000D01*
G01*
X-11000000Y-11800000D02*
G75*
G03X-11800000Y-11000000I-800000J0D01*
G01*
X-12600000Y-8700000D02*
G75*
G03X-11800000Y-9500000I800000J0D01*
G01*
X-11800000Y-9500000D02*
G75*
G03X-11000000Y-8700000I0J800000D01*
G01*
X-12600000Y-8700000D02*
X-12600000Y-4300000D01*
X-11000000Y-4300000D02*
G75*
G03X-11800000Y-3500000I-800000J0D01*
G01*
X-11800000Y-3500000D02*
G75*
G03X-12600000Y-4300000I0J-800000D01*
G01*
X-11000000Y-8700000D02*
X-11000000Y-4300000D01*
X-14700000Y-11000000D02*
X-11800000Y-11000000D01*
X-11000000Y-11800000D02*
X-11000000Y-12800000D01*
X0Y-12800000D02*
X0Y-108000000D01*
X0Y-12800000D02*
X-11000000Y-12800000D01*
X-14700000Y0D02*
X-14700000Y-11000000D01*
X10000000Y-108000000D02*
X0Y-108000000D01*
X10000000Y0D02*
X10000000Y-108000000D01*
X-11000000Y0D02*
X10000000Y0D01*
M02*
