M48
;DRILL file {KiCad 4.0.6} date 2018 April 18, Wednesday 08:04:56
;FORMAT={-:-/ absolute / inch / decimal}
FMAT,2
INCH,TZ
T1C0.016
T2C0.020
T3C0.024
T4C0.026
T5C0.028
T6C0.035
T7C0.039
%
G90
G05
M72
T1
X-0.3543Y-0.3701
X-0.3346Y-0.0512
X0.0276Y-3.0394
X0.0276Y-3.4528
X0.0276Y-3.4764
X0.0512Y-3.4528
X0.0512Y-3.4764
X0.0512Y-3.7264
X0.0512Y-3.75
X0.0512Y-3.7736
X0.0797Y-3.1695
X0.0906Y-3.2087
X0.1154Y-3.4804
X0.1191Y-3.3806
X0.1555Y-3.1254
X0.1555Y-3.1594
X0.1575Y-3.2008
X0.1594Y-3.4134
X0.1614Y-3.2953
X0.1675Y-3.0191
X0.1772Y-0.3268
X0.1772Y-3.2795
X0.1791Y-0.2106
X0.1929Y-3.2638
X0.1969Y-0.2939
X0.2008Y-1.1575
X0.2067Y-0.4685
X0.2108Y-3.2498
X0.2128Y-3.2183
X0.2244Y-2.9055
X0.2264Y-3.067
X0.2283Y-0.2953
X0.2362Y-0.4843
X0.2383Y-3.3152
X0.2414Y-3.3671
X0.247Y-0.323
X0.2618Y-3.8114
X0.2624Y-0.5017
X0.2677Y-0.0709
X0.2795Y-3.0512
X0.2795Y-3.0748
X0.2874Y-2.3268
X0.2874Y-2.3504
X0.2874Y-2.374
X0.2874Y-2.3976
X0.2874Y-2.4213
X0.2874Y-2.4449
X0.2874Y-2.4685
X0.2874Y-2.4921
X0.3028Y-2.9806
X0.3031Y-0.063
X0.3031Y-3.0512
X0.3031Y-3.0748
X0.315Y-2.0512
X0.3218Y-3.2508
X0.3228Y-0.248
X0.3245Y-3.7477
X0.3248Y-3.7126
X0.3258Y-3.1114
X0.3307Y-0.1811
X0.3307Y-0.937
X0.3307Y-1.5433
X0.3307Y-2.8484
X0.3543Y-1.0079
T3
X-0.3701Y-0.2441
X-0.2874Y-0.1811
X0.0276Y-2.5453
X0.3238Y-3.4391
T5
X0.2697Y-2.6575
X0.3287Y-2.6575
T6
X0.315Y-0.3622
X0.315Y-0.4622
T7
X0.0945Y-4.0969
X0.0945Y-4.1969
X0.0984Y-3.8665
X0.0984Y-3.9665
X0.1945Y-4.0969
X0.1945Y-4.1969
X0.1969Y-3.8665
X0.1969Y-3.9665
X0.2945Y-4.0969
X0.2945Y-4.1969
X0.2953Y-3.8665
X0.2953Y-3.9665
T2
X0.1772Y-0.5543G85X0.2165Y-0.5543
G05
X0.1772Y-1.0661G85X0.2165Y-1.0661
G05
X0.1772Y-1.578G85X0.2165Y-1.578
G05
X0.1772Y-2.0898G85X0.2165Y-2.0898
G05
T3
X0.1791Y-0.8811G85X0.2146Y-0.8811
G05
X0.1831Y-0.9764G85X0.2106Y-0.9764
G05
X0.1791Y-1.3929G85X0.2146Y-1.3929
G05
X0.1831Y-1.4882G85X0.2106Y-1.4882
G05
X0.1791Y-1.9047G85X0.2146Y-1.9047
G05
X0.1831Y-2.G85X0.2106Y-2.
G05
X0.1791Y-2.4165G85X0.2146Y-2.4165
G05
X0.1831Y-2.5118G85X0.2106Y-2.5118
G05
T4
X-0.2323Y-0.1447G85X-0.2402Y-0.1447
G05
X-0.2323Y-0.3356G85X-0.2402Y-0.3356
G05
X-0.1053Y-0.0984G85X-0.1388Y-0.0984
G05
X-0.1053Y-0.3819G85X-0.1388Y-0.3819
G05
T0
M30
