G04 #@! TF.FileFunction,Copper,L2,Bot,Signal*
%FSLAX46Y46*%
G04 Gerber Fmt 4.6, Leading zero omitted, Abs format (unit mm)*
G04 Created by KiCad (PCBNEW 4.0.6) date 2018 April 18, Wednesday 08:04:54*
%MOMM*%
%LPD*%
G01*
G04 APERTURE LIST*
%ADD10C,0.100000*%
%ADD11R,1.300000X1.300000*%
%ADD12C,1.300000*%
%ADD13R,1.800000X1.800000*%
%ADD14C,1.800000*%
%ADD15O,1.900000X1.524000*%
%ADD16R,1.900000X1.800000*%
%ADD17C,0.500000*%
%ADD18R,1.900000X1.850000*%
%ADD19R,1.400000X0.250000*%
%ADD20R,1.400000X0.400000*%
%ADD21O,1.250000X1.050000*%
%ADD22R,1.000000X0.550000*%
%ADD23R,0.550000X1.000000*%
%ADD24O,2.500000X1.500000*%
%ADD25O,2.500000X1.600000*%
%ADD26O,2.400000X1.600000*%
%ADD27R,1.700000X1.700000*%
%ADD28O,1.700000X1.700000*%
%ADD29R,1.500000X1.000000*%
%ADD30R,1.000000X1.500000*%
%ADD31C,0.600000*%
%ADD32C,1.000000*%
%ADD33C,0.250000*%
%ADD34C,0.500000*%
%ADD35C,0.400000*%
%ADD36C,0.254000*%
G04 APERTURE END LIST*
D10*
D11*
X6850000Y-67500000D03*
D12*
X8350000Y-67500000D03*
D13*
X8000000Y-9200000D03*
D14*
X8000000Y-11740000D03*
D15*
X-3100000Y-2500000D03*
D16*
X-3100000Y-4950000D03*
X-3100000Y-7250000D03*
D15*
X-3100000Y-9700000D03*
D17*
X-3800000Y-1650000D03*
X-2400000Y-1650000D03*
X-3800000Y-10550000D03*
X-2400000Y-10550000D03*
D18*
X-3100000Y-2575000D03*
X-3100000Y-9625000D03*
D19*
X-3100000Y-1525000D03*
X-3100000Y-10675000D03*
D20*
X-5800000Y-4800000D03*
X-5800000Y-5450000D03*
X-5800000Y-6100000D03*
X-5800000Y-6750000D03*
X-5800000Y-7400000D03*
D21*
X-6000000Y-3675000D03*
X-6000000Y-8525000D03*
D22*
X-7400000Y-1200000D03*
X-5000000Y-1200000D03*
D23*
X-8100000Y-9300000D03*
X-8100000Y-11700000D03*
D24*
X5000000Y-14080000D03*
D25*
X5000000Y-22380000D03*
D26*
X5000000Y-24800000D03*
D24*
X5000000Y-27080000D03*
D25*
X5000000Y-35380000D03*
D26*
X5000000Y-37800000D03*
D24*
X5000000Y-40080000D03*
D25*
X5000000Y-48380000D03*
D26*
X5000000Y-50800000D03*
D24*
X5000000Y-53080000D03*
D25*
X5000000Y-61380000D03*
D26*
X5000000Y-63800000D03*
D27*
X7480000Y-104060000D03*
D28*
X7480000Y-106600000D03*
X4940000Y-104060000D03*
X4940000Y-106600000D03*
X2400000Y-104060000D03*
X2400000Y-106600000D03*
D27*
X7500000Y-100750000D03*
D28*
X7500000Y-98210000D03*
D27*
X5000000Y-100750000D03*
D28*
X5000000Y-98210000D03*
D27*
X2500000Y-100750000D03*
D28*
X2500000Y-98210000D03*
D29*
X-13600000Y-10000000D03*
X-13600000Y-3000000D03*
X4800000Y-10000000D03*
X4800000Y-2800000D03*
D30*
X1300000Y-5300000D03*
X1300000Y-7600000D03*
D31*
X6275032Y-8204654D03*
D32*
X8224990Y-87352005D03*
X700000Y-64650000D03*
X-9400000Y-6200000D03*
X-7300000Y-4600000D03*
D31*
X1300000Y-87700000D03*
X700000Y-87700004D03*
X1300000Y-88300000D03*
X700000Y-88300000D03*
X4100000Y-83700000D03*
X4500000Y-83300000D03*
X4900000Y-82900000D03*
X7100000Y-77500000D03*
X7700000Y-77500000D03*
X7700000Y-78100000D03*
X7100004Y-78100000D03*
X7300000Y-60900000D03*
X7300000Y-59100000D03*
X7300000Y-59700000D03*
X7300000Y-60300000D03*
X7300000Y-61500000D03*
X7300000Y-62100000D03*
X7300000Y-62700000D03*
X7300000Y-63300000D03*
X700000Y-77200000D03*
X1300000Y-95850000D03*
X1300000Y-95250000D03*
X1300000Y-94650000D03*
X5354541Y-82543864D03*
X2930631Y-88400928D03*
X8174990Y-82571366D03*
X6132473Y-85525010D03*
X4050000Y-86699998D03*
X8275021Y-79029595D03*
X6051669Y-84207292D03*
X8400000Y-39200000D03*
X4254876Y-76684969D03*
X6650000Y-96810000D03*
X3023972Y-85867126D03*
X5404660Y-81745424D03*
X2024078Y-80505524D03*
X5750054Y-77901688D03*
X2300000Y-81500000D03*
X8000000Y-52100000D03*
X7691949Y-75708051D03*
X5700000Y-73800000D03*
X8250000Y-94300000D03*
X5100000Y-29400000D03*
X8241949Y-95191949D03*
X8400000Y-72350000D03*
X9000000Y-25600000D03*
X3950010Y-80248281D03*
X8400000Y-4600000D03*
X6000000Y-12300000D03*
X5000732Y-7465521D03*
X4000000Y-81300002D03*
X8200000Y-6300000D03*
X6665652Y-12743763D03*
X5800000Y-7500000D03*
X-8500000Y-1300000D03*
X-9000000Y-9400000D03*
X8400000Y-23800000D03*
X6800000Y-1800000D03*
X4550000Y-5350000D03*
X3950010Y-79383975D03*
X5250000Y-11900000D03*
X4499977Y-8300000D03*
X7700000Y-1600000D03*
D33*
X8224990Y-87352005D02*
X7574999Y-88001996D01*
X7574999Y-88001996D02*
X7574999Y-95450001D01*
X7574999Y-95450001D02*
X9590679Y-97465681D01*
X9590679Y-97465681D02*
X9590679Y-99009321D01*
X9590679Y-99009321D02*
X7850000Y-100750000D01*
X7850000Y-100750000D02*
X7500000Y-100750000D01*
X7480000Y-106600000D02*
X7500000Y-106600000D01*
X8655300Y-105444700D02*
X8655300Y-102455300D01*
X7500000Y-106600000D02*
X8655300Y-105444700D01*
X8655300Y-102455300D02*
X7500000Y-101300000D01*
X7500000Y-101300000D02*
X7500000Y-100750000D01*
D34*
X6642003Y-87352005D02*
X7517884Y-87352005D01*
X3200000Y-83910002D02*
X6642003Y-87352005D01*
X3200000Y-78600000D02*
X3200000Y-83910002D01*
X700000Y-76100000D02*
X3200000Y-78600000D01*
X7517884Y-87352005D02*
X8224990Y-87352005D01*
X700000Y-64650000D02*
X700000Y-76100000D01*
D33*
X5050000Y-10000000D02*
X6275032Y-8774968D01*
X4800000Y-10000000D02*
X5050000Y-10000000D01*
X6275032Y-8774968D02*
X6275032Y-8204654D01*
D34*
X4800000Y-10000000D02*
X4800000Y-11100000D01*
X4800000Y-11100000D02*
X4400000Y-11500000D01*
X4400000Y-11500000D02*
X3473697Y-11500000D01*
X3473697Y-11500000D02*
X3423697Y-11550000D01*
X3423697Y-11550000D02*
X3400000Y-11550000D01*
X3400000Y-11550000D02*
X700000Y-14250000D01*
X700000Y-14250000D02*
X700000Y-64650000D01*
D35*
X-10000000Y-9600000D02*
X-10400000Y-10000000D01*
X-10400000Y-10000000D02*
X-13600000Y-10000000D01*
X-10000000Y-6800000D02*
X-10000000Y-9600000D01*
X-9400000Y-6200000D02*
X-10000000Y-6800000D01*
X-5800000Y-4800000D02*
X-7100000Y-4800000D01*
X-7100000Y-4800000D02*
X-7300000Y-4600000D01*
D33*
X700000Y-88300000D02*
X1300000Y-88300000D01*
X4900000Y-82900000D02*
X4500000Y-83300000D01*
X7700000Y-77500000D02*
X7100000Y-77500000D01*
X7100004Y-78100000D02*
X7700000Y-78100000D01*
X7100004Y-78524264D02*
X7100004Y-78100000D01*
X5778805Y-82543864D02*
X7100004Y-81222665D01*
X7100004Y-81222665D02*
X7100004Y-78524264D01*
X5354541Y-82543864D02*
X5778805Y-82543864D01*
X7300000Y-60300000D02*
X7300000Y-60900000D01*
X7300000Y-59700000D02*
X7300000Y-59100000D01*
X7300000Y-62100000D02*
X7300000Y-61500000D01*
X7300000Y-63300000D02*
X7300000Y-62700000D01*
X1300000Y-95250000D02*
X1300000Y-95850000D01*
X-5000000Y-1200000D02*
X-5750000Y-1200000D01*
X-5750000Y-1200000D02*
X-6350001Y-599999D01*
X-6350001Y-599999D02*
X-9449999Y-599999D01*
D34*
X9350001Y-12999999D02*
X8550000Y-13800000D01*
X8350000Y-9200000D02*
X9350001Y-10200001D01*
X9350001Y-10200001D02*
X9350001Y-12999999D01*
X8000000Y-9200000D02*
X8350000Y-9200000D01*
D33*
X2930631Y-88400928D02*
X2930631Y-88825192D01*
X2930631Y-88825192D02*
X3310000Y-89204561D01*
X3310000Y-89204561D02*
X3310000Y-95270000D01*
X3310000Y-95270000D02*
X920000Y-97660000D01*
X920000Y-97660000D02*
X920000Y-102560000D01*
X920000Y-102560000D02*
X2400000Y-104040000D01*
X2400000Y-104040000D02*
X2400000Y-104060000D01*
X8174990Y-83482493D02*
X8174990Y-82995630D01*
X8174990Y-82995630D02*
X8174990Y-82571366D01*
X6132473Y-85525010D02*
X8174990Y-83482493D01*
X8575020Y-78729596D02*
X8275021Y-79029595D01*
X6942619Y-76417615D02*
X7400003Y-76874999D01*
X5424988Y-71124988D02*
X6942619Y-72642619D01*
X8575020Y-77450018D02*
X8575020Y-78729596D01*
X5424988Y-66188601D02*
X5424988Y-71124988D01*
X5763589Y-65850000D02*
X5424988Y-66188601D01*
X6572822Y-65850000D02*
X5763589Y-65850000D01*
X8000001Y-76874999D02*
X8575020Y-77450018D01*
X6942619Y-72642619D02*
X6942619Y-76417615D01*
X8699999Y-63722823D02*
X6572822Y-65850000D01*
X7400003Y-76874999D02*
X8000001Y-76874999D01*
X8699999Y-39499999D02*
X8699999Y-63722823D01*
X8400000Y-39200000D02*
X8699999Y-39499999D01*
X4940000Y-106600000D02*
X6260000Y-105280000D01*
X6260000Y-105280000D02*
X6260000Y-97575002D01*
X6260000Y-97575002D02*
X6024999Y-97340001D01*
X6024999Y-97340001D02*
X6024999Y-88674997D01*
X6024999Y-88674997D02*
X4349999Y-86999997D01*
X4349999Y-86999997D02*
X4050000Y-86699998D01*
X8275021Y-81088569D02*
X8275021Y-79453859D01*
X8275021Y-79453859D02*
X8275021Y-79029595D01*
X6051669Y-83311921D02*
X8275021Y-81088569D01*
X6051669Y-84207292D02*
X6051669Y-83311921D01*
X4554875Y-76984968D02*
X4254876Y-76684969D01*
X5125044Y-77555137D02*
X4554875Y-76984968D01*
X5404660Y-81745424D02*
X5704659Y-81445425D01*
X5704659Y-81445425D02*
X5704659Y-78940800D01*
X5704659Y-78940800D02*
X5125044Y-78361185D01*
X5125044Y-78361185D02*
X5125044Y-77555137D01*
X6650000Y-96385736D02*
X6650000Y-96810000D01*
X6650000Y-88374996D02*
X6650000Y-96385736D01*
X4142130Y-85867126D02*
X6650000Y-88374996D01*
X3023972Y-85867126D02*
X4142130Y-85867126D01*
X4940000Y-104060000D02*
X3790000Y-102910000D01*
X3790000Y-102910000D02*
X3790000Y-88376411D01*
X3790000Y-88376411D02*
X1624999Y-86211410D01*
X1624999Y-86211410D02*
X1624999Y-80904603D01*
X1624999Y-80904603D02*
X1724079Y-80805523D01*
X1724079Y-80805523D02*
X2024078Y-80505524D01*
X6386422Y-65399989D02*
X5577189Y-65399989D01*
X5577189Y-65399989D02*
X4974977Y-66002201D01*
X8000000Y-52100000D02*
X8000000Y-63786411D01*
X6325001Y-77326741D02*
X6050053Y-77601689D01*
X6050053Y-77601689D02*
X5750054Y-77901688D01*
X4974977Y-66002201D02*
X4974977Y-72149975D01*
X8000000Y-63786411D02*
X6386422Y-65399989D01*
X6325001Y-73499999D02*
X6325001Y-77326741D01*
X4974977Y-72149975D02*
X6325001Y-73499999D01*
X5000000Y-88950000D02*
X5000000Y-98200000D01*
X2300000Y-86250000D02*
X5000000Y-88950000D01*
X2300000Y-81500000D02*
X2300000Y-86250000D01*
X7991948Y-76008050D02*
X7691949Y-75708051D01*
X9050000Y-77066102D02*
X7991948Y-76008050D01*
X9050000Y-93500000D02*
X9050000Y-77066102D01*
X8250000Y-94300000D02*
X9050000Y-93500000D01*
X4524966Y-72624966D02*
X5400001Y-73500001D01*
X4524966Y-65815801D02*
X4524966Y-72624966D01*
X5390789Y-64949978D02*
X4524966Y-65815801D01*
X6575010Y-64574990D02*
X6200022Y-64949978D01*
X5100000Y-29400000D02*
X6575010Y-30875010D01*
X5400001Y-73500001D02*
X5700000Y-73800000D01*
X6200022Y-64949978D02*
X5390789Y-64949978D01*
X6575010Y-30875010D02*
X6575010Y-64574990D01*
X8541948Y-94891950D02*
X8241949Y-95191949D01*
X9549999Y-93883899D02*
X8541948Y-94891950D01*
X8400000Y-74524998D02*
X9549999Y-75674997D01*
X9549999Y-75674997D02*
X9549999Y-93883899D01*
X8400000Y-72350000D02*
X8400000Y-74524998D01*
X9299999Y-63759234D02*
X6759222Y-66300011D01*
X9299999Y-25899999D02*
X9299999Y-63759234D01*
X5874999Y-66375001D02*
X5874999Y-69824999D01*
X5949989Y-66300011D02*
X5874999Y-66375001D01*
X6759222Y-66300011D02*
X5949989Y-66300011D01*
X8100001Y-72050001D02*
X8400000Y-72350000D01*
X5874999Y-69824999D02*
X8100001Y-72050001D01*
X9000000Y-25600000D02*
X9299999Y-25899999D01*
X5745021Y-12554979D02*
X3868317Y-12554979D01*
X2974979Y-13448317D02*
X2974979Y-76925381D01*
X4225022Y-78733985D02*
X4575011Y-79083974D01*
X4374274Y-80248281D02*
X3950010Y-80248281D01*
X4575011Y-80047544D02*
X4374274Y-80248281D01*
X4225022Y-78175423D02*
X4225022Y-78733985D01*
X2974979Y-76925381D02*
X4225022Y-78175423D01*
X3868317Y-12554979D02*
X2974979Y-13448317D01*
X4575011Y-79083974D02*
X4575011Y-80047544D01*
X6000000Y-12300000D02*
X5745021Y-12554979D01*
X7975736Y-4600000D02*
X8400000Y-4600000D01*
X7774996Y-4600000D02*
X7975736Y-4600000D01*
X5000732Y-7374264D02*
X7774996Y-4600000D01*
X5000732Y-7465521D02*
X5000732Y-7374264D01*
X5025022Y-80274980D02*
X4299999Y-81000003D01*
X5025022Y-78897574D02*
X5025022Y-80274980D01*
X4675033Y-77989023D02*
X4675033Y-78547585D01*
X3424990Y-76738981D02*
X4675033Y-77989023D01*
X6404425Y-13004990D02*
X4054717Y-13004990D01*
X4675033Y-78547585D02*
X5025022Y-78897574D01*
X3424990Y-13634717D02*
X3424990Y-76738981D01*
X6665652Y-12743763D02*
X6404425Y-13004990D01*
X4299999Y-81000003D02*
X4000000Y-81300002D01*
X4054717Y-13004990D02*
X3424990Y-13634717D01*
X7775736Y-6300000D02*
X8200000Y-6300000D01*
X7000000Y-6300000D02*
X7775736Y-6300000D01*
X5800000Y-7500000D02*
X7000000Y-6300000D01*
X-7400000Y-1200000D02*
X-8400000Y-1200000D01*
X-8400000Y-1200000D02*
X-8500000Y-1300000D01*
X-8500000Y-1724264D02*
X-8500000Y-1300000D01*
X-8500000Y-4621004D02*
X-8500000Y-1724264D01*
X-5800000Y-5450000D02*
X-7671004Y-5450000D01*
X-7671004Y-5450000D02*
X-8500000Y-4621004D01*
D34*
X-9000000Y-9400000D02*
X-8200000Y-9400000D01*
X-8200000Y-9400000D02*
X-8100000Y-9300000D01*
D33*
X-5800000Y-6100000D02*
X-6750000Y-6100000D01*
X-6750000Y-6100000D02*
X-8100000Y-7450000D01*
X-8100000Y-8550000D02*
X-8100000Y-9300000D01*
X-8100000Y-7450000D02*
X-8100000Y-8550000D01*
X8400000Y-23375736D02*
X8400000Y-23800000D01*
X8400000Y-18480000D02*
X8400000Y-23375736D01*
X5000000Y-15080000D02*
X8400000Y-18480000D01*
X5000000Y-14080000D02*
X5000000Y-15080000D01*
X1300000Y-7600000D02*
X2050000Y-7600000D01*
X3573668Y-6076332D02*
X4778354Y-6076332D01*
X2050000Y-7600000D02*
X3573668Y-6076332D01*
X4778354Y-6076332D02*
X6800000Y-4054686D01*
X6800000Y-4054686D02*
X6800000Y-1800000D01*
X4500000Y-5300000D02*
X4550000Y-5350000D01*
X1300000Y-5300000D02*
X4500000Y-5300000D01*
X3775011Y-79208976D02*
X3950010Y-79383975D01*
X2524968Y-13261917D02*
X2524968Y-77111780D01*
X2524968Y-77111780D02*
X3775011Y-78361823D01*
X4620768Y-12104968D02*
X3681917Y-12104968D01*
X3775011Y-78361823D02*
X3775011Y-79208976D01*
X3681917Y-12104968D02*
X2524968Y-13261917D01*
X5250000Y-11900000D02*
X4825736Y-11900000D01*
X4825736Y-11900000D02*
X4620768Y-12104968D01*
X4199978Y-7341271D02*
X4199978Y-8000001D01*
X4700730Y-6840519D02*
X4199978Y-7341271D01*
X7700000Y-4038585D02*
X4898066Y-6840519D01*
X4898066Y-6840519D02*
X4700730Y-6840519D01*
X4199978Y-8000001D02*
X4499977Y-8300000D01*
X7700000Y-1600000D02*
X7700000Y-4038585D01*
D36*
G36*
X529677Y-102950323D02*
X1204518Y-103625164D01*
X1123000Y-104034982D01*
X1123000Y-104085018D01*
X1220206Y-104573705D01*
X1497025Y-104987993D01*
X1911313Y-105264812D01*
X2272998Y-105336756D01*
X2272998Y-105436661D01*
X2075787Y-105364842D01*
X1755858Y-105497349D01*
X1382924Y-105827786D01*
X1164831Y-106275785D01*
X1236070Y-106473000D01*
X2273000Y-106473000D01*
X2273000Y-106453000D01*
X2527000Y-106453000D01*
X2527000Y-106473000D01*
X2547000Y-106473000D01*
X2547000Y-106727000D01*
X2527000Y-106727000D01*
X2527000Y-106747000D01*
X2273000Y-106747000D01*
X2273000Y-106727000D01*
X1236070Y-106727000D01*
X1164831Y-106924215D01*
X1382924Y-107372214D01*
X1496672Y-107473000D01*
X527000Y-107473000D01*
X527000Y-102946317D01*
X529677Y-102950323D01*
X529677Y-102950323D01*
G37*
X529677Y-102950323D02*
X1204518Y-103625164D01*
X1123000Y-104034982D01*
X1123000Y-104085018D01*
X1220206Y-104573705D01*
X1497025Y-104987993D01*
X1911313Y-105264812D01*
X2272998Y-105336756D01*
X2272998Y-105436661D01*
X2075787Y-105364842D01*
X1755858Y-105497349D01*
X1382924Y-105827786D01*
X1164831Y-106275785D01*
X1236070Y-106473000D01*
X2273000Y-106473000D01*
X2273000Y-106453000D01*
X2527000Y-106453000D01*
X2527000Y-106473000D01*
X2547000Y-106473000D01*
X2547000Y-106727000D01*
X2527000Y-106727000D01*
X2527000Y-106747000D01*
X2273000Y-106747000D01*
X2273000Y-106727000D01*
X1236070Y-106727000D01*
X1164831Y-106924215D01*
X1382924Y-107372214D01*
X1496672Y-107473000D01*
X527000Y-107473000D01*
X527000Y-102946317D01*
X529677Y-102950323D01*
G36*
X9038679Y-97694327D02*
X9038679Y-98780675D01*
X8353924Y-99465430D01*
X8350000Y-99464635D01*
X7627002Y-99464635D01*
X7627002Y-99373339D01*
X7824213Y-99445158D01*
X8144142Y-99312651D01*
X8517076Y-98982214D01*
X8735169Y-98534215D01*
X8663930Y-98337000D01*
X7627000Y-98337000D01*
X7627000Y-98357000D01*
X7373000Y-98357000D01*
X7373000Y-98337000D01*
X7353000Y-98337000D01*
X7353000Y-98083000D01*
X7373000Y-98083000D01*
X7373000Y-97046662D01*
X7627000Y-97046662D01*
X7627000Y-98083000D01*
X8663930Y-98083000D01*
X8735169Y-97885785D01*
X8517076Y-97437786D01*
X8144142Y-97107349D01*
X7824213Y-96974842D01*
X7627000Y-97046662D01*
X7373000Y-97046662D01*
X7343391Y-97035879D01*
X7376874Y-96955244D01*
X7377126Y-96666025D01*
X7266680Y-96398725D01*
X7202000Y-96333932D01*
X7202000Y-95857648D01*
X9038679Y-97694327D01*
X9038679Y-97694327D01*
G37*
X9038679Y-97694327D02*
X9038679Y-98780675D01*
X8353924Y-99465430D01*
X8350000Y-99464635D01*
X7627002Y-99464635D01*
X7627002Y-99373339D01*
X7824213Y-99445158D01*
X8144142Y-99312651D01*
X8517076Y-98982214D01*
X8735169Y-98534215D01*
X8663930Y-98337000D01*
X7627000Y-98337000D01*
X7627000Y-98357000D01*
X7373000Y-98357000D01*
X7373000Y-98337000D01*
X7353000Y-98337000D01*
X7353000Y-98083000D01*
X7373000Y-98083000D01*
X7373000Y-97046662D01*
X7627000Y-97046662D01*
X7627000Y-98083000D01*
X8663930Y-98083000D01*
X8735169Y-97885785D01*
X8517076Y-97437786D01*
X8144142Y-97107349D01*
X7824213Y-96974842D01*
X7627000Y-97046662D01*
X7373000Y-97046662D01*
X7343391Y-97035879D01*
X7376874Y-96955244D01*
X7377126Y-96666025D01*
X7266680Y-96398725D01*
X7202000Y-96333932D01*
X7202000Y-95857648D01*
X9038679Y-97694327D01*
G36*
X2523000Y-78880422D02*
X2523000Y-79976286D01*
X2436428Y-79889563D01*
X2169322Y-79778650D01*
X1880103Y-79778398D01*
X1612803Y-79888844D01*
X1408117Y-80093174D01*
X1297204Y-80360280D01*
X1297124Y-80451832D01*
X1234676Y-80514280D01*
X1115017Y-80693361D01*
X1099201Y-80772874D01*
X1072999Y-80904603D01*
X1072999Y-86211410D01*
X1115017Y-86422652D01*
X1234676Y-86601733D01*
X2468229Y-87835286D01*
X2314670Y-87988578D01*
X2203757Y-88255684D01*
X2203505Y-88544903D01*
X2313951Y-88812203D01*
X2391499Y-88889886D01*
X2420649Y-89036434D01*
X2540308Y-89215515D01*
X2758000Y-89433207D01*
X2758000Y-95041354D01*
X529677Y-97269677D01*
X527000Y-97273683D01*
X527000Y-76884422D01*
X2523000Y-78880422D01*
X2523000Y-78880422D01*
G37*
X2523000Y-78880422D02*
X2523000Y-79976286D01*
X2436428Y-79889563D01*
X2169322Y-79778650D01*
X1880103Y-79778398D01*
X1612803Y-79888844D01*
X1408117Y-80093174D01*
X1297204Y-80360280D01*
X1297124Y-80451832D01*
X1234676Y-80514280D01*
X1115017Y-80693361D01*
X1099201Y-80772874D01*
X1072999Y-80904603D01*
X1072999Y-86211410D01*
X1115017Y-86422652D01*
X1234676Y-86601733D01*
X2468229Y-87835286D01*
X2314670Y-87988578D01*
X2203757Y-88255684D01*
X2203505Y-88544903D01*
X2313951Y-88812203D01*
X2391499Y-88889886D01*
X2420649Y-89036434D01*
X2540308Y-89215515D01*
X2758000Y-89433207D01*
X2758000Y-95041354D01*
X529677Y-97269677D01*
X527000Y-97273683D01*
X527000Y-76884422D01*
X2523000Y-78880422D01*
G36*
X7009680Y-77265322D02*
X7188761Y-77384981D01*
X7400003Y-77426999D01*
X7771355Y-77426999D01*
X8023020Y-77678664D01*
X8023020Y-78347104D01*
X7863746Y-78412915D01*
X7659060Y-78617245D01*
X7548147Y-78884351D01*
X7547895Y-79173570D01*
X7658341Y-79440870D01*
X7723021Y-79505663D01*
X7723021Y-80859923D01*
X5661346Y-82921598D01*
X5541687Y-83100679D01*
X5515367Y-83233002D01*
X5499669Y-83311921D01*
X5499669Y-83731092D01*
X5435708Y-83794942D01*
X5324795Y-84062048D01*
X5324543Y-84351267D01*
X5434989Y-84618567D01*
X5639319Y-84823253D01*
X5782854Y-84882854D01*
X5721198Y-84908330D01*
X5516512Y-85112660D01*
X5470614Y-85223194D01*
X3877000Y-83629580D01*
X3877000Y-82026895D01*
X4143975Y-82027128D01*
X4411275Y-81916682D01*
X4615961Y-81712352D01*
X4726874Y-81445246D01*
X4726954Y-81353694D01*
X5152659Y-80927989D01*
X5152659Y-81062933D01*
X4993385Y-81128744D01*
X4788699Y-81333074D01*
X4677786Y-81600180D01*
X4677534Y-81889399D01*
X4787980Y-82156699D01*
X4992310Y-82361385D01*
X5259416Y-82472298D01*
X5548635Y-82472550D01*
X5815935Y-82362104D01*
X6020621Y-82157774D01*
X6131534Y-81890668D01*
X6131630Y-81780901D01*
X6214641Y-81656667D01*
X6256659Y-81445425D01*
X6256659Y-78940800D01*
X6214641Y-78729559D01*
X6094982Y-78550477D01*
X6091660Y-78547155D01*
X6161329Y-78518368D01*
X6366015Y-78314038D01*
X6476928Y-78046932D01*
X6477008Y-77955380D01*
X6715324Y-77717064D01*
X6834983Y-77537983D01*
X6877001Y-77326741D01*
X6877001Y-77132643D01*
X7009680Y-77265322D01*
X7009680Y-77265322D01*
G37*
X7009680Y-77265322D02*
X7188761Y-77384981D01*
X7400003Y-77426999D01*
X7771355Y-77426999D01*
X8023020Y-77678664D01*
X8023020Y-78347104D01*
X7863746Y-78412915D01*
X7659060Y-78617245D01*
X7548147Y-78884351D01*
X7547895Y-79173570D01*
X7658341Y-79440870D01*
X7723021Y-79505663D01*
X7723021Y-80859923D01*
X5661346Y-82921598D01*
X5541687Y-83100679D01*
X5515367Y-83233002D01*
X5499669Y-83311921D01*
X5499669Y-83731092D01*
X5435708Y-83794942D01*
X5324795Y-84062048D01*
X5324543Y-84351267D01*
X5434989Y-84618567D01*
X5639319Y-84823253D01*
X5782854Y-84882854D01*
X5721198Y-84908330D01*
X5516512Y-85112660D01*
X5470614Y-85223194D01*
X3877000Y-83629580D01*
X3877000Y-82026895D01*
X4143975Y-82027128D01*
X4411275Y-81916682D01*
X4615961Y-81712352D01*
X4726874Y-81445246D01*
X4726954Y-81353694D01*
X5152659Y-80927989D01*
X5152659Y-81062933D01*
X4993385Y-81128744D01*
X4788699Y-81333074D01*
X4677786Y-81600180D01*
X4677534Y-81889399D01*
X4787980Y-82156699D01*
X4992310Y-82361385D01*
X5259416Y-82472298D01*
X5548635Y-82472550D01*
X5815935Y-82362104D01*
X6020621Y-82157774D01*
X6131534Y-81890668D01*
X6131630Y-81780901D01*
X6214641Y-81656667D01*
X6256659Y-81445425D01*
X6256659Y-78940800D01*
X6214641Y-78729559D01*
X6094982Y-78550477D01*
X6091660Y-78547155D01*
X6161329Y-78518368D01*
X6366015Y-78314038D01*
X6476928Y-78046932D01*
X6477008Y-77955380D01*
X6715324Y-77717064D01*
X6834983Y-77537983D01*
X6877001Y-77326741D01*
X6877001Y-77132643D01*
X7009680Y-77265322D01*
G36*
X9473000Y-74817352D02*
X8952000Y-74296352D01*
X8952000Y-72826200D01*
X9015961Y-72762350D01*
X9126874Y-72495244D01*
X9127126Y-72206025D01*
X9016680Y-71938725D01*
X8812350Y-71734039D01*
X8545244Y-71623126D01*
X8453692Y-71623046D01*
X6426999Y-69596353D01*
X6426999Y-68585365D01*
X7500000Y-68585365D01*
X7658237Y-68555591D01*
X7803567Y-68462073D01*
X7809943Y-68452741D01*
X7811629Y-68457068D01*
X8218864Y-68590241D01*
X8646063Y-68557435D01*
X8888371Y-68457068D01*
X8955411Y-68285017D01*
X8350000Y-67679605D01*
X8335858Y-67693748D01*
X8156253Y-67514143D01*
X8170395Y-67500000D01*
X8529605Y-67500000D01*
X9135017Y-68105411D01*
X9307068Y-68038371D01*
X9440241Y-67631136D01*
X9407435Y-67203937D01*
X9307068Y-66961629D01*
X9135017Y-66894589D01*
X8529605Y-67500000D01*
X8170395Y-67500000D01*
X8156253Y-67485858D01*
X8335858Y-67306252D01*
X8350000Y-67320395D01*
X8955411Y-66714983D01*
X8888371Y-66542932D01*
X8481136Y-66409759D01*
X8053937Y-66442565D01*
X7811629Y-66542932D01*
X7810645Y-66545457D01*
X7669381Y-66448936D01*
X7500000Y-66414635D01*
X7425244Y-66414635D01*
X9473000Y-64366879D01*
X9473000Y-74817352D01*
X9473000Y-74817352D01*
G37*
X9473000Y-74817352D02*
X8952000Y-74296352D01*
X8952000Y-72826200D01*
X9015961Y-72762350D01*
X9126874Y-72495244D01*
X9127126Y-72206025D01*
X9016680Y-71938725D01*
X8812350Y-71734039D01*
X8545244Y-71623126D01*
X8453692Y-71623046D01*
X6426999Y-69596353D01*
X6426999Y-68585365D01*
X7500000Y-68585365D01*
X7658237Y-68555591D01*
X7803567Y-68462073D01*
X7809943Y-68452741D01*
X7811629Y-68457068D01*
X8218864Y-68590241D01*
X8646063Y-68557435D01*
X8888371Y-68457068D01*
X8955411Y-68285017D01*
X8350000Y-67679605D01*
X8335858Y-67693748D01*
X8156253Y-67514143D01*
X8170395Y-67500000D01*
X8529605Y-67500000D01*
X9135017Y-68105411D01*
X9307068Y-68038371D01*
X9440241Y-67631136D01*
X9407435Y-67203937D01*
X9307068Y-66961629D01*
X9135017Y-66894589D01*
X8529605Y-67500000D01*
X8170395Y-67500000D01*
X8156253Y-67485858D01*
X8335858Y-67306252D01*
X8350000Y-67320395D01*
X8955411Y-66714983D01*
X8888371Y-66542932D01*
X8481136Y-66409759D01*
X8053937Y-66442565D01*
X7811629Y-66542932D01*
X7810645Y-66545457D01*
X7669381Y-66448936D01*
X7500000Y-66414635D01*
X7425244Y-66414635D01*
X9473000Y-64366879D01*
X9473000Y-74817352D01*
G36*
X5127000Y-63673000D02*
X5147000Y-63673000D01*
X5147000Y-63927000D01*
X5127000Y-63927000D01*
X5127000Y-63947000D01*
X4873000Y-63947000D01*
X4873000Y-63927000D01*
X4853000Y-63927000D01*
X4853000Y-63673000D01*
X4873000Y-63673000D01*
X4873000Y-63653000D01*
X5127000Y-63653000D01*
X5127000Y-63673000D01*
X5127000Y-63673000D01*
G37*
X5127000Y-63673000D02*
X5147000Y-63673000D01*
X5147000Y-63927000D01*
X5127000Y-63927000D01*
X5127000Y-63947000D01*
X4873000Y-63947000D01*
X4873000Y-63927000D01*
X4853000Y-63927000D01*
X4853000Y-63673000D01*
X4873000Y-63673000D01*
X4873000Y-63653000D01*
X5127000Y-63653000D01*
X5127000Y-63673000D01*
G36*
X9473000Y-25044795D02*
X9412350Y-24984039D01*
X9145244Y-24873126D01*
X8856025Y-24872874D01*
X8588725Y-24983320D01*
X8384039Y-25187650D01*
X8273126Y-25454756D01*
X8272874Y-25743975D01*
X8383320Y-26011275D01*
X8587650Y-26215961D01*
X8747999Y-26282544D01*
X8747999Y-38557318D01*
X8545244Y-38473126D01*
X8256025Y-38472874D01*
X7988725Y-38583320D01*
X7784039Y-38787650D01*
X7673126Y-39054756D01*
X7672874Y-39343975D01*
X7783320Y-39611275D01*
X7987650Y-39815961D01*
X8147999Y-39882544D01*
X8147999Y-51374270D01*
X8145244Y-51373126D01*
X7856025Y-51372874D01*
X7588725Y-51483320D01*
X7384039Y-51687650D01*
X7273126Y-51954756D01*
X7272874Y-52243975D01*
X7383320Y-52511275D01*
X7448000Y-52576068D01*
X7448000Y-63557765D01*
X7127010Y-63878755D01*
X7127010Y-30875010D01*
X7084992Y-30663769D01*
X7084992Y-30663768D01*
X6965333Y-30484687D01*
X5827047Y-29346401D01*
X5827126Y-29256025D01*
X5716680Y-28988725D01*
X5512350Y-28784039D01*
X5245244Y-28673126D01*
X4956025Y-28672874D01*
X4688725Y-28783320D01*
X4484039Y-28987650D01*
X4373126Y-29254756D01*
X4372874Y-29543975D01*
X4483320Y-29811275D01*
X4687650Y-30015961D01*
X4954756Y-30126874D01*
X5046308Y-30126954D01*
X6023010Y-31103656D01*
X6023010Y-34293575D01*
X5952407Y-34246400D01*
X5482854Y-34153000D01*
X4517146Y-34153000D01*
X4047593Y-34246400D01*
X3976990Y-34293575D01*
X3976990Y-28140854D01*
X4016728Y-28167406D01*
X4467146Y-28257000D01*
X5532854Y-28257000D01*
X5983272Y-28167406D01*
X6365119Y-27912265D01*
X6620260Y-27530418D01*
X6709854Y-27080000D01*
X6620260Y-26629582D01*
X6365119Y-26247735D01*
X5983272Y-25992594D01*
X5773538Y-25950875D01*
X5986885Y-25884999D01*
X6357422Y-25577817D01*
X6582200Y-25152220D01*
X6585518Y-25116351D01*
X6513028Y-24927000D01*
X5127000Y-24927000D01*
X5127000Y-24947000D01*
X4873000Y-24947000D01*
X4873000Y-24927000D01*
X4853000Y-24927000D01*
X4853000Y-24673000D01*
X4873000Y-24673000D01*
X4873000Y-24653000D01*
X5127000Y-24653000D01*
X5127000Y-24673000D01*
X6513028Y-24673000D01*
X6585518Y-24483649D01*
X6582200Y-24447780D01*
X6357422Y-24022183D01*
X5986885Y-23715001D01*
X5576674Y-23588338D01*
X5952407Y-23513600D01*
X6350474Y-23247620D01*
X6616454Y-22849553D01*
X6709854Y-22380000D01*
X6616454Y-21910447D01*
X6350474Y-21512380D01*
X5952407Y-21246400D01*
X5482854Y-21153000D01*
X4517146Y-21153000D01*
X4047593Y-21246400D01*
X3976990Y-21293575D01*
X3976990Y-15140854D01*
X4016728Y-15167406D01*
X4467146Y-15257000D01*
X4483207Y-15257000D01*
X4490018Y-15291242D01*
X4609677Y-15470323D01*
X7848000Y-18708646D01*
X7848000Y-23323800D01*
X7784039Y-23387650D01*
X7673126Y-23654756D01*
X7672874Y-23943975D01*
X7783320Y-24211275D01*
X7987650Y-24415961D01*
X8254756Y-24526874D01*
X8543975Y-24527126D01*
X8811275Y-24416680D01*
X9015961Y-24212350D01*
X9126874Y-23945244D01*
X9127126Y-23656025D01*
X9016680Y-23388725D01*
X8952000Y-23323932D01*
X8952000Y-18480000D01*
X8909982Y-18268759D01*
X8909982Y-18268758D01*
X8790323Y-18089677D01*
X5887168Y-15186522D01*
X5983272Y-15167406D01*
X6365119Y-14912265D01*
X6620260Y-14530418D01*
X6709854Y-14080000D01*
X6620260Y-13629582D01*
X6552125Y-13527611D01*
X6615667Y-13514972D01*
X6681808Y-13470778D01*
X6809627Y-13470889D01*
X7076927Y-13360443D01*
X7281613Y-13156113D01*
X7379917Y-12919373D01*
X7734885Y-13066769D01*
X8262798Y-13067229D01*
X8750703Y-12865631D01*
X9124319Y-12492666D01*
X9326769Y-12005115D01*
X9327229Y-11477202D01*
X9125631Y-10989297D01*
X8752666Y-10615681D01*
X8539100Y-10527000D01*
X8984936Y-10527000D01*
X9141876Y-10461993D01*
X9261993Y-10341876D01*
X9327000Y-10184935D01*
X9327000Y-9433750D01*
X9220250Y-9327000D01*
X8127000Y-9327000D01*
X8127000Y-9347000D01*
X7873000Y-9347000D01*
X7873000Y-9327000D01*
X6779750Y-9327000D01*
X6673000Y-9433750D01*
X6673000Y-10184935D01*
X6738007Y-10341876D01*
X6858124Y-10461993D01*
X7015064Y-10527000D01*
X7460746Y-10527000D01*
X7249297Y-10614369D01*
X6875681Y-10987334D01*
X6673231Y-11474885D01*
X6672771Y-12002798D01*
X6678546Y-12016774D01*
X6669585Y-12016766D01*
X6616680Y-11888725D01*
X6412350Y-11684039D01*
X6145244Y-11573126D01*
X5901466Y-11572914D01*
X5866680Y-11488725D01*
X5662350Y-11284039D01*
X5457326Y-11198905D01*
X5477000Y-11100000D01*
X5477000Y-10935365D01*
X5550000Y-10935365D01*
X5708237Y-10905591D01*
X5853567Y-10812073D01*
X5951064Y-10669381D01*
X5985365Y-10500000D01*
X5985365Y-9845281D01*
X6665355Y-9165291D01*
X6748142Y-9041392D01*
X6779750Y-9073000D01*
X7873000Y-9073000D01*
X7873000Y-7979750D01*
X8127000Y-7979750D01*
X8127000Y-9073000D01*
X9220250Y-9073000D01*
X9327000Y-8966250D01*
X9327000Y-8215065D01*
X9261993Y-8058124D01*
X9141876Y-7938007D01*
X8984936Y-7873000D01*
X8233750Y-7873000D01*
X8127000Y-7979750D01*
X7873000Y-7979750D01*
X7766250Y-7873000D01*
X7015064Y-7873000D01*
X6937829Y-7904992D01*
X6891712Y-7793379D01*
X6687382Y-7588693D01*
X6549293Y-7531353D01*
X7228646Y-6852000D01*
X7723800Y-6852000D01*
X7787650Y-6915961D01*
X8054756Y-7026874D01*
X8343975Y-7027126D01*
X8611275Y-6916680D01*
X8815961Y-6712350D01*
X8926874Y-6445244D01*
X8927126Y-6156025D01*
X8816680Y-5888725D01*
X8612350Y-5684039D01*
X8345244Y-5573126D01*
X8056025Y-5572874D01*
X7788725Y-5683320D01*
X7723932Y-5748000D01*
X7407642Y-5748000D01*
X7963686Y-5191956D01*
X7987650Y-5215961D01*
X8254756Y-5326874D01*
X8543975Y-5327126D01*
X8811275Y-5216680D01*
X9015961Y-5012350D01*
X9126874Y-4745244D01*
X9127126Y-4456025D01*
X9016680Y-4188725D01*
X8812350Y-3984039D01*
X8545244Y-3873126D01*
X8256025Y-3872874D01*
X8252000Y-3874537D01*
X8252000Y-2076200D01*
X8315961Y-2012350D01*
X8426874Y-1745244D01*
X8427126Y-1456025D01*
X8316680Y-1188725D01*
X8112350Y-984039D01*
X7845244Y-873126D01*
X7556025Y-872874D01*
X7288725Y-983320D01*
X7124287Y-1147472D01*
X6945244Y-1073126D01*
X6656025Y-1072874D01*
X6388725Y-1183320D01*
X6184039Y-1387650D01*
X6073126Y-1654756D01*
X6072874Y-1943975D01*
X6183320Y-2211275D01*
X6248000Y-2276068D01*
X6248000Y-3826040D01*
X5151011Y-4923029D01*
X4962350Y-4734039D01*
X4695244Y-4623126D01*
X4406025Y-4622874D01*
X4138725Y-4733320D01*
X4124019Y-4748000D01*
X2235365Y-4748000D01*
X2235365Y-4550000D01*
X2205591Y-4391763D01*
X2112073Y-4246433D01*
X1969381Y-4148936D01*
X1861059Y-4127000D01*
X4100000Y-4127000D01*
X4146159Y-4118315D01*
X4188553Y-4091035D01*
X4216994Y-4049410D01*
X4227000Y-4000000D01*
X4227000Y-2000000D01*
X4218315Y-1953841D01*
X4191035Y-1911447D01*
X4149410Y-1883006D01*
X4100000Y-1873000D01*
X265546Y-1873000D01*
X326891Y-1725265D01*
X327109Y-1475829D01*
X254397Y-1299852D01*
X326891Y-1125265D01*
X327109Y-875829D01*
X254397Y-699852D01*
X326171Y-527000D01*
X9473000Y-527000D01*
X9473000Y-25044795D01*
X9473000Y-25044795D01*
G37*
X9473000Y-25044795D02*
X9412350Y-24984039D01*
X9145244Y-24873126D01*
X8856025Y-24872874D01*
X8588725Y-24983320D01*
X8384039Y-25187650D01*
X8273126Y-25454756D01*
X8272874Y-25743975D01*
X8383320Y-26011275D01*
X8587650Y-26215961D01*
X8747999Y-26282544D01*
X8747999Y-38557318D01*
X8545244Y-38473126D01*
X8256025Y-38472874D01*
X7988725Y-38583320D01*
X7784039Y-38787650D01*
X7673126Y-39054756D01*
X7672874Y-39343975D01*
X7783320Y-39611275D01*
X7987650Y-39815961D01*
X8147999Y-39882544D01*
X8147999Y-51374270D01*
X8145244Y-51373126D01*
X7856025Y-51372874D01*
X7588725Y-51483320D01*
X7384039Y-51687650D01*
X7273126Y-51954756D01*
X7272874Y-52243975D01*
X7383320Y-52511275D01*
X7448000Y-52576068D01*
X7448000Y-63557765D01*
X7127010Y-63878755D01*
X7127010Y-30875010D01*
X7084992Y-30663769D01*
X7084992Y-30663768D01*
X6965333Y-30484687D01*
X5827047Y-29346401D01*
X5827126Y-29256025D01*
X5716680Y-28988725D01*
X5512350Y-28784039D01*
X5245244Y-28673126D01*
X4956025Y-28672874D01*
X4688725Y-28783320D01*
X4484039Y-28987650D01*
X4373126Y-29254756D01*
X4372874Y-29543975D01*
X4483320Y-29811275D01*
X4687650Y-30015961D01*
X4954756Y-30126874D01*
X5046308Y-30126954D01*
X6023010Y-31103656D01*
X6023010Y-34293575D01*
X5952407Y-34246400D01*
X5482854Y-34153000D01*
X4517146Y-34153000D01*
X4047593Y-34246400D01*
X3976990Y-34293575D01*
X3976990Y-28140854D01*
X4016728Y-28167406D01*
X4467146Y-28257000D01*
X5532854Y-28257000D01*
X5983272Y-28167406D01*
X6365119Y-27912265D01*
X6620260Y-27530418D01*
X6709854Y-27080000D01*
X6620260Y-26629582D01*
X6365119Y-26247735D01*
X5983272Y-25992594D01*
X5773538Y-25950875D01*
X5986885Y-25884999D01*
X6357422Y-25577817D01*
X6582200Y-25152220D01*
X6585518Y-25116351D01*
X6513028Y-24927000D01*
X5127000Y-24927000D01*
X5127000Y-24947000D01*
X4873000Y-24947000D01*
X4873000Y-24927000D01*
X4853000Y-24927000D01*
X4853000Y-24673000D01*
X4873000Y-24673000D01*
X4873000Y-24653000D01*
X5127000Y-24653000D01*
X5127000Y-24673000D01*
X6513028Y-24673000D01*
X6585518Y-24483649D01*
X6582200Y-24447780D01*
X6357422Y-24022183D01*
X5986885Y-23715001D01*
X5576674Y-23588338D01*
X5952407Y-23513600D01*
X6350474Y-23247620D01*
X6616454Y-22849553D01*
X6709854Y-22380000D01*
X6616454Y-21910447D01*
X6350474Y-21512380D01*
X5952407Y-21246400D01*
X5482854Y-21153000D01*
X4517146Y-21153000D01*
X4047593Y-21246400D01*
X3976990Y-21293575D01*
X3976990Y-15140854D01*
X4016728Y-15167406D01*
X4467146Y-15257000D01*
X4483207Y-15257000D01*
X4490018Y-15291242D01*
X4609677Y-15470323D01*
X7848000Y-18708646D01*
X7848000Y-23323800D01*
X7784039Y-23387650D01*
X7673126Y-23654756D01*
X7672874Y-23943975D01*
X7783320Y-24211275D01*
X7987650Y-24415961D01*
X8254756Y-24526874D01*
X8543975Y-24527126D01*
X8811275Y-24416680D01*
X9015961Y-24212350D01*
X9126874Y-23945244D01*
X9127126Y-23656025D01*
X9016680Y-23388725D01*
X8952000Y-23323932D01*
X8952000Y-18480000D01*
X8909982Y-18268759D01*
X8909982Y-18268758D01*
X8790323Y-18089677D01*
X5887168Y-15186522D01*
X5983272Y-15167406D01*
X6365119Y-14912265D01*
X6620260Y-14530418D01*
X6709854Y-14080000D01*
X6620260Y-13629582D01*
X6552125Y-13527611D01*
X6615667Y-13514972D01*
X6681808Y-13470778D01*
X6809627Y-13470889D01*
X7076927Y-13360443D01*
X7281613Y-13156113D01*
X7379917Y-12919373D01*
X7734885Y-13066769D01*
X8262798Y-13067229D01*
X8750703Y-12865631D01*
X9124319Y-12492666D01*
X9326769Y-12005115D01*
X9327229Y-11477202D01*
X9125631Y-10989297D01*
X8752666Y-10615681D01*
X8539100Y-10527000D01*
X8984936Y-10527000D01*
X9141876Y-10461993D01*
X9261993Y-10341876D01*
X9327000Y-10184935D01*
X9327000Y-9433750D01*
X9220250Y-9327000D01*
X8127000Y-9327000D01*
X8127000Y-9347000D01*
X7873000Y-9347000D01*
X7873000Y-9327000D01*
X6779750Y-9327000D01*
X6673000Y-9433750D01*
X6673000Y-10184935D01*
X6738007Y-10341876D01*
X6858124Y-10461993D01*
X7015064Y-10527000D01*
X7460746Y-10527000D01*
X7249297Y-10614369D01*
X6875681Y-10987334D01*
X6673231Y-11474885D01*
X6672771Y-12002798D01*
X6678546Y-12016774D01*
X6669585Y-12016766D01*
X6616680Y-11888725D01*
X6412350Y-11684039D01*
X6145244Y-11573126D01*
X5901466Y-11572914D01*
X5866680Y-11488725D01*
X5662350Y-11284039D01*
X5457326Y-11198905D01*
X5477000Y-11100000D01*
X5477000Y-10935365D01*
X5550000Y-10935365D01*
X5708237Y-10905591D01*
X5853567Y-10812073D01*
X5951064Y-10669381D01*
X5985365Y-10500000D01*
X5985365Y-9845281D01*
X6665355Y-9165291D01*
X6748142Y-9041392D01*
X6779750Y-9073000D01*
X7873000Y-9073000D01*
X7873000Y-7979750D01*
X8127000Y-7979750D01*
X8127000Y-9073000D01*
X9220250Y-9073000D01*
X9327000Y-8966250D01*
X9327000Y-8215065D01*
X9261993Y-8058124D01*
X9141876Y-7938007D01*
X8984936Y-7873000D01*
X8233750Y-7873000D01*
X8127000Y-7979750D01*
X7873000Y-7979750D01*
X7766250Y-7873000D01*
X7015064Y-7873000D01*
X6937829Y-7904992D01*
X6891712Y-7793379D01*
X6687382Y-7588693D01*
X6549293Y-7531353D01*
X7228646Y-6852000D01*
X7723800Y-6852000D01*
X7787650Y-6915961D01*
X8054756Y-7026874D01*
X8343975Y-7027126D01*
X8611275Y-6916680D01*
X8815961Y-6712350D01*
X8926874Y-6445244D01*
X8927126Y-6156025D01*
X8816680Y-5888725D01*
X8612350Y-5684039D01*
X8345244Y-5573126D01*
X8056025Y-5572874D01*
X7788725Y-5683320D01*
X7723932Y-5748000D01*
X7407642Y-5748000D01*
X7963686Y-5191956D01*
X7987650Y-5215961D01*
X8254756Y-5326874D01*
X8543975Y-5327126D01*
X8811275Y-5216680D01*
X9015961Y-5012350D01*
X9126874Y-4745244D01*
X9127126Y-4456025D01*
X9016680Y-4188725D01*
X8812350Y-3984039D01*
X8545244Y-3873126D01*
X8256025Y-3872874D01*
X8252000Y-3874537D01*
X8252000Y-2076200D01*
X8315961Y-2012350D01*
X8426874Y-1745244D01*
X8427126Y-1456025D01*
X8316680Y-1188725D01*
X8112350Y-984039D01*
X7845244Y-873126D01*
X7556025Y-872874D01*
X7288725Y-983320D01*
X7124287Y-1147472D01*
X6945244Y-1073126D01*
X6656025Y-1072874D01*
X6388725Y-1183320D01*
X6184039Y-1387650D01*
X6073126Y-1654756D01*
X6072874Y-1943975D01*
X6183320Y-2211275D01*
X6248000Y-2276068D01*
X6248000Y-3826040D01*
X5151011Y-4923029D01*
X4962350Y-4734039D01*
X4695244Y-4623126D01*
X4406025Y-4622874D01*
X4138725Y-4733320D01*
X4124019Y-4748000D01*
X2235365Y-4748000D01*
X2235365Y-4550000D01*
X2205591Y-4391763D01*
X2112073Y-4246433D01*
X1969381Y-4148936D01*
X1861059Y-4127000D01*
X4100000Y-4127000D01*
X4146159Y-4118315D01*
X4188553Y-4091035D01*
X4216994Y-4049410D01*
X4227000Y-4000000D01*
X4227000Y-2000000D01*
X4218315Y-1953841D01*
X4191035Y-1911447D01*
X4149410Y-1883006D01*
X4100000Y-1873000D01*
X265546Y-1873000D01*
X326891Y-1725265D01*
X327109Y-1475829D01*
X254397Y-1299852D01*
X326891Y-1125265D01*
X327109Y-875829D01*
X254397Y-699852D01*
X326171Y-527000D01*
X9473000Y-527000D01*
X9473000Y-25044795D01*
G36*
X5127000Y-50673000D02*
X5147000Y-50673000D01*
X5147000Y-50927000D01*
X5127000Y-50927000D01*
X5127000Y-50947000D01*
X4873000Y-50947000D01*
X4873000Y-50927000D01*
X4853000Y-50927000D01*
X4853000Y-50673000D01*
X4873000Y-50673000D01*
X4873000Y-50653000D01*
X5127000Y-50653000D01*
X5127000Y-50673000D01*
X5127000Y-50673000D01*
G37*
X5127000Y-50673000D02*
X5147000Y-50673000D01*
X5147000Y-50927000D01*
X5127000Y-50927000D01*
X5127000Y-50947000D01*
X4873000Y-50947000D01*
X4873000Y-50927000D01*
X4853000Y-50927000D01*
X4853000Y-50673000D01*
X4873000Y-50673000D01*
X4873000Y-50653000D01*
X5127000Y-50653000D01*
X5127000Y-50673000D01*
G36*
X5127000Y-37673000D02*
X5147000Y-37673000D01*
X5147000Y-37927000D01*
X5127000Y-37927000D01*
X5127000Y-37947000D01*
X4873000Y-37947000D01*
X4873000Y-37927000D01*
X4853000Y-37927000D01*
X4853000Y-37673000D01*
X4873000Y-37673000D01*
X4873000Y-37653000D01*
X5127000Y-37653000D01*
X5127000Y-37673000D01*
X5127000Y-37673000D01*
G37*
X5127000Y-37673000D02*
X5147000Y-37673000D01*
X5147000Y-37927000D01*
X5127000Y-37927000D01*
X5127000Y-37947000D01*
X4873000Y-37947000D01*
X4873000Y-37927000D01*
X4853000Y-37927000D01*
X4853000Y-37673000D01*
X4873000Y-37673000D01*
X4873000Y-37653000D01*
X5127000Y-37653000D01*
X5127000Y-37673000D01*
G36*
X-2254397Y-700148D02*
X-2326891Y-874735D01*
X-2327109Y-1124171D01*
X-2254397Y-1300148D01*
X-2326891Y-1474735D01*
X-2327109Y-1724171D01*
X-2231855Y-1954703D01*
X-2227000Y-1959566D01*
X-2227000Y-3614635D01*
X-4050000Y-3614635D01*
X-4208237Y-3644409D01*
X-4353567Y-3737927D01*
X-4451064Y-3880619D01*
X-4485365Y-4050000D01*
X-4485365Y-5850000D01*
X-4455591Y-6008237D01*
X-4396270Y-6100424D01*
X-4451064Y-6180619D01*
X-4485365Y-6350000D01*
X-4485365Y-8150000D01*
X-4455591Y-8308237D01*
X-4379700Y-8426174D01*
X-4451064Y-8530619D01*
X-4485365Y-8700000D01*
X-4485365Y-9606431D01*
X-4503977Y-9700000D01*
X-4485365Y-9793569D01*
X-4485365Y-10550000D01*
X-4477039Y-10594251D01*
X-4477117Y-10684073D01*
X-4374267Y-10932989D01*
X-4183990Y-11123598D01*
X-3935254Y-11226882D01*
X-3841486Y-11226964D01*
X-3800000Y-11235365D01*
X-2400000Y-11235365D01*
X-2355749Y-11227039D01*
X-2327024Y-11227064D01*
X-2327109Y-11324171D01*
X-2254397Y-11500148D01*
X-2326891Y-11674735D01*
X-2327109Y-11924171D01*
X-2254397Y-12100148D01*
X-2326171Y-12273000D01*
X-10773000Y-12273000D01*
X-10773000Y-10627000D01*
X-10400000Y-10627000D01*
X-10160057Y-10579272D01*
X-9956644Y-10443356D01*
X-9556644Y-10043356D01*
X-9538339Y-10015961D01*
X-9487822Y-9940357D01*
X-9412350Y-10015961D01*
X-9145244Y-10126874D01*
X-8856025Y-10127126D01*
X-8734711Y-10077000D01*
X-8704169Y-10077000D01*
X-8687073Y-10103567D01*
X-8544381Y-10201064D01*
X-8375000Y-10235365D01*
X-7825000Y-10235365D01*
X-7666763Y-10205591D01*
X-7521433Y-10112073D01*
X-7423936Y-9969381D01*
X-7389635Y-9800000D01*
X-7389635Y-8800000D01*
X-7419409Y-8641763D01*
X-7494544Y-8525000D01*
X-7072610Y-8525000D01*
X-7000143Y-8889315D01*
X-6793776Y-9198166D01*
X-6484925Y-9404533D01*
X-6120610Y-9477000D01*
X-5879390Y-9477000D01*
X-5515075Y-9404533D01*
X-5206224Y-9198166D01*
X-4999857Y-8889315D01*
X-4927390Y-8525000D01*
X-4999857Y-8160685D01*
X-5206224Y-7851834D01*
X-5515075Y-7645467D01*
X-5879390Y-7573000D01*
X-6120610Y-7573000D01*
X-6484925Y-7645467D01*
X-6793776Y-7851834D01*
X-7000143Y-8160685D01*
X-7072610Y-8525000D01*
X-7494544Y-8525000D01*
X-7512927Y-8496433D01*
X-7548000Y-8472469D01*
X-7548000Y-7678646D01*
X-6916993Y-7047639D01*
X-6905591Y-7108237D01*
X-6812073Y-7253567D01*
X-6669381Y-7351064D01*
X-6500000Y-7385365D01*
X-5100000Y-7385365D01*
X-4941763Y-7355591D01*
X-4796433Y-7262073D01*
X-4698936Y-7119381D01*
X-4664635Y-6950000D01*
X-4664635Y-6550000D01*
X-4689019Y-6420409D01*
X-4664635Y-6300000D01*
X-4664635Y-5900000D01*
X-4689019Y-5770409D01*
X-4664635Y-5650000D01*
X-4664635Y-5250000D01*
X-4689019Y-5120409D01*
X-4664635Y-5000000D01*
X-4664635Y-4600000D01*
X-4694409Y-4441763D01*
X-4787927Y-4296433D01*
X-4930619Y-4198936D01*
X-5085548Y-4167562D01*
X-4999857Y-4039315D01*
X-4927390Y-3675000D01*
X-4999857Y-3310685D01*
X-5206224Y-3001834D01*
X-5515075Y-2795467D01*
X-5879390Y-2723000D01*
X-6120610Y-2723000D01*
X-6484925Y-2795467D01*
X-6793776Y-3001834D01*
X-7000143Y-3310685D01*
X-7072610Y-3675000D01*
X-7069210Y-3692091D01*
X-7114799Y-3673161D01*
X-7483583Y-3672839D01*
X-7824417Y-3813669D01*
X-7948000Y-3937037D01*
X-7948000Y-1900645D01*
X-7900000Y-1910365D01*
X-6900000Y-1910365D01*
X-6741763Y-1880591D01*
X-6596433Y-1787073D01*
X-6498936Y-1644381D01*
X-6464635Y-1475000D01*
X-6464635Y-925000D01*
X-6494409Y-766763D01*
X-6587927Y-621433D01*
X-6726135Y-527000D01*
X-2325940Y-527000D01*
X-2254397Y-700148D01*
X-2254397Y-700148D01*
G37*
X-2254397Y-700148D02*
X-2326891Y-874735D01*
X-2327109Y-1124171D01*
X-2254397Y-1300148D01*
X-2326891Y-1474735D01*
X-2327109Y-1724171D01*
X-2231855Y-1954703D01*
X-2227000Y-1959566D01*
X-2227000Y-3614635D01*
X-4050000Y-3614635D01*
X-4208237Y-3644409D01*
X-4353567Y-3737927D01*
X-4451064Y-3880619D01*
X-4485365Y-4050000D01*
X-4485365Y-5850000D01*
X-4455591Y-6008237D01*
X-4396270Y-6100424D01*
X-4451064Y-6180619D01*
X-4485365Y-6350000D01*
X-4485365Y-8150000D01*
X-4455591Y-8308237D01*
X-4379700Y-8426174D01*
X-4451064Y-8530619D01*
X-4485365Y-8700000D01*
X-4485365Y-9606431D01*
X-4503977Y-9700000D01*
X-4485365Y-9793569D01*
X-4485365Y-10550000D01*
X-4477039Y-10594251D01*
X-4477117Y-10684073D01*
X-4374267Y-10932989D01*
X-4183990Y-11123598D01*
X-3935254Y-11226882D01*
X-3841486Y-11226964D01*
X-3800000Y-11235365D01*
X-2400000Y-11235365D01*
X-2355749Y-11227039D01*
X-2327024Y-11227064D01*
X-2327109Y-11324171D01*
X-2254397Y-11500148D01*
X-2326891Y-11674735D01*
X-2327109Y-11924171D01*
X-2254397Y-12100148D01*
X-2326171Y-12273000D01*
X-10773000Y-12273000D01*
X-10773000Y-10627000D01*
X-10400000Y-10627000D01*
X-10160057Y-10579272D01*
X-9956644Y-10443356D01*
X-9556644Y-10043356D01*
X-9538339Y-10015961D01*
X-9487822Y-9940357D01*
X-9412350Y-10015961D01*
X-9145244Y-10126874D01*
X-8856025Y-10127126D01*
X-8734711Y-10077000D01*
X-8704169Y-10077000D01*
X-8687073Y-10103567D01*
X-8544381Y-10201064D01*
X-8375000Y-10235365D01*
X-7825000Y-10235365D01*
X-7666763Y-10205591D01*
X-7521433Y-10112073D01*
X-7423936Y-9969381D01*
X-7389635Y-9800000D01*
X-7389635Y-8800000D01*
X-7419409Y-8641763D01*
X-7494544Y-8525000D01*
X-7072610Y-8525000D01*
X-7000143Y-8889315D01*
X-6793776Y-9198166D01*
X-6484925Y-9404533D01*
X-6120610Y-9477000D01*
X-5879390Y-9477000D01*
X-5515075Y-9404533D01*
X-5206224Y-9198166D01*
X-4999857Y-8889315D01*
X-4927390Y-8525000D01*
X-4999857Y-8160685D01*
X-5206224Y-7851834D01*
X-5515075Y-7645467D01*
X-5879390Y-7573000D01*
X-6120610Y-7573000D01*
X-6484925Y-7645467D01*
X-6793776Y-7851834D01*
X-7000143Y-8160685D01*
X-7072610Y-8525000D01*
X-7494544Y-8525000D01*
X-7512927Y-8496433D01*
X-7548000Y-8472469D01*
X-7548000Y-7678646D01*
X-6916993Y-7047639D01*
X-6905591Y-7108237D01*
X-6812073Y-7253567D01*
X-6669381Y-7351064D01*
X-6500000Y-7385365D01*
X-5100000Y-7385365D01*
X-4941763Y-7355591D01*
X-4796433Y-7262073D01*
X-4698936Y-7119381D01*
X-4664635Y-6950000D01*
X-4664635Y-6550000D01*
X-4689019Y-6420409D01*
X-4664635Y-6300000D01*
X-4664635Y-5900000D01*
X-4689019Y-5770409D01*
X-4664635Y-5650000D01*
X-4664635Y-5250000D01*
X-4689019Y-5120409D01*
X-4664635Y-5000000D01*
X-4664635Y-4600000D01*
X-4694409Y-4441763D01*
X-4787927Y-4296433D01*
X-4930619Y-4198936D01*
X-5085548Y-4167562D01*
X-4999857Y-4039315D01*
X-4927390Y-3675000D01*
X-4999857Y-3310685D01*
X-5206224Y-3001834D01*
X-5515075Y-2795467D01*
X-5879390Y-2723000D01*
X-6120610Y-2723000D01*
X-6484925Y-2795467D01*
X-6793776Y-3001834D01*
X-7000143Y-3310685D01*
X-7072610Y-3675000D01*
X-7069210Y-3692091D01*
X-7114799Y-3673161D01*
X-7483583Y-3672839D01*
X-7824417Y-3813669D01*
X-7948000Y-3937037D01*
X-7948000Y-1900645D01*
X-7900000Y-1910365D01*
X-6900000Y-1910365D01*
X-6741763Y-1880591D01*
X-6596433Y-1787073D01*
X-6498936Y-1644381D01*
X-6464635Y-1475000D01*
X-6464635Y-925000D01*
X-6494409Y-766763D01*
X-6587927Y-621433D01*
X-6726135Y-527000D01*
X-2325940Y-527000D01*
X-2254397Y-700148D01*
G36*
X-8203567Y-612927D02*
X-8215798Y-630827D01*
X-8354756Y-573126D01*
X-8643975Y-572874D01*
X-8911275Y-683320D01*
X-9115961Y-887650D01*
X-9226874Y-1154756D01*
X-9227126Y-1443975D01*
X-9116680Y-1711275D01*
X-9052000Y-1776068D01*
X-9052000Y-4621004D01*
X-9009982Y-4832246D01*
X-8890323Y-5011327D01*
X-8061327Y-5840323D01*
X-7882245Y-5959982D01*
X-7671004Y-6002000D01*
X-7432646Y-6002000D01*
X-8490323Y-7059677D01*
X-8609982Y-7238758D01*
X-8639143Y-7385365D01*
X-8652000Y-7450000D01*
X-8652000Y-8470831D01*
X-8678567Y-8487927D01*
X-8776064Y-8630619D01*
X-8790108Y-8699970D01*
X-8854756Y-8673126D01*
X-9143975Y-8672874D01*
X-9373000Y-8767505D01*
X-9373000Y-7127024D01*
X-9216417Y-7127161D01*
X-8875583Y-6986331D01*
X-8614586Y-6725789D01*
X-8473161Y-6385201D01*
X-8472839Y-6016417D01*
X-8613669Y-5675583D01*
X-8874211Y-5414586D01*
X-9214799Y-5273161D01*
X-9583583Y-5272839D01*
X-9924417Y-5413669D01*
X-10185414Y-5674211D01*
X-10326839Y-6014799D01*
X-10327036Y-6240324D01*
X-10443356Y-6356644D01*
X-10579272Y-6560057D01*
X-10627000Y-6800000D01*
X-10627000Y-9340288D01*
X-10659712Y-9373000D01*
X-10773000Y-9373000D01*
X-10773000Y-3600000D01*
X-10775440Y-3575223D01*
X-10783052Y-3536955D01*
X-10802014Y-3491176D01*
X-10823691Y-3458733D01*
X-10858733Y-3423691D01*
X-10891176Y-3402014D01*
X-10936955Y-3383052D01*
X-10975223Y-3375440D01*
X-11000000Y-3373000D01*
X-14173000Y-3373000D01*
X-14173000Y-2127000D01*
X-11000000Y-2127000D01*
X-10975223Y-2124560D01*
X-10936955Y-2116948D01*
X-10891176Y-2097986D01*
X-10858733Y-2076309D01*
X-10823691Y-2041267D01*
X-10802014Y-2008824D01*
X-10783052Y-1963045D01*
X-10775440Y-1924777D01*
X-10773000Y-1900000D01*
X-10773000Y-527000D01*
X-8070034Y-527000D01*
X-8203567Y-612927D01*
X-8203567Y-612927D01*
G37*
X-8203567Y-612927D02*
X-8215798Y-630827D01*
X-8354756Y-573126D01*
X-8643975Y-572874D01*
X-8911275Y-683320D01*
X-9115961Y-887650D01*
X-9226874Y-1154756D01*
X-9227126Y-1443975D01*
X-9116680Y-1711275D01*
X-9052000Y-1776068D01*
X-9052000Y-4621004D01*
X-9009982Y-4832246D01*
X-8890323Y-5011327D01*
X-8061327Y-5840323D01*
X-7882245Y-5959982D01*
X-7671004Y-6002000D01*
X-7432646Y-6002000D01*
X-8490323Y-7059677D01*
X-8609982Y-7238758D01*
X-8639143Y-7385365D01*
X-8652000Y-7450000D01*
X-8652000Y-8470831D01*
X-8678567Y-8487927D01*
X-8776064Y-8630619D01*
X-8790108Y-8699970D01*
X-8854756Y-8673126D01*
X-9143975Y-8672874D01*
X-9373000Y-8767505D01*
X-9373000Y-7127024D01*
X-9216417Y-7127161D01*
X-8875583Y-6986331D01*
X-8614586Y-6725789D01*
X-8473161Y-6385201D01*
X-8472839Y-6016417D01*
X-8613669Y-5675583D01*
X-8874211Y-5414586D01*
X-9214799Y-5273161D01*
X-9583583Y-5272839D01*
X-9924417Y-5413669D01*
X-10185414Y-5674211D01*
X-10326839Y-6014799D01*
X-10327036Y-6240324D01*
X-10443356Y-6356644D01*
X-10579272Y-6560057D01*
X-10627000Y-6800000D01*
X-10627000Y-9340288D01*
X-10659712Y-9373000D01*
X-10773000Y-9373000D01*
X-10773000Y-3600000D01*
X-10775440Y-3575223D01*
X-10783052Y-3536955D01*
X-10802014Y-3491176D01*
X-10823691Y-3458733D01*
X-10858733Y-3423691D01*
X-10891176Y-3402014D01*
X-10936955Y-3383052D01*
X-10975223Y-3375440D01*
X-11000000Y-3373000D01*
X-14173000Y-3373000D01*
X-14173000Y-2127000D01*
X-11000000Y-2127000D01*
X-10975223Y-2124560D01*
X-10936955Y-2116948D01*
X-10891176Y-2097986D01*
X-10858733Y-2076309D01*
X-10823691Y-2041267D01*
X-10802014Y-2008824D01*
X-10783052Y-1963045D01*
X-10775440Y-1924777D01*
X-10773000Y-1900000D01*
X-10773000Y-527000D01*
X-8070034Y-527000D01*
X-8203567Y-612927D01*
M02*
